STARTFONT 2.1
FONT -una-CozetteUCSUR-Medium-R-Normal--13-120-75-75-M-60-ISO10646-1
SIZE 12 75 75
FONTBOUNDINGBOX 20 17 -6 -4
COMMENT "Generated by fontforge, http://fontforge.sourceforge.net"
COMMENT "(c) 2020-2026 Una Ada <una@xn--z7x.dev>, Samhain <samhain@moonwit.ch> & contributors <https://github.com/the-moonwitch/Cozette/contributors>"
STARTPROPERTIES 40
FOUNDRY "una"
FAMILY_NAME "CozetteUCSUR"
WEIGHT_NAME "Medium"
SLANT "R"
SETWIDTH_NAME "Normal"
ADD_STYLE_NAME ""
PIXEL_SIZE 13
POINT_SIZE 120
RESOLUTION_X 75
RESOLUTION_Y 75
SPACING "M"
AVERAGE_WIDTH 60
CHARSET_REGISTRY "ISO10646"
CHARSET_ENCODING "1"
FONTNAME_REGISTRY ""
FONT_NAME "CozetteUCSUR"
FACE_NAME "Cozette"
COPYRIGHT "(c) 2020-2026 Una Ada <un@xn--z7x.dev>, Samhain <samhain@moonwit.ch> & contributors <https://github.com/the-moonwitch/Cozette/contributors>"
FONT_VERSION "1.0"
FONT_ASCENT 10
FONT_DESCENT 3
UNDERLINE_POSITION -19
UNDERLINE_THICKNESS 13
X_HEIGHT 5
CAP_HEIGHT 7
DEFAULT_CHAR 0
RAW_ASCENT 769
RAW_DESCENT 230
NORM_SPACE 6
RELATIVE_WEIGHT 50
RELATIVE_SETWIDTH 50
SUPERSCRIPT_X 0
SUPERSCRIPT_Y 2
SUPERSCRIPT_SIZE 2
SUBSCRIPT_X 0
SUBSCRIPT_Y 2
SUBSCRIPT_SIZE 2
FIGURE_WIDTH 6
AVG_LOWERCASE_WIDTH 60
AVG_UPPERCASE_WIDTH 60
ENDPROPERTIES
CHARS 8920
STARTCHAR uni0000
ENCODING 0
SWIDTH 500 0
DWIDTH 6 0
BBX 7 13 0 -3
BITMAP
AA
00
82
00
82
00
82
00
82
00
82
00
AA
ENDCHAR
STARTCHAR uni0001
ENCODING 1
SWIDTH 500 0
DWIDTH 6 0
BBX 5 6 1 1
BITMAP
F8
88
88
88
88
F8
ENDCHAR
STARTCHAR uni0002
ENCODING 2
SWIDTH 500 0
DWIDTH 6 0
BBX 5 6 1 1
BITMAP
F8
88
88
88
88
F8
ENDCHAR
STARTCHAR uni0003
ENCODING 3
SWIDTH 500 0
DWIDTH 6 0
BBX 5 6 1 1
BITMAP
F8
88
88
88
88
F8
ENDCHAR
STARTCHAR uni0004
ENCODING 4
SWIDTH 500 0
DWIDTH 6 0
BBX 5 6 1 1
BITMAP
F8
88
88
88
88
F8
ENDCHAR
STARTCHAR uni0005
ENCODING 5
SWIDTH 500 0
DWIDTH 6 0
BBX 5 6 1 1
BITMAP
F8
88
88
88
88
F8
ENDCHAR
STARTCHAR uni0006
ENCODING 6
SWIDTH 500 0
DWIDTH 6 0
BBX 5 6 1 1
BITMAP
F8
88
88
88
88
F8
ENDCHAR
STARTCHAR uni0007
ENCODING 7
SWIDTH 500 0
DWIDTH 6 0
BBX 5 6 1 1
BITMAP
F8
88
88
88
88
F8
ENDCHAR
STARTCHAR uni0008
ENCODING 8
SWIDTH 500 0
DWIDTH 6 0
BBX 5 6 1 1
BITMAP
F8
88
88
88
88
F8
ENDCHAR
STARTCHAR uni0009
ENCODING 9
SWIDTH 500 0
DWIDTH 7 0
BBX 1 1 0 0
BITMAP
00
ENDCHAR
STARTCHAR uni000A
ENCODING 10
SWIDTH 500 0
DWIDTH 6 0
BBX 5 6 1 1
BITMAP
F8
88
88
88
88
F8
ENDCHAR
STARTCHAR uni000B
ENCODING 11
SWIDTH 500 0
DWIDTH 6 0
BBX 5 6 1 1
BITMAP
F8
88
88
88
88
F8
ENDCHAR
STARTCHAR uni000C
ENCODING 12
SWIDTH 500 0
DWIDTH 6 0
BBX 5 6 1 1
BITMAP
F8
88
88
88
88
F8
ENDCHAR
STARTCHAR uni000D
ENCODING 13
SWIDTH 500 0
DWIDTH 6 0
BBX 5 6 1 1
BITMAP
F8
88
88
88
88
F8
ENDCHAR
STARTCHAR uni000E
ENCODING 14
SWIDTH 500 0
DWIDTH 6 0
BBX 4 7 0 3
BITMAP
10
10
10
10
10
10
F0
ENDCHAR
STARTCHAR uni000F
ENCODING 15
SWIDTH 500 0
DWIDTH 6 0
BBX 4 7 3 3
BITMAP
80
80
80
80
80
80
F0
ENDCHAR
STARTCHAR uni0010
ENCODING 16
SWIDTH 500 0
DWIDTH 6 0
BBX 4 7 3 -3
BITMAP
F0
80
80
80
80
80
80
ENDCHAR
STARTCHAR uni0011
ENCODING 17
SWIDTH 500 0
DWIDTH 6 0
BBX 4 7 0 -3
BITMAP
F0
10
10
10
10
10
10
ENDCHAR
STARTCHAR uni0012
ENCODING 18
SWIDTH 500 0
DWIDTH 6 0
BBX 7 1 0 3
BITMAP
FE
ENDCHAR
STARTCHAR uni0013
ENCODING 19
SWIDTH 500 0
DWIDTH 6 0
BBX 1 13 3 -3
BITMAP
80
80
80
80
80
80
80
80
80
80
80
80
80
ENDCHAR
STARTCHAR uni0014
ENCODING 20
SWIDTH 500 0
DWIDTH 6 0
BBX 4 13 0 -3
BITMAP
10
10
10
10
10
10
F0
10
10
10
10
10
10
ENDCHAR
STARTCHAR uni0015
ENCODING 21
SWIDTH 500 0
DWIDTH 6 0
BBX 7 7 0 3
BITMAP
10
10
10
10
10
10
FE
ENDCHAR
STARTCHAR uni0016
ENCODING 22
SWIDTH 500 0
DWIDTH 6 0
BBX 4 13 3 -3
BITMAP
80
80
80
80
80
80
F0
80
80
80
80
80
80
ENDCHAR
STARTCHAR uni0017
ENCODING 23
SWIDTH 500 0
DWIDTH 6 0
BBX 7 7 0 -3
BITMAP
FE
10
10
10
10
10
10
ENDCHAR
STARTCHAR uni0018
ENCODING 24
SWIDTH 500 0
DWIDTH 6 0
BBX 7 13 0 -3
BITMAP
10
10
10
10
10
10
FE
10
10
10
10
10
10
ENDCHAR
STARTCHAR uni0019
ENCODING 25
SWIDTH 500 0
DWIDTH 6 0
BBX 7 13 0 -3
BITMAP
AA
54
AA
54
AA
54
AA
54
AA
54
AA
54
AA
ENDCHAR
STARTCHAR uni001A
ENCODING 26
SWIDTH 500 0
DWIDTH 6 0
BBX 5 5 1 1
BITMAP
10
F8
20
F8
40
ENDCHAR
STARTCHAR uni001B
ENCODING 27
SWIDTH 500 0
DWIDTH 6 0
BBX 5 7 1 0
BITMAP
18
60
80
60
18
00
F8
ENDCHAR
STARTCHAR uni001C
ENCODING 28
SWIDTH 500 0
DWIDTH 6 0
BBX 5 6 1 0
BITMAP
F8
50
50
50
50
50
ENDCHAR
STARTCHAR uni001D
ENCODING 29
SWIDTH 500 0
DWIDTH 6 0
BBX 5 7 1 0
BITMAP
C0
30
08
30
C0
00
F8
ENDCHAR
STARTCHAR uni001E
ENCODING 30
SWIDTH 500 0
DWIDTH 6 0
BBX 5 8 1 0
BITMAP
30
40
40
F0
40
40
80
F8
ENDCHAR
STARTCHAR uni001F
ENCODING 31
SWIDTH 500 0
DWIDTH 6 0
BBX 3 1 2 3
BITMAP
E0
ENDCHAR
STARTCHAR space
ENCODING 32
SWIDTH 500 0
DWIDTH 6 0
BBX 1 1 6 -1
BITMAP
00
ENDCHAR
STARTCHAR exclam
ENCODING 33
SWIDTH 500 0
DWIDTH 6 0
BBX 1 8 3 0
BITMAP
80
80
80
80
80
80
00
80
ENDCHAR
STARTCHAR quotedbl
ENCODING 34
SWIDTH 500 0
DWIDTH 6 0
BBX 3 3 2 6
BITMAP
A0
A0
A0
ENDCHAR
STARTCHAR numbersign
ENCODING 35
SWIDTH 500 0
DWIDTH 6 0
BBX 5 8 1 0
BITMAP
50
50
F8
50
50
F8
50
50
ENDCHAR
STARTCHAR dollar
ENCODING 36
SWIDTH 500 0
DWIDTH 6 0
BBX 5 10 1 -1
BITMAP
20
70
A8
A0
70
28
28
A8
70
20
ENDCHAR
STARTCHAR percent
ENCODING 37
SWIDTH 500 0
DWIDTH 6 0
BBX 5 9 1 0
BITMAP
40
A0
48
10
20
40
90
28
10
ENDCHAR
STARTCHAR ampersand
ENCODING 38
SWIDTH 500 0
DWIDTH 6 0
BBX 5 9 1 0
BITMAP
20
50
50
20
68
90
90
90
68
ENDCHAR
STARTCHAR quotesingle
ENCODING 39
SWIDTH 500 0
DWIDTH 6 0
BBX 1 3 3 6
BITMAP
80
80
80
ENDCHAR
STARTCHAR parenleft
ENCODING 40
SWIDTH 500 0
DWIDTH 6 0
BBX 3 11 2 -2
BITMAP
20
40
40
80
80
80
80
80
40
40
20
ENDCHAR
STARTCHAR parenright
ENCODING 41
SWIDTH 500 0
DWIDTH 6 0
BBX 3 11 2 -2
BITMAP
80
40
40
20
20
20
20
20
40
40
80
ENDCHAR
STARTCHAR asterisk
ENCODING 42
SWIDTH 500 0
DWIDTH 6 0
BBX 5 5 1 1
BITMAP
50
20
F8
20
50
ENDCHAR
STARTCHAR plus
ENCODING 43
SWIDTH 500 0
DWIDTH 6 0
BBX 5 5 1 1
BITMAP
20
20
F8
20
20
ENDCHAR
STARTCHAR comma
ENCODING 44
SWIDTH 500 0
DWIDTH 6 0
BBX 2 4 2 -2
BITMAP
C0
C0
40
80
ENDCHAR
STARTCHAR hyphen
ENCODING 45
SWIDTH 500 0
DWIDTH 6 0
BBX 5 1 1 3
BITMAP
F8
ENDCHAR
STARTCHAR period
ENCODING 46
SWIDTH 500 0
DWIDTH 6 0
BBX 2 2 2 0
BITMAP
C0
C0
ENDCHAR
STARTCHAR slash
ENCODING 47
SWIDTH 500 0
DWIDTH 6 0
BBX 5 10 1 -1
BITMAP
08
08
10
10
20
20
40
40
80
80
ENDCHAR
STARTCHAR zero
ENCODING 48
SWIDTH 500 0
DWIDTH 6 0
BBX 5 8 1 0
BITMAP
70
88
88
A8
A8
88
88
70
ENDCHAR
STARTCHAR one
ENCODING 49
SWIDTH 500 0
DWIDTH 6 0
BBX 5 8 1 0
BITMAP
20
60
A0
20
20
20
20
F8
ENDCHAR
STARTCHAR two
ENCODING 50
SWIDTH 500 0
DWIDTH 6 0
BBX 5 8 1 0
BITMAP
70
88
08
10
20
40
80
F8
ENDCHAR
STARTCHAR three
ENCODING 51
SWIDTH 500 0
DWIDTH 6 0
BBX 5 8 1 0
BITMAP
70
88
08
30
08
08
88
70
ENDCHAR
STARTCHAR four
ENCODING 52
SWIDTH 500 0
DWIDTH 6 0
BBX 6 8 1 0
BITMAP
08
18
28
48
88
FC
08
08
ENDCHAR
STARTCHAR five
ENCODING 53
SWIDTH 500 0
DWIDTH 6 0
BBX 5 8 1 0
BITMAP
F8
80
80
F0
08
08
88
70
ENDCHAR
STARTCHAR six
ENCODING 54
SWIDTH 500 0
DWIDTH 6 0
BBX 5 8 1 0
BITMAP
30
40
80
F0
88
88
88
70
ENDCHAR
STARTCHAR seven
ENCODING 55
SWIDTH 500 0
DWIDTH 6 0
BBX 5 8 1 0
BITMAP
F8
08
10
10
20
20
40
40
ENDCHAR
STARTCHAR eight
ENCODING 56
SWIDTH 500 0
DWIDTH 6 0
BBX 5 8 1 0
BITMAP
70
88
88
70
88
88
88
70
ENDCHAR
STARTCHAR nine
ENCODING 57
SWIDTH 500 0
DWIDTH 6 0
BBX 5 8 1 0
BITMAP
70
88
88
88
78
08
10
60
ENDCHAR
STARTCHAR colon
ENCODING 58
SWIDTH 500 0
DWIDTH 6 0
BBX 2 6 2 0
BITMAP
C0
C0
00
00
C0
C0
ENDCHAR
STARTCHAR semicolon
ENCODING 59
SWIDTH 500 0
DWIDTH 6 0
BBX 2 8 2 -2
BITMAP
C0
C0
00
00
C0
C0
40
80
ENDCHAR
STARTCHAR less
ENCODING 60
SWIDTH 500 0
DWIDTH 6 0
BBX 4 7 2 0
BITMAP
10
20
40
80
40
20
10
ENDCHAR
STARTCHAR equal
ENCODING 61
SWIDTH 500 0
DWIDTH 6 0
BBX 5 3 1 2
BITMAP
F8
00
F8
ENDCHAR
STARTCHAR greater
ENCODING 62
SWIDTH 500 0
DWIDTH 6 0
BBX 4 7 1 0
BITMAP
80
40
20
10
20
40
80
ENDCHAR
STARTCHAR question
ENCODING 63
SWIDTH 500 0
DWIDTH 6 0
BBX 5 8 1 0
BITMAP
70
88
08
10
20
20
00
20
ENDCHAR
STARTCHAR at
ENCODING 64
SWIDTH 500 0
DWIDTH 6 0
BBX 5 8 1 0
BITMAP
70
88
88
B8
A8
B8
80
78
ENDCHAR
STARTCHAR A
ENCODING 65
SWIDTH 500 0
DWIDTH 6 0
BBX 5 8 1 0
BITMAP
70
88
88
88
F8
88
88
88
ENDCHAR
STARTCHAR B
ENCODING 66
SWIDTH 500 0
DWIDTH 6 0
BBX 5 8 1 0
BITMAP
F0
88
88
F0
88
88
88
F0
ENDCHAR
STARTCHAR C
ENCODING 67
SWIDTH 500 0
DWIDTH 6 0
BBX 5 8 1 0
BITMAP
70
88
80
80
80
80
88
70
ENDCHAR
STARTCHAR D
ENCODING 68
SWIDTH 500 0
DWIDTH 6 0
BBX 5 8 1 0
BITMAP
E0
90
88
88
88
88
90
E0
ENDCHAR
STARTCHAR E
ENCODING 69
SWIDTH 500 0
DWIDTH 6 0
BBX 5 8 1 0
BITMAP
F8
80
80
F0
80
80
80
F8
ENDCHAR
STARTCHAR F
ENCODING 70
SWIDTH 500 0
DWIDTH 6 0
BBX 5 8 1 0
BITMAP
F8
80
80
F0
80
80
80
80
ENDCHAR
STARTCHAR G
ENCODING 71
SWIDTH 500 0
DWIDTH 6 0
BBX 5 8 1 0
BITMAP
70
88
80
80
98
88
88
70
ENDCHAR
STARTCHAR H
ENCODING 72
SWIDTH 500 0
DWIDTH 6 0
BBX 5 8 1 0
BITMAP
88
88
88
F8
88
88
88
88
ENDCHAR
STARTCHAR I
ENCODING 73
SWIDTH 500 0
DWIDTH 6 0
BBX 3 8 2 0
BITMAP
E0
40
40
40
40
40
40
E0
ENDCHAR
STARTCHAR J
ENCODING 74
SWIDTH 500 0
DWIDTH 6 0
BBX 5 8 1 0
BITMAP
38
08
08
08
08
88
88
70
ENDCHAR
STARTCHAR K
ENCODING 75
SWIDTH 500 0
DWIDTH 6 0
BBX 5 8 1 0
BITMAP
88
90
A0
E0
90
90
88
88
ENDCHAR
STARTCHAR L
ENCODING 76
SWIDTH 500 0
DWIDTH 6 0
BBX 5 8 1 0
BITMAP
80
80
80
80
80
80
80
F8
ENDCHAR
STARTCHAR M
ENCODING 77
SWIDTH 500 0
DWIDTH 6 0
BBX 5 8 1 0
BITMAP
88
D8
A8
A8
88
88
88
88
ENDCHAR
STARTCHAR N
ENCODING 78
SWIDTH 500 0
DWIDTH 6 0
BBX 5 8 1 0
BITMAP
88
C8
C8
A8
A8
98
98
88
ENDCHAR
STARTCHAR O
ENCODING 79
SWIDTH 500 0
DWIDTH 6 0
BBX 5 8 1 0
BITMAP
70
88
88
88
88
88
88
70
ENDCHAR
STARTCHAR P
ENCODING 80
SWIDTH 500 0
DWIDTH 6 0
BBX 5 8 1 0
BITMAP
F0
88
88
88
F0
80
80
80
ENDCHAR
STARTCHAR Q
ENCODING 81
SWIDTH 500 0
DWIDTH 6 0
BBX 5 9 1 -1
BITMAP
70
88
88
88
88
88
90
68
08
ENDCHAR
STARTCHAR R
ENCODING 82
SWIDTH 500 0
DWIDTH 6 0
BBX 5 8 1 0
BITMAP
F0
88
88
F0
90
88
88
88
ENDCHAR
STARTCHAR S
ENCODING 83
SWIDTH 500 0
DWIDTH 6 0
BBX 5 8 1 0
BITMAP
70
88
80
70
08
08
88
70
ENDCHAR
STARTCHAR T
ENCODING 84
SWIDTH 500 0
DWIDTH 6 0
BBX 5 8 1 0
BITMAP
F8
20
20
20
20
20
20
20
ENDCHAR
STARTCHAR U
ENCODING 85
SWIDTH 500 0
DWIDTH 6 0
BBX 5 8 1 0
BITMAP
88
88
88
88
88
88
88
70
ENDCHAR
STARTCHAR V
ENCODING 86
SWIDTH 500 0
DWIDTH 6 0
BBX 5 8 1 0
BITMAP
88
88
88
50
50
50
20
20
ENDCHAR
STARTCHAR W
ENCODING 87
SWIDTH 500 0
DWIDTH 6 0
BBX 5 8 1 0
BITMAP
88
88
88
A8
A8
70
50
50
ENDCHAR
STARTCHAR X
ENCODING 88
SWIDTH 500 0
DWIDTH 6 0
BBX 5 8 1 0
BITMAP
88
88
50
20
20
50
88
88
ENDCHAR
STARTCHAR Y
ENCODING 89
SWIDTH 500 0
DWIDTH 6 0
BBX 5 8 1 0
BITMAP
88
88
88
50
20
20
20
20
ENDCHAR
STARTCHAR Z
ENCODING 90
SWIDTH 500 0
DWIDTH 6 0
BBX 5 8 1 0
BITMAP
F8
10
20
20
40
40
80
F8
ENDCHAR
STARTCHAR bracketleft
ENCODING 91
SWIDTH 500 0
DWIDTH 6 0
BBX 3 11 2 -2
BITMAP
E0
80
80
80
80
80
80
80
80
80
E0
ENDCHAR
STARTCHAR backslash
ENCODING 92
SWIDTH 500 0
DWIDTH 6 0
BBX 5 10 1 -1
BITMAP
80
80
40
40
20
20
10
10
08
08
ENDCHAR
STARTCHAR bracketright
ENCODING 93
SWIDTH 500 0
DWIDTH 6 0
BBX 3 11 2 -2
BITMAP
E0
20
20
20
20
20
20
20
20
20
E0
ENDCHAR
STARTCHAR asciicircum
ENCODING 94
SWIDTH 500 0
DWIDTH 6 0
BBX 5 3 1 7
BITMAP
20
50
88
ENDCHAR
STARTCHAR underscore
ENCODING 95
SWIDTH 500 0
DWIDTH 6 0
BBX 5 1 1 -1
BITMAP
F8
ENDCHAR
STARTCHAR grave
ENCODING 96
SWIDTH 500 0
DWIDTH 6 0
BBX 2 2 2 7
BITMAP
80
40
ENDCHAR
STARTCHAR a
ENCODING 97
SWIDTH 500 0
DWIDTH 6 0
BBX 5 6 1 0
BITMAP
78
88
88
88
98
68
ENDCHAR
STARTCHAR b
ENCODING 98
SWIDTH 500 0
DWIDTH 6 0
BBX 5 9 1 0
BITMAP
80
80
80
F0
88
88
88
88
F0
ENDCHAR
STARTCHAR c
ENCODING 99
SWIDTH 500 0
DWIDTH 6 0
BBX 5 6 1 0
BITMAP
70
88
80
80
88
70
ENDCHAR
STARTCHAR d
ENCODING 100
SWIDTH 500 0
DWIDTH 6 0
BBX 5 9 1 0
BITMAP
08
08
08
78
88
88
88
88
78
ENDCHAR
STARTCHAR e
ENCODING 101
SWIDTH 500 0
DWIDTH 6 0
BBX 5 6 1 0
BITMAP
70
88
F8
80
88
70
ENDCHAR
STARTCHAR f
ENCODING 102
SWIDTH 500 0
DWIDTH 6 0
BBX 5 9 1 0
BITMAP
38
40
40
F0
40
40
40
40
40
ENDCHAR
STARTCHAR g
ENCODING 103
SWIDTH 500 0
DWIDTH 6 0
BBX 5 9 1 -3
BITMAP
78
88
88
88
88
78
08
08
70
ENDCHAR
STARTCHAR h
ENCODING 104
SWIDTH 500 0
DWIDTH 6 0
BBX 5 9 1 0
BITMAP
80
80
80
F0
88
88
88
88
88
ENDCHAR
STARTCHAR i
ENCODING 105
SWIDTH 500 0
DWIDTH 6 0
BBX 4 8 2 0
BITMAP
40
00
C0
40
40
40
40
30
ENDCHAR
STARTCHAR j
ENCODING 106
SWIDTH 500 0
DWIDTH 6 0
BBX 3 10 2 -2
BITMAP
20
00
60
20
20
20
20
20
A0
40
ENDCHAR
STARTCHAR k
ENCODING 107
SWIDTH 500 0
DWIDTH 6 0
BBX 5 9 1 0
BITMAP
80
80
80
88
90
A0
E0
90
88
ENDCHAR
STARTCHAR l
ENCODING 108
SWIDTH 500 0
DWIDTH 6 0
BBX 3 9 2 0
BITMAP
C0
40
40
40
40
40
40
40
60
ENDCHAR
STARTCHAR m
ENCODING 109
SWIDTH 500 0
DWIDTH 6 0
BBX 5 6 1 0
BITMAP
D0
A8
A8
A8
A8
A8
ENDCHAR
STARTCHAR n
ENCODING 110
SWIDTH 500 0
DWIDTH 6 0
BBX 5 6 1 0
BITMAP
F0
88
88
88
88
88
ENDCHAR
STARTCHAR o
ENCODING 111
SWIDTH 500 0
DWIDTH 6 0
BBX 5 6 1 0
BITMAP
70
88
88
88
88
70
ENDCHAR
STARTCHAR p
ENCODING 112
SWIDTH 500 0
DWIDTH 6 0
BBX 5 9 1 -3
BITMAP
F0
88
88
88
88
F0
80
80
80
ENDCHAR
STARTCHAR q
ENCODING 113
SWIDTH 500 0
DWIDTH 6 0
BBX 6 9 1 -3
BITMAP
78
88
88
88
88
78
08
08
0C
ENDCHAR
STARTCHAR r
ENCODING 114
SWIDTH 500 0
DWIDTH 6 0
BBX 5 6 1 0
BITMAP
F0
88
80
80
80
80
ENDCHAR
STARTCHAR s
ENCODING 115
SWIDTH 500 0
DWIDTH 6 0
BBX 5 6 1 0
BITMAP
78
80
70
08
08
F0
ENDCHAR
STARTCHAR t
ENCODING 116
SWIDTH 500 0
DWIDTH 6 0
BBX 5 8 1 0
BITMAP
40
40
F0
40
40
40
40
38
ENDCHAR
STARTCHAR u
ENCODING 117
SWIDTH 500 0
DWIDTH 6 0
BBX 5 6 1 0
BITMAP
88
88
88
88
88
78
ENDCHAR
STARTCHAR v
ENCODING 118
SWIDTH 500 0
DWIDTH 6 0
BBX 5 6 1 0
BITMAP
88
88
50
50
20
20
ENDCHAR
STARTCHAR w
ENCODING 119
SWIDTH 500 0
DWIDTH 6 0
BBX 5 6 1 0
BITMAP
88
88
A8
A8
50
50
ENDCHAR
STARTCHAR x
ENCODING 120
SWIDTH 500 0
DWIDTH 6 0
BBX 5 6 1 0
BITMAP
88
50
20
20
50
88
ENDCHAR
STARTCHAR y
ENCODING 121
SWIDTH 500 0
DWIDTH 6 0
BBX 5 9 1 -3
BITMAP
88
88
88
88
88
78
08
08
70
ENDCHAR
STARTCHAR z
ENCODING 122
SWIDTH 500 0
DWIDTH 6 0
BBX 5 6 1 0
BITMAP
F8
10
20
40
80
F8
ENDCHAR
STARTCHAR braceleft
ENCODING 123
SWIDTH 500 0
DWIDTH 6 0
BBX 5 11 1 -2
BITMAP
18
20
20
20
20
C0
20
20
20
20
18
ENDCHAR
STARTCHAR bar
ENCODING 124
SWIDTH 500 0
DWIDTH 6 0
BBX 1 11 3 -2
BITMAP
80
80
80
80
80
80
80
80
80
80
80
ENDCHAR
STARTCHAR braceright
ENCODING 125
SWIDTH 500 0
DWIDTH 6 0
BBX 5 11 1 -2
BITMAP
C0
20
20
20
20
18
20
20
20
20
C0
ENDCHAR
STARTCHAR asciitilde
ENCODING 126
SWIDTH 500 0
DWIDTH 6 0
BBX 5 3 1 2
BITMAP
48
A8
90
ENDCHAR
STARTCHAR uni007F
ENCODING 127
SWIDTH 500 0
DWIDTH 6 0
BBX 1 1 0 0
BITMAP
00
ENDCHAR
STARTCHAR uni00A0
ENCODING 160
SWIDTH 500 0
DWIDTH 6 0
BBX 1 1 6 -1
BITMAP
00
ENDCHAR
STARTCHAR exclamdown
ENCODING 161
SWIDTH 500 0
DWIDTH 6 0
BBX 1 8 3 -2
BITMAP
80
00
80
80
80
80
80
80
ENDCHAR
STARTCHAR cent
ENCODING 162
SWIDTH 500 0
DWIDTH 6 0
BBX 5 8 1 -1
BITMAP
20
70
A8
A0
A0
A8
70
20
ENDCHAR
STARTCHAR sterling
ENCODING 163
SWIDTH 500 0
DWIDTH 6 0
BBX 5 8 1 0
BITMAP
30
40
40
F0
40
40
40
B8
ENDCHAR
STARTCHAR currency
ENCODING 164
SWIDTH 500 0
DWIDTH 6 0
BBX 5 6 1 0
BITMAP
88
70
50
50
70
88
ENDCHAR
STARTCHAR yen
ENCODING 165
SWIDTH 500 0
DWIDTH 6 0
BBX 5 9 1 0
BITMAP
88
88
88
50
20
F8
20
F8
20
ENDCHAR
STARTCHAR brokenbar
ENCODING 166
SWIDTH 500 0
DWIDTH 6 0
BBX 1 11 3 -2
BITMAP
80
80
80
80
00
00
00
80
80
80
80
ENDCHAR
STARTCHAR section
ENCODING 167
SWIDTH 500 0
DWIDTH 6 0
BBX 5 10 1 -1
BITMAP
70
88
80
60
50
50
30
08
88
70
ENDCHAR
STARTCHAR dieresis
ENCODING 168
SWIDTH 500 0
DWIDTH 6 0
BBX 3 1 2 8
BITMAP
A0
ENDCHAR
STARTCHAR copyright
ENCODING 169
SWIDTH 500 0
DWIDTH 6 0
BBX 7 7 0 0
BITMAP
38
44
BA
A2
BA
44
38
ENDCHAR
STARTCHAR ordfeminine
ENCODING 170
SWIDTH 500 0
DWIDTH 6 0
BBX 4 5 2 3
BITMAP
60
10
70
90
70
ENDCHAR
STARTCHAR guillemotleft
ENCODING 171
SWIDTH 500 0
DWIDTH 6 0
BBX 5 5 1 1
BITMAP
28
50
A0
50
28
ENDCHAR
STARTCHAR logicalnot
ENCODING 172
SWIDTH 500 0
DWIDTH 6 0
BBX 4 4 1 0
BITMAP
F0
10
10
10
ENDCHAR
STARTCHAR uni00AD
ENCODING 173
SWIDTH 500 0
DWIDTH 6 0
BBX 3 1 2 3
BITMAP
E0
ENDCHAR
STARTCHAR registered
ENCODING 174
SWIDTH 500 0
DWIDTH 6 0
BBX 7 7 0 0
BITMAP
38
44
BA
A2
A2
44
38
ENDCHAR
STARTCHAR macron
ENCODING 175
SWIDTH 500 0
DWIDTH 6 0
BBX 7 1 0 9
BITMAP
FE
ENDCHAR
STARTCHAR degree
ENCODING 176
SWIDTH 500 0
DWIDTH 6 0
BBX 4 4 1 4
BITMAP
60
90
90
60
ENDCHAR
STARTCHAR plusminus
ENCODING 177
SWIDTH 500 0
DWIDTH 6 0
BBX 5 7 1 0
BITMAP
20
20
F8
20
20
00
F8
ENDCHAR
STARTCHAR uni00B2
ENCODING 178
SWIDTH 500 0
DWIDTH 6 0
BBX 4 5 1 4
BITMAP
60
90
20
40
F0
ENDCHAR
STARTCHAR uni00B3
ENCODING 179
SWIDTH 500 0
DWIDTH 6 0
BBX 4 5 1 4
BITMAP
E0
10
60
10
E0
ENDCHAR
STARTCHAR acute
ENCODING 180
SWIDTH 500 0
DWIDTH 6 0
BBX 2 2 3 7
BITMAP
40
80
ENDCHAR
STARTCHAR mu
ENCODING 181
SWIDTH 500 0
DWIDTH 6 0
BBX 5 8 1 -2
BITMAP
48
48
48
48
68
50
40
80
ENDCHAR
STARTCHAR paragraph
ENCODING 182
SWIDTH 500 0
DWIDTH 6 0
BBX 5 9 1 -1
BITMAP
78
E8
E8
68
28
28
28
28
28
ENDCHAR
STARTCHAR periodcentered
ENCODING 183
SWIDTH 500 0
DWIDTH 6 0
BBX 3 3 2 2
BITMAP
40
E0
40
ENDCHAR
STARTCHAR cedilla
ENCODING 184
SWIDTH 500 0
DWIDTH 6 0
BBX 3 3 2 -2
BITMAP
40
20
C0
ENDCHAR
STARTCHAR uni00B9
ENCODING 185
SWIDTH 500 0
DWIDTH 6 0
BBX 3 5 1 4
BITMAP
40
C0
40
40
E0
ENDCHAR
STARTCHAR ordmasculine
ENCODING 186
SWIDTH 500 0
DWIDTH 6 0
BBX 3 5 3 3
BITMAP
40
A0
40
00
E0
ENDCHAR
STARTCHAR guillemotright
ENCODING 187
SWIDTH 500 0
DWIDTH 6 0
BBX 5 5 1 1
BITMAP
A0
50
28
50
A0
ENDCHAR
STARTCHAR onequarter
ENCODING 188
SWIDTH 500 0
DWIDTH 6 0
BBX 5 9 1 0
BITMAP
88
90
90
A0
20
48
58
B8
88
ENDCHAR
STARTCHAR onehalf
ENCODING 189
SWIDTH 500 0
DWIDTH 6 0
BBX 5 9 1 0
BITMAP
88
90
90
A0
20
50
48
90
98
ENDCHAR
STARTCHAR threequarters
ENCODING 190
SWIDTH 500 0
DWIDTH 6 0
BBX 5 9 1 0
BITMAP
C8
50
90
60
E0
48
58
B8
88
ENDCHAR
STARTCHAR questiondown
ENCODING 191
SWIDTH 500 0
DWIDTH 6 0
BBX 5 8 1 -2
BITMAP
20
00
20
20
40
80
88
70
ENDCHAR
STARTCHAR Agrave
ENCODING 192
SWIDTH 500 0
DWIDTH 6 0
BBX 5 10 1 0
BITMAP
40
20
00
70
88
88
F8
88
88
88
ENDCHAR
STARTCHAR Aacute
ENCODING 193
SWIDTH 500 0
DWIDTH 6 0
BBX 5 10 1 0
BITMAP
10
20
00
70
88
88
F8
88
88
88
ENDCHAR
STARTCHAR Acircumflex
ENCODING 194
SWIDTH 500 0
DWIDTH 6 0
BBX 5 10 1 0
BITMAP
20
50
00
70
88
88
F8
88
88
88
ENDCHAR
STARTCHAR Atilde
ENCODING 195
SWIDTH 500 0
DWIDTH 6 0
BBX 5 10 1 0
BITMAP
68
B0
00
70
88
88
F8
88
88
88
ENDCHAR
STARTCHAR Adieresis
ENCODING 196
SWIDTH 500 0
DWIDTH 6 0
BBX 5 10 1 0
BITMAP
50
00
70
88
88
88
F8
88
88
88
ENDCHAR
STARTCHAR Aring
ENCODING 197
SWIDTH 500 0
DWIDTH 6 0
BBX 5 10 1 0
BITMAP
20
50
20
00
70
88
88
F8
88
88
ENDCHAR
STARTCHAR AE
ENCODING 198
SWIDTH 500 0
DWIDTH 6 0
BBX 5 8 1 0
BITMAP
78
A0
A0
B8
E0
A0
A0
B8
ENDCHAR
STARTCHAR Ccedilla
ENCODING 199
SWIDTH 500 0
DWIDTH 6 0
BBX 5 11 1 -3
BITMAP
70
88
80
80
80
80
88
70
20
20
40
ENDCHAR
STARTCHAR Egrave
ENCODING 200
SWIDTH 500 0
DWIDTH 6 0
BBX 5 10 1 0
BITMAP
40
20
00
F8
80
80
F0
80
80
F8
ENDCHAR
STARTCHAR Eacute
ENCODING 201
SWIDTH 500 0
DWIDTH 6 0
BBX 5 10 1 0
BITMAP
10
20
00
F8
80
80
F0
80
80
F8
ENDCHAR
STARTCHAR Ecircumflex
ENCODING 202
SWIDTH 500 0
DWIDTH 6 0
BBX 5 10 1 0
BITMAP
20
50
00
F8
80
80
F0
80
80
F8
ENDCHAR
STARTCHAR Edieresis
ENCODING 203
SWIDTH 500 0
DWIDTH 6 0
BBX 5 10 1 0
BITMAP
50
00
F8
80
80
F0
80
80
80
F8
ENDCHAR
STARTCHAR Igrave
ENCODING 204
SWIDTH 500 0
DWIDTH 6 0
BBX 3 10 2 0
BITMAP
80
40
00
E0
40
40
40
40
40
E0
ENDCHAR
STARTCHAR Iacute
ENCODING 205
SWIDTH 500 0
DWIDTH 6 0
BBX 3 10 2 0
BITMAP
20
40
00
E0
40
40
40
40
40
E0
ENDCHAR
STARTCHAR Icircumflex
ENCODING 206
SWIDTH 500 0
DWIDTH 6 0
BBX 3 10 2 0
BITMAP
40
A0
00
E0
40
40
40
40
40
E0
ENDCHAR
STARTCHAR Idieresis
ENCODING 207
SWIDTH 500 0
DWIDTH 6 0
BBX 3 10 2 0
BITMAP
A0
00
E0
40
40
40
40
40
40
E0
ENDCHAR
STARTCHAR Eth
ENCODING 208
SWIDTH 500 0
DWIDTH 6 0
BBX 5 7 1 0
BITMAP
70
48
48
E8
48
48
70
ENDCHAR
STARTCHAR Ntilde
ENCODING 209
SWIDTH 500 0
DWIDTH 6 0
BBX 5 10 1 0
BITMAP
68
B0
00
88
C8
C8
A8
98
98
88
ENDCHAR
STARTCHAR Ograve
ENCODING 210
SWIDTH 500 0
DWIDTH 6 0
BBX 5 10 1 0
BITMAP
40
20
00
70
88
88
88
88
88
70
ENDCHAR
STARTCHAR Oacute
ENCODING 211
SWIDTH 500 0
DWIDTH 6 0
BBX 5 10 1 0
BITMAP
10
20
00
70
88
88
88
88
88
70
ENDCHAR
STARTCHAR Ocircumflex
ENCODING 212
SWIDTH 500 0
DWIDTH 6 0
BBX 5 10 1 0
BITMAP
20
50
00
70
88
88
88
88
88
70
ENDCHAR
STARTCHAR Otilde
ENCODING 213
SWIDTH 500 0
DWIDTH 6 0
BBX 5 10 1 0
BITMAP
68
B0
00
70
88
88
88
88
88
70
ENDCHAR
STARTCHAR Odieresis
ENCODING 214
SWIDTH 500 0
DWIDTH 6 0
BBX 5 10 1 0
BITMAP
50
00
70
88
88
88
88
88
88
70
ENDCHAR
STARTCHAR multiply
ENCODING 215
SWIDTH 500 0
DWIDTH 6 0
BBX 5 5 1 1
BITMAP
88
50
20
50
88
ENDCHAR
STARTCHAR Oslash
ENCODING 216
SWIDTH 500 0
DWIDTH 6 0
BBX 5 10 1 -1
BITMAP
08
70
98
98
A8
A8
C8
C8
70
80
ENDCHAR
STARTCHAR Ugrave
ENCODING 217
SWIDTH 500 0
DWIDTH 6 0
BBX 5 10 1 0
BITMAP
40
20
00
88
88
88
88
88
88
70
ENDCHAR
STARTCHAR Uacute
ENCODING 218
SWIDTH 500 0
DWIDTH 6 0
BBX 5 10 1 0
BITMAP
10
20
00
88
88
88
88
88
88
70
ENDCHAR
STARTCHAR Ucircumflex
ENCODING 219
SWIDTH 500 0
DWIDTH 6 0
BBX 5 10 1 0
BITMAP
20
50
00
88
88
88
88
88
88
70
ENDCHAR
STARTCHAR Udieresis
ENCODING 220
SWIDTH 500 0
DWIDTH 6 0
BBX 5 10 1 0
BITMAP
50
00
88
88
88
88
88
88
88
70
ENDCHAR
STARTCHAR Yacute
ENCODING 221
SWIDTH 500 0
DWIDTH 6 0
BBX 5 10 1 0
BITMAP
10
20
00
88
88
88
50
20
20
20
ENDCHAR
STARTCHAR Thorn
ENCODING 222
SWIDTH 500 0
DWIDTH 6 0
BBX 5 8 1 0
BITMAP
80
80
F0
88
88
F0
80
80
ENDCHAR
STARTCHAR germandbls
ENCODING 223
SWIDTH 500 0
DWIDTH 6 0
BBX 5 8 1 0
BITMAP
60
90
90
A0
90
88
88
B0
ENDCHAR
STARTCHAR agrave
ENCODING 224
SWIDTH 500 0
DWIDTH 6 0
BBX 5 9 1 0
BITMAP
40
20
00
78
88
88
88
98
68
ENDCHAR
STARTCHAR aacute
ENCODING 225
SWIDTH 500 0
DWIDTH 6 0
BBX 5 9 1 0
BITMAP
10
20
00
78
88
88
88
98
68
ENDCHAR
STARTCHAR acircumflex
ENCODING 226
SWIDTH 500 0
DWIDTH 6 0
BBX 5 9 1 0
BITMAP
20
50
00
78
88
88
88
98
68
ENDCHAR
STARTCHAR atilde
ENCODING 227
SWIDTH 500 0
DWIDTH 6 0
BBX 5 9 1 0
BITMAP
68
B0
00
78
88
88
88
98
68
ENDCHAR
STARTCHAR adieresis
ENCODING 228
SWIDTH 500 0
DWIDTH 6 0
BBX 5 8 1 0
BITMAP
50
00
78
88
88
88
98
68
ENDCHAR
STARTCHAR aring
ENCODING 229
SWIDTH 500 0
DWIDTH 6 0
BBX 5 10 1 0
BITMAP
20
50
20
00
78
88
88
88
98
68
ENDCHAR
STARTCHAR ae
ENCODING 230
SWIDTH 500 0
DWIDTH 6 0
BBX 5 6 1 0
BITMAP
70
A8
B8
A0
A8
50
ENDCHAR
STARTCHAR ccedilla
ENCODING 231
SWIDTH 500 0
DWIDTH 6 0
BBX 5 9 1 -3
BITMAP
70
88
80
80
88
70
20
10
60
ENDCHAR
STARTCHAR egrave
ENCODING 232
SWIDTH 500 0
DWIDTH 6 0
BBX 5 9 1 0
BITMAP
40
20
00
70
88
F8
80
88
70
ENDCHAR
STARTCHAR eacute
ENCODING 233
SWIDTH 500 0
DWIDTH 6 0
BBX 5 9 1 0
BITMAP
10
20
00
70
88
F8
80
88
70
ENDCHAR
STARTCHAR ecircumflex
ENCODING 234
SWIDTH 500 0
DWIDTH 6 0
BBX 5 9 1 0
BITMAP
20
50
00
70
88
F8
80
88
70
ENDCHAR
STARTCHAR edieresis
ENCODING 235
SWIDTH 500 0
DWIDTH 6 0
BBX 5 8 1 0
BITMAP
50
00
70
88
F8
80
88
70
ENDCHAR
STARTCHAR igrave
ENCODING 236
SWIDTH 500 0
DWIDTH 6 0
BBX 4 9 2 0
BITMAP
80
40
00
C0
40
40
40
40
30
ENDCHAR
STARTCHAR iacute
ENCODING 237
SWIDTH 500 0
DWIDTH 6 0
BBX 4 9 2 0
BITMAP
20
40
00
C0
40
40
40
40
30
ENDCHAR
STARTCHAR icircumflex
ENCODING 238
SWIDTH 500 0
DWIDTH 6 0
BBX 4 9 2 0
BITMAP
40
A0
00
C0
40
40
40
40
30
ENDCHAR
STARTCHAR idieresis
ENCODING 239
SWIDTH 500 0
DWIDTH 6 0
BBX 4 8 2 0
BITMAP
A0
00
C0
40
40
40
40
30
ENDCHAR
STARTCHAR eth
ENCODING 240
SWIDTH 500 0
DWIDTH 6 0
BBX 5 9 1 0
BITMAP
68
10
28
08
78
88
88
88
70
ENDCHAR
STARTCHAR ntilde
ENCODING 241
SWIDTH 500 0
DWIDTH 6 0
BBX 5 9 1 0
BITMAP
68
B0
00
F0
88
88
88
88
88
ENDCHAR
STARTCHAR ograve
ENCODING 242
SWIDTH 500 0
DWIDTH 6 0
BBX 5 9 1 0
BITMAP
40
20
00
70
88
88
88
88
70
ENDCHAR
STARTCHAR oacute
ENCODING 243
SWIDTH 500 0
DWIDTH 6 0
BBX 5 9 1 0
BITMAP
10
20
00
70
88
88
88
88
70
ENDCHAR
STARTCHAR ocircumflex
ENCODING 244
SWIDTH 500 0
DWIDTH 6 0
BBX 5 9 1 0
BITMAP
20
50
00
70
88
88
88
88
70
ENDCHAR
STARTCHAR otilde
ENCODING 245
SWIDTH 500 0
DWIDTH 6 0
BBX 5 9 1 0
BITMAP
68
B0
00
70
88
88
88
88
70
ENDCHAR
STARTCHAR odieresis
ENCODING 246
SWIDTH 500 0
DWIDTH 6 0
BBX 5 8 1 0
BITMAP
50
00
70
88
88
88
88
70
ENDCHAR
STARTCHAR divide
ENCODING 247
SWIDTH 500 0
DWIDTH 6 0
BBX 5 5 1 1
BITMAP
20
00
F8
00
20
ENDCHAR
STARTCHAR oslash
ENCODING 248
SWIDTH 500 0
DWIDTH 6 0
BBX 5 8 1 -1
BITMAP
08
70
98
A8
A8
C8
70
80
ENDCHAR
STARTCHAR ugrave
ENCODING 249
SWIDTH 500 0
DWIDTH 6 0
BBX 5 9 1 0
BITMAP
40
20
00
88
88
88
88
88
78
ENDCHAR
STARTCHAR uacute
ENCODING 250
SWIDTH 500 0
DWIDTH 6 0
BBX 5 9 1 0
BITMAP
10
20
00
88
88
88
88
88
78
ENDCHAR
STARTCHAR ucircumflex
ENCODING 251
SWIDTH 500 0
DWIDTH 6 0
BBX 5 9 1 0
BITMAP
20
50
00
88
88
88
88
88
78
ENDCHAR
STARTCHAR udieresis
ENCODING 252
SWIDTH 500 0
DWIDTH 6 0
BBX 5 8 1 0
BITMAP
50
00
88
88
88
88
88
78
ENDCHAR
STARTCHAR yacute
ENCODING 253
SWIDTH 500 0
DWIDTH 6 0
BBX 5 12 1 -3
BITMAP
10
20
00
88
88
88
88
88
78
08
08
70
ENDCHAR
STARTCHAR thorn
ENCODING 254
SWIDTH 500 0
DWIDTH 6 0
BBX 5 10 1 -2
BITMAP
80
80
F0
88
88
88
88
F0
80
80
ENDCHAR
STARTCHAR ydieresis
ENCODING 255
SWIDTH 500 0
DWIDTH 6 0
BBX 5 11 1 -3
BITMAP
50
00
88
88
88
88
88
78
08
08
70
ENDCHAR
STARTCHAR Amacron
ENCODING 256
SWIDTH 500 0
DWIDTH 6 0
BBX 5 9 1 0
BITMAP
70
00
70
88
88
F8
88
88
88
ENDCHAR
STARTCHAR amacron
ENCODING 257
SWIDTH 500 0
DWIDTH 6 0
BBX 5 8 1 0
BITMAP
70
00
78
88
88
88
98
68
ENDCHAR
STARTCHAR Abreve
ENCODING 258
SWIDTH 500 0
DWIDTH 6 0
BBX 5 10 1 0
BITMAP
50
70
00
70
88
88
F8
88
88
88
ENDCHAR
STARTCHAR abreve
ENCODING 259
SWIDTH 500 0
DWIDTH 6 0
BBX 5 9 1 0
BITMAP
50
70
00
78
88
88
88
98
68
ENDCHAR
STARTCHAR Aogonek
ENCODING 260
SWIDTH 500 0
DWIDTH 6 0
BBX 5 10 1 -2
BITMAP
70
88
88
88
F8
88
88
88
10
18
ENDCHAR
STARTCHAR aogonek
ENCODING 261
SWIDTH 500 0
DWIDTH 6 0
BBX 5 8 1 -2
BITMAP
70
88
88
88
98
68
10
18
ENDCHAR
STARTCHAR Cacute
ENCODING 262
SWIDTH 500 0
DWIDTH 6 0
BBX 5 10 1 0
BITMAP
10
20
00
70
88
80
80
80
88
70
ENDCHAR
STARTCHAR cacute
ENCODING 263
SWIDTH 500 0
DWIDTH 6 0
BBX 5 9 1 0
BITMAP
10
20
00
70
88
80
80
88
70
ENDCHAR
STARTCHAR Ccircumflex
ENCODING 264
SWIDTH 500 0
DWIDTH 6 0
BBX 5 10 1 0
BITMAP
20
50
00
70
88
80
80
80
88
70
ENDCHAR
STARTCHAR ccircumflex
ENCODING 265
SWIDTH 500 0
DWIDTH 6 0
BBX 5 9 1 0
BITMAP
20
50
00
70
88
80
80
88
70
ENDCHAR
STARTCHAR Cdotaccent
ENCODING 266
SWIDTH 500 0
DWIDTH 6 0
BBX 5 10 1 0
BITMAP
20
00
70
88
80
80
80
80
88
70
ENDCHAR
STARTCHAR cdotaccent
ENCODING 267
SWIDTH 500 0
DWIDTH 6 0
BBX 5 8 1 0
BITMAP
20
00
70
88
80
80
88
70
ENDCHAR
STARTCHAR Ccaron
ENCODING 268
SWIDTH 500 0
DWIDTH 6 0
BBX 5 10 1 0
BITMAP
50
20
00
70
88
80
80
80
88
70
ENDCHAR
STARTCHAR ccaron
ENCODING 269
SWIDTH 500 0
DWIDTH 6 0
BBX 5 9 1 0
BITMAP
50
20
00
70
88
80
80
88
70
ENDCHAR
STARTCHAR Dcaron
ENCODING 270
SWIDTH 500 0
DWIDTH 6 0
BBX 5 10 1 0
BITMAP
50
20
00
E0
90
88
88
88
90
E0
ENDCHAR
STARTCHAR dcaron
ENCODING 271
SWIDTH 500 0
DWIDTH 6 0
BBX 6 9 1 0
BITMAP
14
18
10
70
90
90
90
90
70
ENDCHAR
STARTCHAR Dcroat
ENCODING 272
SWIDTH 500 0
DWIDTH 6 0
BBX 5 8 1 0
BITMAP
60
50
48
48
E8
48
50
60
ENDCHAR
STARTCHAR dcroat
ENCODING 273
SWIDTH 500 0
DWIDTH 6 0
BBX 5 9 1 0
BITMAP
10
78
10
70
90
90
90
90
70
ENDCHAR
STARTCHAR Emacron
ENCODING 274
SWIDTH 500 0
DWIDTH 6 0
BBX 5 10 1 0
BITMAP
70
00
F8
80
80
F0
80
80
80
F8
ENDCHAR
STARTCHAR emacron
ENCODING 275
SWIDTH 500 0
DWIDTH 6 0
BBX 5 8 1 0
BITMAP
70
00
70
88
F8
80
88
70
ENDCHAR
STARTCHAR Ebreve
ENCODING 276
SWIDTH 500 0
DWIDTH 6 0
BBX 5 10 1 0
BITMAP
50
70
00
F8
80
80
F0
80
80
F8
ENDCHAR
STARTCHAR ebreve
ENCODING 277
SWIDTH 500 0
DWIDTH 6 0
BBX 5 9 1 0
BITMAP
50
70
00
70
88
F8
80
88
70
ENDCHAR
STARTCHAR Edotaccent
ENCODING 278
SWIDTH 500 0
DWIDTH 6 0
BBX 5 10 1 0
BITMAP
20
00
F8
80
80
F0
80
80
80
F8
ENDCHAR
STARTCHAR edotaccent
ENCODING 279
SWIDTH 500 0
DWIDTH 6 0
BBX 5 8 1 0
BITMAP
20
00
70
88
F8
80
88
70
ENDCHAR
STARTCHAR Eogonek
ENCODING 280
SWIDTH 500 0
DWIDTH 6 0
BBX 5 10 1 -2
BITMAP
F8
80
80
F0
80
80
80
F8
10
18
ENDCHAR
STARTCHAR eogonek
ENCODING 281
SWIDTH 500 0
DWIDTH 6 0
BBX 5 8 1 -2
BITMAP
70
88
F8
80
88
70
10
18
ENDCHAR
STARTCHAR Ecaron
ENCODING 282
SWIDTH 500 0
DWIDTH 6 0
BBX 5 10 1 0
BITMAP
50
20
00
F8
80
80
F0
80
80
F8
ENDCHAR
STARTCHAR ecaron
ENCODING 283
SWIDTH 500 0
DWIDTH 6 0
BBX 5 9 1 0
BITMAP
50
20
00
70
88
F8
80
88
70
ENDCHAR
STARTCHAR Gcircumflex
ENCODING 284
SWIDTH 500 0
DWIDTH 6 0
BBX 5 10 1 0
BITMAP
20
50
00
70
88
80
98
88
88
70
ENDCHAR
STARTCHAR gcircumflex
ENCODING 285
SWIDTH 500 0
DWIDTH 6 0
BBX 5 12 1 -3
BITMAP
20
50
00
78
88
88
88
88
78
08
08
70
ENDCHAR
STARTCHAR Gbreve
ENCODING 286
SWIDTH 500 0
DWIDTH 6 0
BBX 5 10 1 0
BITMAP
50
70
00
70
88
80
98
88
88
70
ENDCHAR
STARTCHAR gbreve
ENCODING 287
SWIDTH 500 0
DWIDTH 6 0
BBX 5 12 1 -3
BITMAP
50
70
00
78
88
88
88
88
78
08
08
70
ENDCHAR
STARTCHAR Gdotaccent
ENCODING 288
SWIDTH 500 0
DWIDTH 6 0
BBX 5 10 1 0
BITMAP
20
00
70
88
80
80
98
88
88
70
ENDCHAR
STARTCHAR gdotaccent
ENCODING 289
SWIDTH 500 0
DWIDTH 6 0
BBX 5 11 1 -3
BITMAP
20
00
78
88
88
88
88
78
08
08
70
ENDCHAR
STARTCHAR Gcommaaccent
ENCODING 290
SWIDTH 500 0
DWIDTH 6 0
BBX 5 11 1 -3
BITMAP
70
88
80
80
98
88
88
70
00
20
40
ENDCHAR
STARTCHAR gcommaaccent
ENCODING 291
SWIDTH 500 0
DWIDTH 6 0
BBX 5 12 1 -3
BITMAP
10
20
00
78
88
88
88
88
78
08
08
70
ENDCHAR
STARTCHAR Hcircumflex
ENCODING 292
SWIDTH 500 0
DWIDTH 6 0
BBX 5 10 1 0
BITMAP
20
50
00
88
88
88
F8
88
88
88
ENDCHAR
STARTCHAR hcircumflex
ENCODING 293
SWIDTH 500 0
DWIDTH 6 0
BBX 4 10 2 0
BITMAP
40
A0
00
80
80
E0
90
90
90
90
ENDCHAR
STARTCHAR Hbar
ENCODING 294
SWIDTH 500 0
DWIDTH 6 0
BBX 7 8 0 0
BITMAP
44
FE
44
7C
44
44
44
44
ENDCHAR
STARTCHAR hbar
ENCODING 295
SWIDTH 500 0
DWIDTH 6 0
BBX 5 9 1 0
BITMAP
40
E0
40
70
48
48
48
48
48
ENDCHAR
STARTCHAR Itilde
ENCODING 296
SWIDTH 500 0
DWIDTH 6 0
BBX 5 10 1 0
BITMAP
68
B0
00
70
20
20
20
20
20
70
ENDCHAR
STARTCHAR itilde
ENCODING 297
SWIDTH 500 0
DWIDTH 6 0
BBX 5 9 1 0
BITMAP
68
B0
00
60
20
20
20
20
18
ENDCHAR
STARTCHAR Imacron
ENCODING 298
SWIDTH 500 0
DWIDTH 6 0
BBX 3 10 2 0
BITMAP
E0
00
E0
40
40
40
40
40
40
E0
ENDCHAR
STARTCHAR imacron
ENCODING 299
SWIDTH 500 0
DWIDTH 6 0
BBX 4 8 2 0
BITMAP
E0
00
C0
40
40
40
40
30
ENDCHAR
STARTCHAR Ibreve
ENCODING 300
SWIDTH 500 0
DWIDTH 6 0
BBX 3 10 2 0
BITMAP
A0
E0
00
E0
40
40
40
40
40
E0
ENDCHAR
STARTCHAR ibreve
ENCODING 301
SWIDTH 500 0
DWIDTH 6 0
BBX 4 9 2 0
BITMAP
A0
E0
00
C0
40
40
40
40
30
ENDCHAR
STARTCHAR Iogonek
ENCODING 302
SWIDTH 500 0
DWIDTH 6 0
BBX 3 10 2 -2
BITMAP
E0
40
40
40
40
40
40
E0
40
60
ENDCHAR
STARTCHAR iogonek
ENCODING 303
SWIDTH 500 0
DWIDTH 6 0
BBX 4 10 2 -2
BITMAP
40
00
C0
40
40
40
40
30
20
30
ENDCHAR
STARTCHAR Idotaccent
ENCODING 304
SWIDTH 500 0
DWIDTH 6 0
BBX 3 10 2 0
BITMAP
40
00
E0
40
40
40
40
40
40
E0
ENDCHAR
STARTCHAR dotlessi
ENCODING 305
SWIDTH 500 0
DWIDTH 6 0
BBX 4 6 2 0
BITMAP
C0
40
40
40
40
30
ENDCHAR
STARTCHAR IJ
ENCODING 306
SWIDTH 500 0
DWIDTH 6 0
BBX 5 11 1 -2
BITMAP
F8
48
48
48
48
48
48
48
E8
08
10
ENDCHAR
STARTCHAR ij
ENCODING 307
SWIDTH 500 0
DWIDTH 6 0
BBX 5 10 1 -2
BITMAP
48
00
D8
48
48
48
48
28
08
10
ENDCHAR
STARTCHAR Jcircumflex
ENCODING 308
SWIDTH 500 0
DWIDTH 6 0
BBX 5 10 1 0
BITMAP
10
28
00
38
08
08
08
88
88
70
ENDCHAR
STARTCHAR jcircumflex
ENCODING 309
SWIDTH 500 0
DWIDTH 6 0
BBX 5 11 1 -2
BITMAP
10
28
00
30
10
10
10
10
10
10
E0
ENDCHAR
STARTCHAR Kcommaaccent
ENCODING 310
SWIDTH 500 0
DWIDTH 6 0
BBX 5 10 1 -2
BITMAP
88
90
A0
E0
90
90
88
88
20
40
ENDCHAR
STARTCHAR kcommaaccent
ENCODING 311
SWIDTH 500 0
DWIDTH 6 0
BBX 5 11 1 -2
BITMAP
80
80
80
88
90
A0
E0
90
88
20
40
ENDCHAR
STARTCHAR kgreenlandic
ENCODING 312
SWIDTH 500 0
DWIDTH 6 0
BBX 5 6 1 0
BITMAP
88
90
A0
E0
90
88
ENDCHAR
STARTCHAR Lacute
ENCODING 313
SWIDTH 500 0
DWIDTH 6 0
BBX 5 10 1 0
BITMAP
40
80
00
80
80
80
80
80
80
F8
ENDCHAR
STARTCHAR lacute
ENCODING 314
SWIDTH 500 0
DWIDTH 6 0
BBX 3 10 2 0
BITMAP
20
40
00
C0
40
40
40
40
40
60
ENDCHAR
STARTCHAR Lcommaaccent
ENCODING 315
SWIDTH 500 0
DWIDTH 6 0
BBX 5 11 1 -3
BITMAP
80
80
80
80
80
80
80
F8
00
20
40
ENDCHAR
STARTCHAR lcommaaccent
ENCODING 316
SWIDTH 500 0
DWIDTH 6 0
BBX 3 12 2 -3
BITMAP
C0
40
40
40
40
40
40
40
60
00
40
80
ENDCHAR
STARTCHAR Lcaron
ENCODING 317
SWIDTH 500 0
DWIDTH 6 0
BBX 5 9 1 0
BITMAP
20
A0
80
80
80
80
80
80
F8
ENDCHAR
STARTCHAR lcaron
ENCODING 318
SWIDTH 500 0
DWIDTH 6 0
BBX 4 10 2 0
BITMAP
10
D0
40
40
40
40
40
40
40
60
ENDCHAR
STARTCHAR Ldot
ENCODING 319
SWIDTH 500 0
DWIDTH 6 0
BBX 5 8 1 0
BITMAP
80
80
80
A0
80
80
80
F8
ENDCHAR
STARTCHAR ldot
ENCODING 320
SWIDTH 500 0
DWIDTH 6 0
BBX 4 9 2 0
BITMAP
C0
40
40
40
50
40
40
40
60
ENDCHAR
STARTCHAR Lslash
ENCODING 321
SWIDTH 500 0
DWIDTH 6 0
BBX 5 8 1 0
BITMAP
40
40
50
60
40
C0
40
78
ENDCHAR
STARTCHAR lslash
ENCODING 322
SWIDTH 500 0
DWIDTH 6 0
BBX 3 9 2 0
BITMAP
C0
40
40
60
C0
40
40
40
60
ENDCHAR
STARTCHAR Nacute
ENCODING 323
SWIDTH 500 0
DWIDTH 6 0
BBX 5 10 1 0
BITMAP
10
20
00
88
C8
C8
A8
98
98
88
ENDCHAR
STARTCHAR nacute
ENCODING 324
SWIDTH 500 0
DWIDTH 6 0
BBX 5 9 1 0
BITMAP
10
20
00
F0
88
88
88
88
88
ENDCHAR
STARTCHAR Ncommaaccent
ENCODING 325
SWIDTH 500 0
DWIDTH 6 0
BBX 5 11 1 -3
BITMAP
88
C8
C8
A8
A8
98
98
88
00
20
40
ENDCHAR
STARTCHAR ncommaaccent
ENCODING 326
SWIDTH 500 0
DWIDTH 6 0
BBX 5 8 1 -2
BITMAP
F0
88
88
88
88
88
20
40
ENDCHAR
STARTCHAR Ncaron
ENCODING 327
SWIDTH 500 0
DWIDTH 6 0
BBX 5 10 1 0
BITMAP
50
20
88
C8
C8
A8
A8
98
98
88
ENDCHAR
STARTCHAR ncaron
ENCODING 328
SWIDTH 500 0
DWIDTH 6 0
BBX 5 9 1 0
BITMAP
50
20
00
F0
88
88
88
88
88
ENDCHAR
STARTCHAR napostrophe
ENCODING 329
SWIDTH 500 0
DWIDTH 6 0
BBX 6 10 0 0
BITMAP
C0
40
80
00
78
44
44
44
44
44
ENDCHAR
STARTCHAR Eng
ENCODING 330
SWIDTH 500 0
DWIDTH 6 0
BBX 5 10 1 -2
BITMAP
B0
C8
88
88
88
88
88
88
08
10
ENDCHAR
STARTCHAR eng
ENCODING 331
SWIDTH 500 0
DWIDTH 6 0
BBX 5 8 1 -2
BITMAP
B0
C8
88
88
88
88
08
10
ENDCHAR
STARTCHAR Omacron
ENCODING 332
SWIDTH 500 0
DWIDTH 6 0
BBX 5 10 1 0
BITMAP
70
00
70
88
88
88
88
88
88
70
ENDCHAR
STARTCHAR omacron
ENCODING 333
SWIDTH 500 0
DWIDTH 6 0
BBX 5 8 1 0
BITMAP
70
00
70
88
88
88
88
70
ENDCHAR
STARTCHAR Obreve
ENCODING 334
SWIDTH 500 0
DWIDTH 6 0
BBX 5 10 1 0
BITMAP
50
70
00
70
88
88
88
88
88
70
ENDCHAR
STARTCHAR obreve
ENCODING 335
SWIDTH 500 0
DWIDTH 6 0
BBX 5 9 1 0
BITMAP
50
70
00
70
88
88
88
88
70
ENDCHAR
STARTCHAR Ohungarumlaut
ENCODING 336
SWIDTH 500 0
DWIDTH 6 0
BBX 5 10 1 0
BITMAP
48
90
00
70
88
88
88
88
88
70
ENDCHAR
STARTCHAR ohungarumlaut
ENCODING 337
SWIDTH 500 0
DWIDTH 6 0
BBX 5 9 1 0
BITMAP
48
90
00
70
88
88
88
88
70
ENDCHAR
STARTCHAR OE
ENCODING 338
SWIDTH 500 0
DWIDTH 6 0
BBX 5 8 1 0
BITMAP
78
A0
A0
B0
A0
A0
A0
78
ENDCHAR
STARTCHAR oe
ENCODING 339
SWIDTH 500 0
DWIDTH 6 0
BBX 5 6 1 0
BITMAP
50
A8
B8
A0
A8
50
ENDCHAR
STARTCHAR Racute
ENCODING 340
SWIDTH 500 0
DWIDTH 6 0
BBX 5 10 1 0
BITMAP
10
20
00
F0
88
88
F0
90
88
88
ENDCHAR
STARTCHAR racute
ENCODING 341
SWIDTH 500 0
DWIDTH 6 0
BBX 5 9 1 0
BITMAP
10
20
00
F0
88
80
80
80
80
ENDCHAR
STARTCHAR Rcommaaccent
ENCODING 342
SWIDTH 500 0
DWIDTH 6 0
BBX 5 10 1 -2
BITMAP
F0
88
88
F0
90
88
88
88
20
40
ENDCHAR
STARTCHAR rcommaaccent
ENCODING 343
SWIDTH 500 0
DWIDTH 6 0
BBX 6 9 0 -3
BITMAP
78
44
40
40
40
40
00
40
80
ENDCHAR
STARTCHAR Rcaron
ENCODING 344
SWIDTH 500 0
DWIDTH 6 0
BBX 5 10 1 0
BITMAP
50
20
00
F0
88
88
F0
90
88
88
ENDCHAR
STARTCHAR rcaron
ENCODING 345
SWIDTH 500 0
DWIDTH 6 0
BBX 5 9 1 0
BITMAP
50
20
00
F0
88
80
80
80
80
ENDCHAR
STARTCHAR Sacute
ENCODING 346
SWIDTH 500 0
DWIDTH 6 0
BBX 5 10 1 0
BITMAP
10
20
00
70
88
80
70
08
88
70
ENDCHAR
STARTCHAR sacute
ENCODING 347
SWIDTH 500 0
DWIDTH 6 0
BBX 5 9 1 0
BITMAP
10
20
00
78
80
70
08
08
F0
ENDCHAR
STARTCHAR Scircumflex
ENCODING 348
SWIDTH 500 0
DWIDTH 6 0
BBX 5 10 1 0
BITMAP
20
50
00
70
88
80
70
08
88
70
ENDCHAR
STARTCHAR scircumflex
ENCODING 349
SWIDTH 500 0
DWIDTH 6 0
BBX 5 9 1 0
BITMAP
20
50
00
78
80
70
08
08
F0
ENDCHAR
STARTCHAR Scedilla
ENCODING 350
SWIDTH 500 0
DWIDTH 6 0
BBX 5 11 1 -3
BITMAP
70
88
80
70
08
08
88
70
20
10
60
ENDCHAR
STARTCHAR scedilla
ENCODING 351
SWIDTH 500 0
DWIDTH 6 0
BBX 5 9 1 -3
BITMAP
78
80
70
08
08
F0
20
10
60
ENDCHAR
STARTCHAR Scaron
ENCODING 352
SWIDTH 500 0
DWIDTH 6 0
BBX 5 10 1 0
BITMAP
50
20
00
70
88
80
70
08
88
70
ENDCHAR
STARTCHAR scaron
ENCODING 353
SWIDTH 500 0
DWIDTH 6 0
BBX 5 9 1 0
BITMAP
50
20
00
78
80
70
08
08
F0
ENDCHAR
STARTCHAR Tcommaaccent
ENCODING 354
SWIDTH 500 0
DWIDTH 6 0
BBX 5 10 1 -2
BITMAP
F8
20
20
20
20
20
20
20
10
60
ENDCHAR
STARTCHAR tcommaaccent
ENCODING 355
SWIDTH 500 0
DWIDTH 6 0
BBX 5 11 1 -3
BITMAP
40
40
F0
40
40
40
40
38
20
10
60
ENDCHAR
STARTCHAR Tcaron
ENCODING 356
SWIDTH 500 0
DWIDTH 6 0
BBX 5 10 1 0
BITMAP
50
20
00
F8
20
20
20
20
20
20
ENDCHAR
STARTCHAR tcaron
ENCODING 357
SWIDTH 500 0
DWIDTH 6 0
BBX 5 9 1 0
BITMAP
10
50
40
F0
40
40
40
40
38
ENDCHAR
STARTCHAR Tbar
ENCODING 358
SWIDTH 500 0
DWIDTH 6 0
BBX 5 8 1 0
BITMAP
F8
20
20
70
20
20
20
20
ENDCHAR
STARTCHAR tbar
ENCODING 359
SWIDTH 500 0
DWIDTH 6 0
BBX 5 8 1 0
BITMAP
40
40
F0
40
F0
40
40
38
ENDCHAR
STARTCHAR Utilde
ENCODING 360
SWIDTH 500 0
DWIDTH 6 0
BBX 5 10 1 0
BITMAP
68
B0
00
88
88
88
88
88
88
70
ENDCHAR
STARTCHAR utilde
ENCODING 361
SWIDTH 500 0
DWIDTH 6 0
BBX 5 9 1 0
BITMAP
68
B0
00
88
88
88
88
88
78
ENDCHAR
STARTCHAR Umacron
ENCODING 362
SWIDTH 500 0
DWIDTH 6 0
BBX 5 10 1 0
BITMAP
70
00
88
88
88
88
88
88
88
70
ENDCHAR
STARTCHAR umacron
ENCODING 363
SWIDTH 500 0
DWIDTH 6 0
BBX 5 8 1 0
BITMAP
70
00
88
88
88
88
88
78
ENDCHAR
STARTCHAR Ubreve
ENCODING 364
SWIDTH 500 0
DWIDTH 6 0
BBX 5 10 1 0
BITMAP
50
70
00
88
88
88
88
88
88
70
ENDCHAR
STARTCHAR ubreve
ENCODING 365
SWIDTH 500 0
DWIDTH 6 0
BBX 5 9 1 0
BITMAP
50
70
00
88
88
88
88
88
78
ENDCHAR
STARTCHAR Uring
ENCODING 366
SWIDTH 500 0
DWIDTH 6 0
BBX 5 10 1 0
BITMAP
20
50
20
88
88
88
88
88
88
70
ENDCHAR
STARTCHAR uring
ENCODING 367
SWIDTH 500 0
DWIDTH 6 0
BBX 5 10 1 0
BITMAP
20
50
20
00
88
88
88
88
88
78
ENDCHAR
STARTCHAR Uhungarumlaut
ENCODING 368
SWIDTH 500 0
DWIDTH 6 0
BBX 5 10 1 0
BITMAP
48
90
00
88
88
88
88
88
88
70
ENDCHAR
STARTCHAR uhungarumlaut
ENCODING 369
SWIDTH 500 0
DWIDTH 6 0
BBX 5 9 1 0
BITMAP
48
90
00
88
88
88
88
88
78
ENDCHAR
STARTCHAR Uogonek
ENCODING 370
SWIDTH 500 0
DWIDTH 6 0
BBX 5 10 1 -2
BITMAP
88
88
88
88
88
88
88
70
20
30
ENDCHAR
STARTCHAR uogonek
ENCODING 371
SWIDTH 500 0
DWIDTH 6 0
BBX 5 8 1 -2
BITMAP
88
88
88
88
88
78
10
18
ENDCHAR
STARTCHAR Wcircumflex
ENCODING 372
SWIDTH 500 0
DWIDTH 6 0
BBX 5 10 1 0
BITMAP
20
50
00
88
88
A8
A8
70
50
50
ENDCHAR
STARTCHAR wcircumflex
ENCODING 373
SWIDTH 500 0
DWIDTH 6 0
BBX 5 9 1 0
BITMAP
20
50
00
88
88
A8
A8
50
50
ENDCHAR
STARTCHAR Ycircumflex
ENCODING 374
SWIDTH 500 0
DWIDTH 6 0
BBX 5 10 1 0
BITMAP
20
50
00
88
88
88
50
20
20
20
ENDCHAR
STARTCHAR ycircumflex
ENCODING 375
SWIDTH 500 0
DWIDTH 6 0
BBX 5 12 1 -3
BITMAP
20
50
00
88
88
88
88
88
78
08
08
70
ENDCHAR
STARTCHAR Ydieresis
ENCODING 376
SWIDTH 500 0
DWIDTH 6 0
BBX 5 9 1 0
BITMAP
50
00
88
88
88
50
20
20
20
ENDCHAR
STARTCHAR Zacute
ENCODING 377
SWIDTH 500 0
DWIDTH 6 0
BBX 5 10 1 0
BITMAP
10
20
00
F8
08
10
20
40
80
F8
ENDCHAR
STARTCHAR zacute
ENCODING 378
SWIDTH 500 0
DWIDTH 6 0
BBX 5 9 1 0
BITMAP
10
20
00
F8
10
20
40
80
F8
ENDCHAR
STARTCHAR Zdotaccent
ENCODING 379
SWIDTH 500 0
DWIDTH 6 0
BBX 5 10 1 0
BITMAP
20
00
F8
10
20
20
40
40
80
F8
ENDCHAR
STARTCHAR zdotaccent
ENCODING 380
SWIDTH 500 0
DWIDTH 6 0
BBX 5 8 1 0
BITMAP
20
00
F8
10
20
40
80
F8
ENDCHAR
STARTCHAR Zcaron
ENCODING 381
SWIDTH 500 0
DWIDTH 6 0
BBX 5 10 1 0
BITMAP
50
20
00
F8
08
10
20
40
80
F8
ENDCHAR
STARTCHAR zcaron
ENCODING 382
SWIDTH 500 0
DWIDTH 6 0
BBX 5 9 1 0
BITMAP
50
20
00
F8
10
20
40
80
F8
ENDCHAR
STARTCHAR longs
ENCODING 383
SWIDTH 500 0
DWIDTH 6 0
BBX 4 8 2 0
BITMAP
30
40
C0
40
40
40
40
40
ENDCHAR
STARTCHAR uni0180
ENCODING 384
SWIDTH 500 0
DWIDTH 6 0
BBX 5 9 1 0
BITMAP
80
F0
80
F0
88
88
88
88
F0
ENDCHAR
STARTCHAR uni0181
ENCODING 385
SWIDTH 500 0
DWIDTH 6 0
BBX 5 8 1 0
BITMAP
F0
48
48
70
48
48
48
70
ENDCHAR
STARTCHAR uni0182
ENCODING 386
SWIDTH 500 0
DWIDTH 6 0
BBX 5 8 1 0
BITMAP
F8
88
80
F0
88
88
88
F0
ENDCHAR
STARTCHAR uni0183
ENCODING 387
SWIDTH 500 0
DWIDTH 6 0
BBX 5 9 1 0
BITMAP
F0
90
80
F0
88
88
88
88
F0
ENDCHAR
STARTCHAR uni0184
ENCODING 388
SWIDTH 500 0
DWIDTH 6 0
BBX 5 8 1 0
BITMAP
40
C0
40
70
48
48
48
70
ENDCHAR
STARTCHAR uni0185
ENCODING 389
SWIDTH 500 0
DWIDTH 6 0
BBX 5 9 1 0
BITMAP
40
C0
40
70
48
48
48
48
70
ENDCHAR
STARTCHAR uni0186
ENCODING 390
SWIDTH 500 0
DWIDTH 6 0
BBX 5 8 1 0
BITMAP
70
88
08
08
08
08
88
70
ENDCHAR
STARTCHAR uni0187
ENCODING 391
SWIDTH 500 0
DWIDTH 6 0
BBX 5 10 1 0
BITMAP
08
08
70
80
80
80
80
80
88
70
ENDCHAR
STARTCHAR uni0188
ENCODING 392
SWIDTH 500 0
DWIDTH 6 0
BBX 5 8 1 0
BITMAP
08
08
70
80
80
80
88
70
ENDCHAR
STARTCHAR uni0189
ENCODING 393
SWIDTH 500 0
DWIDTH 6 0
BBX 5 8 1 0
BITMAP
60
50
48
E8
48
48
50
60
ENDCHAR
STARTCHAR uni018A
ENCODING 394
SWIDTH 500 0
DWIDTH 6 0
BBX 5 8 1 0
BITMAP
E0
50
48
48
48
48
50
60
ENDCHAR
STARTCHAR uni018B
ENCODING 395
SWIDTH 500 0
DWIDTH 6 0
BBX 5 9 1 0
BITMAP
F8
88
08
78
88
88
88
88
78
ENDCHAR
STARTCHAR uni018C
ENCODING 396
SWIDTH 500 0
DWIDTH 6 0
BBX 5 9 1 0
BITMAP
78
48
08
78
88
88
88
88
78
ENDCHAR
STARTCHAR uni018D
ENCODING 397
SWIDTH 500 0
DWIDTH 6 0
BBX 5 9 1 -3
BITMAP
70
88
88
88
88
70
20
10
60
ENDCHAR
STARTCHAR uni018E
ENCODING 398
SWIDTH 500 0
DWIDTH 6 0
BBX 5 8 1 0
BITMAP
F8
08
08
08
78
08
08
F8
ENDCHAR
STARTCHAR uni018F
ENCODING 399
SWIDTH 500 0
DWIDTH 6 0
BBX 5 8 1 0
BITMAP
70
88
08
08
F8
88
88
70
ENDCHAR
STARTCHAR uni0190
ENCODING 400
SWIDTH 500 0
DWIDTH 6 0
BBX 5 8 1 0
BITMAP
70
88
80
70
80
80
88
70
ENDCHAR
STARTCHAR uni0191
ENCODING 401
SWIDTH 500 0
DWIDTH 6 0
BBX 7 11 -1 -3
BITMAP
3E
20
20
3C
20
20
20
20
20
20
C0
ENDCHAR
STARTCHAR florin
ENCODING 402
SWIDTH 500 0
DWIDTH 6 0
BBX 5 11 1 -2
BITMAP
18
20
20
78
20
20
20
20
20
20
C0
ENDCHAR
STARTCHAR uni0193
ENCODING 403
SWIDTH 500 0
DWIDTH 6 0
BBX 5 8 1 0
BITMAP
70
88
80
80
98
88
88
70
ENDCHAR
STARTCHAR uni0194
ENCODING 404
SWIDTH 500 0
DWIDTH 6 0
BBX 5 10 1 -2
BITMAP
88
88
88
88
50
50
20
50
50
20
ENDCHAR
STARTCHAR uni0195
ENCODING 405
SWIDTH 500 0
DWIDTH 6 0
BBX 5 8 1 0
BITMAP
80
80
80
C8
A8
A8
A8
90
ENDCHAR
STARTCHAR uni0196
ENCODING 406
SWIDTH 500 0
DWIDTH 6 0
BBX 4 8 2 0
BITMAP
C0
40
40
40
40
40
50
20
ENDCHAR
STARTCHAR uni0197
ENCODING 407
SWIDTH 500 0
DWIDTH 6 0
BBX 3 8 2 0
BITMAP
E0
40
40
E0
40
40
40
E0
ENDCHAR
STARTCHAR uni0198
ENCODING 408
SWIDTH 500 0
DWIDTH 6 0
BBX 5 8 1 0
BITMAP
90
A8
A8
E0
90
90
88
88
ENDCHAR
STARTCHAR uni0199
ENCODING 409
SWIDTH 500 0
DWIDTH 6 0
BBX 5 9 1 0
BITMAP
40
A0
80
88
90
A0
E0
90
88
ENDCHAR
STARTCHAR uni019A
ENCODING 410
SWIDTH 500 0
DWIDTH 6 0
BBX 3 9 2 0
BITMAP
C0
40
40
E0
40
40
40
40
60
ENDCHAR
STARTCHAR uni019B
ENCODING 411
SWIDTH 500 0
DWIDTH 6 0
BBX 5 8 1 0
BITMAP
C0
20
F8
20
50
50
88
88
ENDCHAR
STARTCHAR uni019C
ENCODING 412
SWIDTH 500 0
DWIDTH 6 0
BBX 5 9 1 0
BITMAP
A8
A8
A8
A8
A8
A8
A8
A8
58
ENDCHAR
STARTCHAR uni019D
ENCODING 413
SWIDTH 500 0
DWIDTH 6 0
BBX 7 11 -1 -3
BITMAP
22
32
32
2A
2A
26
26
22
20
20
C0
ENDCHAR
STARTCHAR uni019E
ENCODING 414
SWIDTH 500 0
DWIDTH 6 0
BBX 5 8 1 -2
BITMAP
F0
88
88
88
88
88
08
08
ENDCHAR
STARTCHAR uni019F
ENCODING 415
SWIDTH 500 0
DWIDTH 6 0
BBX 5 8 1 0
BITMAP
70
88
88
88
F8
88
88
70
ENDCHAR
STARTCHAR Ohorn
ENCODING 416
SWIDTH 500 0
DWIDTH 6 0
BBX 6 9 1 0
BITMAP
04
74
88
88
88
88
88
88
70
ENDCHAR
STARTCHAR ohorn
ENCODING 417
SWIDTH 500 0
DWIDTH 6 0
BBX 6 7 1 0
BITMAP
04
74
88
88
88
88
70
ENDCHAR
STARTCHAR uni01A2
ENCODING 418
SWIDTH 500 0
DWIDTH 6 0
BBX 6 8 1 0
BITMAP
78
94
94
94
94
94
94
64
ENDCHAR
STARTCHAR uni01A3
ENCODING 419
SWIDTH 500 0
DWIDTH 6 0
BBX 6 8 1 -2
BITMAP
78
94
94
94
94
64
04
04
ENDCHAR
STARTCHAR uni01A4
ENCODING 420
SWIDTH 500 0
DWIDTH 6 0
BBX 7 8 -1 0
BITMAP
7C
A2
22
22
3C
20
20
20
ENDCHAR
STARTCHAR uni01A5
ENCODING 421
SWIDTH 500 0
DWIDTH 6 0
BBX 5 12 1 -3
BITMAP
60
80
80
F0
88
88
88
88
F0
80
80
80
ENDCHAR
STARTCHAR uni01A6
ENCODING 422
SWIDTH 500 0
DWIDTH 6 0
BBX 5 9 1 -1
BITMAP
80
80
F0
88
88
F0
A0
90
08
ENDCHAR
STARTCHAR uni01A7
ENCODING 423
SWIDTH 500 0
DWIDTH 6 0
BBX 5 8 1 0
BITMAP
70
88
08
70
80
80
88
70
ENDCHAR
STARTCHAR uni01A8
ENCODING 424
SWIDTH 500 0
DWIDTH 6 0
BBX 5 6 1 0
BITMAP
F0
08
70
80
80
78
ENDCHAR
STARTCHAR uni01A9
ENCODING 425
SWIDTH 500 0
DWIDTH 6 0
BBX 5 8 1 0
BITMAP
F8
88
40
20
20
40
88
F8
ENDCHAR
STARTCHAR uni01AA
ENCODING 426
SWIDTH 500 0
DWIDTH 6 0
BBX 5 9 1 0
BITMAP
40
A0
60
20
20
20
20
28
10
ENDCHAR
STARTCHAR uni01AB
ENCODING 427
SWIDTH 500 0
DWIDTH 6 0
BBX 5 10 1 -2
BITMAP
40
40
F0
40
40
40
40
38
08
30
ENDCHAR
STARTCHAR uni01AC
ENCODING 428
SWIDTH 500 0
DWIDTH 6 0
BBX 5 8 1 0
BITMAP
78
A0
20
20
20
20
20
20
ENDCHAR
STARTCHAR uni01AD
ENCODING 429
SWIDTH 500 0
DWIDTH 6 0
BBX 5 8 1 0
BITMAP
20
40
F0
40
40
40
48
30
ENDCHAR
STARTCHAR uni01AE
ENCODING 430
SWIDTH 500 0
DWIDTH 6 0
BBX 5 9 1 -1
BITMAP
F8
20
20
20
20
20
20
20
18
ENDCHAR
STARTCHAR Uhorn
ENCODING 431
SWIDTH 500 0
DWIDTH 6 0
BBX 5 10 1 0
BITMAP
18
08
90
80
88
88
88
88
88
70
ENDCHAR
STARTCHAR uhorn
ENCODING 432
SWIDTH 500 0
DWIDTH 6 0
BBX 5 9 1 0
BITMAP
18
08
10
80
88
88
88
88
78
ENDCHAR
STARTCHAR uni01B1
ENCODING 433
SWIDTH 500 0
DWIDTH 6 0
BBX 5 8 1 0
BITMAP
D8
50
88
88
88
88
88
70
ENDCHAR
STARTCHAR uni01B2
ENCODING 434
SWIDTH 500 0
DWIDTH 6 0
BBX 5 8 1 0
BITMAP
80
90
88
88
88
88
88
70
ENDCHAR
STARTCHAR uni01B3
ENCODING 435
SWIDTH 500 0
DWIDTH 6 0
BBX 7 8 1 0
BITMAP
84
8A
88
50
20
20
20
20
ENDCHAR
STARTCHAR uni01B4
ENCODING 436
SWIDTH 500 0
DWIDTH 6 0
BBX 7 9 1 -3
BITMAP
84
8A
88
88
88
78
08
08
70
ENDCHAR
STARTCHAR uni01B5
ENCODING 437
SWIDTH 500 0
DWIDTH 6 0
BBX 5 8 1 0
BITMAP
F8
10
20
F0
40
40
80
F8
ENDCHAR
STARTCHAR uni01B6
ENCODING 438
SWIDTH 500 0
DWIDTH 6 0
BBX 5 6 1 0
BITMAP
F8
10
F8
40
80
F8
ENDCHAR
STARTCHAR uni01B7
ENCODING 439
SWIDTH 500 0
DWIDTH 6 0
BBX 5 8 1 0
BITMAP
F8
10
20
70
08
08
88
70
ENDCHAR
STARTCHAR uni01B8
ENCODING 440
SWIDTH 500 0
DWIDTH 6 0
BBX 5 8 1 0
BITMAP
F8
40
20
70
80
80
88
70
ENDCHAR
STARTCHAR uni01B9
ENCODING 441
SWIDTH 500 0
DWIDTH 6 0
BBX 5 8 1 -2
BITMAP
F8
40
20
70
80
80
88
70
ENDCHAR
STARTCHAR uni01BA
ENCODING 442
SWIDTH 500 0
DWIDTH 6 0
BBX 5 9 1 -3
BITMAP
F8
10
20
70
08
08
F0
80
60
ENDCHAR
STARTCHAR uni01BB
ENCODING 443
SWIDTH 500 0
DWIDTH 6 0
BBX 5 8 1 0
BITMAP
70
88
08
10
F8
40
80
F8
ENDCHAR
STARTCHAR uni01BC
ENCODING 444
SWIDTH 500 0
DWIDTH 6 0
BBX 5 8 1 0
BITMAP
78
40
40
70
08
08
88
70
ENDCHAR
STARTCHAR uni01BD
ENCODING 445
SWIDTH 500 0
DWIDTH 6 0
BBX 5 8 1 -2
BITMAP
78
40
40
70
08
88
88
70
ENDCHAR
STARTCHAR uni01BE
ENCODING 446
SWIDTH 500 0
DWIDTH 6 0
BBX 5 8 1 0
BITMAP
20
70
20
20
10
08
88
70
ENDCHAR
STARTCHAR uni01BF
ENCODING 447
SWIDTH 500 0
DWIDTH 6 0
BBX 5 7 1 0
BITMAP
B0
C8
88
90
E0
80
80
ENDCHAR
STARTCHAR uni01C0
ENCODING 448
SWIDTH 500 0
DWIDTH 6 0
BBX 1 8 3 0
BITMAP
80
80
80
80
80
80
80
80
ENDCHAR
STARTCHAR uni01C1
ENCODING 449
SWIDTH 500 0
DWIDTH 6 0
BBX 3 8 2 0
BITMAP
A0
A0
A0
A0
A0
A0
A0
A0
ENDCHAR
STARTCHAR uni01C2
ENCODING 450
SWIDTH 500 0
DWIDTH 6 0
BBX 5 8 1 0
BITMAP
20
20
F8
20
F8
20
20
20
ENDCHAR
STARTCHAR uni01C3
ENCODING 451
SWIDTH 500 0
DWIDTH 6 0
BBX 1 7 3 0
BITMAP
80
80
80
80
80
00
80
ENDCHAR
STARTCHAR uni01C4
ENCODING 452
SWIDTH 500 0
DWIDTH 6 0
BBX 5 10 1 0
BITMAP
28
10
00
D8
A8
A8
B0
B0
B0
D8
ENDCHAR
STARTCHAR uni01C5
ENCODING 453
SWIDTH 500 0
DWIDTH 6 0
BBX 5 10 1 0
BITMAP
28
10
C0
A0
B8
A8
A8
B0
B0
D8
ENDCHAR
STARTCHAR uni01C6
ENCODING 454
SWIDTH 500 0
DWIDTH 6 0
BBX 5 10 1 0
BITMAP
28
10
20
20
78
A8
A8
B0
B0
78
ENDCHAR
STARTCHAR uni01C7
ENCODING 455
SWIDTH 500 0
DWIDTH 6 0
BBX 5 8 1 0
BITMAP
B8
88
88
88
88
A8
A8
D0
ENDCHAR
STARTCHAR uni01C8
ENCODING 456
SWIDTH 500 0
DWIDTH 6 0
BBX 5 11 1 -3
BITMAP
88
80
98
88
88
88
88
E8
08
08
10
ENDCHAR
STARTCHAR uni01C9
ENCODING 457
SWIDTH 500 0
DWIDTH 6 0
BBX 5 11 1 -3
BITMAP
C8
40
58
48
48
48
48
68
08
08
10
ENDCHAR
STARTCHAR uni01CA
ENCODING 458
SWIDTH 500 0
DWIDTH 6 0
BBX 5 10 1 -2
BITMAP
C8
A8
A8
A8
A8
A8
A8
A8
08
10
ENDCHAR
STARTCHAR uni01CB
ENCODING 459
SWIDTH 500 0
DWIDTH 6 0
BBX 5 11 1 -3
BITMAP
C8
A0
A8
A8
A8
A8
A8
A8
08
08
10
ENDCHAR
STARTCHAR uni01CC
ENCODING 460
SWIDTH 500 0
DWIDTH 6 0
BBX 5 11 1 -3
BITMAP
08
00
C8
A8
A8
A8
A8
A8
08
08
10
ENDCHAR
STARTCHAR uni01CD
ENCODING 461
SWIDTH 500 0
DWIDTH 6 0
BBX 5 10 1 0
BITMAP
50
20
00
70
88
88
F8
88
88
88
ENDCHAR
STARTCHAR uni01CE
ENCODING 462
SWIDTH 500 0
DWIDTH 6 0
BBX 5 9 1 0
BITMAP
50
20
00
78
88
88
88
98
68
ENDCHAR
STARTCHAR uni01CF
ENCODING 463
SWIDTH 500 0
DWIDTH 6 0
BBX 3 10 2 0
BITMAP
A0
40
00
E0
40
40
40
40
40
E0
ENDCHAR
STARTCHAR uni01D0
ENCODING 464
SWIDTH 500 0
DWIDTH 6 0
BBX 4 9 2 0
BITMAP
A0
40
00
C0
40
40
40
40
30
ENDCHAR
STARTCHAR uni01D1
ENCODING 465
SWIDTH 500 0
DWIDTH 6 0
BBX 5 10 1 0
BITMAP
50
20
00
70
88
88
88
88
88
70
ENDCHAR
STARTCHAR uni01D2
ENCODING 466
SWIDTH 500 0
DWIDTH 6 0
BBX 5 9 1 0
BITMAP
50
20
00
70
88
88
88
88
70
ENDCHAR
STARTCHAR uni01D3
ENCODING 467
SWIDTH 500 0
DWIDTH 6 0
BBX 5 10 1 0
BITMAP
50
20
88
88
88
88
88
88
88
70
ENDCHAR
STARTCHAR uni01D4
ENCODING 468
SWIDTH 500 0
DWIDTH 6 0
BBX 5 8 1 0
BITMAP
50
20
88
88
88
88
88
78
ENDCHAR
STARTCHAR uni01D5
ENCODING 469
SWIDTH 500 0
DWIDTH 6 0
BBX 5 10 1 0
BITMAP
70
00
88
00
88
88
88
88
88
70
ENDCHAR
STARTCHAR uni01D6
ENCODING 470
SWIDTH 500 0
DWIDTH 6 0
BBX 5 10 1 0
BITMAP
70
00
50
00
88
88
88
88
88
78
ENDCHAR
STARTCHAR uni01D7
ENCODING 471
SWIDTH 500 0
DWIDTH 6 0
BBX 5 10 1 0
BITMAP
10
20
88
00
88
88
88
88
88
70
ENDCHAR
STARTCHAR uni01D8
ENCODING 472
SWIDTH 500 0
DWIDTH 6 0
BBX 5 10 1 0
BITMAP
10
20
00
50
00
88
88
88
88
78
ENDCHAR
STARTCHAR uni01D9
ENCODING 473
SWIDTH 500 0
DWIDTH 6 0
BBX 5 10 1 0
BITMAP
50
20
88
00
88
88
88
88
88
70
ENDCHAR
STARTCHAR uni01DA
ENCODING 474
SWIDTH 500 0
DWIDTH 6 0
BBX 5 10 1 0
BITMAP
50
20
00
50
00
88
88
88
88
78
ENDCHAR
STARTCHAR uni01DB
ENCODING 475
SWIDTH 500 0
DWIDTH 6 0
BBX 5 10 1 0
BITMAP
40
20
88
00
88
88
88
88
88
70
ENDCHAR
STARTCHAR uni01DC
ENCODING 476
SWIDTH 500 0
DWIDTH 6 0
BBX 5 10 1 0
BITMAP
40
20
00
50
00
88
88
88
88
78
ENDCHAR
STARTCHAR uni01DD
ENCODING 477
SWIDTH 500 0
DWIDTH 6 0
BBX 5 6 1 0
BITMAP
70
88
08
F8
88
70
ENDCHAR
STARTCHAR uni01DE
ENCODING 478
SWIDTH 500 0
DWIDTH 6 0
BBX 5 10 1 0
BITMAP
70
00
50
00
70
88
88
F8
88
88
ENDCHAR
STARTCHAR uni01DF
ENCODING 479
SWIDTH 500 0
DWIDTH 6 0
BBX 5 10 1 0
BITMAP
70
00
50
00
78
88
88
88
98
68
ENDCHAR
STARTCHAR uni01E0
ENCODING 480
SWIDTH 500 0
DWIDTH 6 0
BBX 5 10 1 0
BITMAP
70
00
20
00
70
88
88
F8
88
88
ENDCHAR
STARTCHAR uni01E1
ENCODING 481
SWIDTH 500 0
DWIDTH 6 0
BBX 5 10 1 0
BITMAP
70
00
20
00
78
88
88
88
98
68
ENDCHAR
STARTCHAR uni01E2
ENCODING 482
SWIDTH 500 0
DWIDTH 6 0
BBX 5 10 1 0
BITMAP
70
00
78
A0
A0
B8
E0
A0
A0
B8
ENDCHAR
STARTCHAR uni01E3
ENCODING 483
SWIDTH 500 0
DWIDTH 6 0
BBX 5 8 1 0
BITMAP
70
00
78
A8
A8
B0
A0
58
ENDCHAR
STARTCHAR uni01E4
ENCODING 484
SWIDTH 500 0
DWIDTH 6 0
BBX 6 8 1 0
BITMAP
70
88
80
98
88
BC
88
70
ENDCHAR
STARTCHAR uni01E5
ENCODING 485
SWIDTH 500 0
DWIDTH 6 0
BBX 6 9 1 -3
BITMAP
78
88
88
BC
88
78
08
08
70
ENDCHAR
STARTCHAR Gcaron
ENCODING 486
SWIDTH 500 0
DWIDTH 6 0
BBX 5 10 1 0
BITMAP
50
20
00
70
88
80
98
88
88
70
ENDCHAR
STARTCHAR gcaron
ENCODING 487
SWIDTH 500 0
DWIDTH 6 0
BBX 5 12 1 -3
BITMAP
50
20
00
78
88
88
88
88
78
08
08
70
ENDCHAR
STARTCHAR uni01E8
ENCODING 488
SWIDTH 500 0
DWIDTH 6 0
BBX 5 10 1 0
BITMAP
50
20
88
90
A0
E0
90
90
88
88
ENDCHAR
STARTCHAR uni01E9
ENCODING 489
SWIDTH 500 0
DWIDTH 6 0
BBX 5 9 1 0
BITMAP
A8
90
80
88
90
A0
E0
90
88
ENDCHAR
STARTCHAR uni01EA
ENCODING 490
SWIDTH 500 0
DWIDTH 6 0
BBX 5 10 1 -2
BITMAP
70
88
88
88
88
88
88
70
20
30
ENDCHAR
STARTCHAR uni01EB
ENCODING 491
SWIDTH 500 0
DWIDTH 6 0
BBX 5 8 1 -2
BITMAP
70
88
88
88
88
70
10
18
ENDCHAR
STARTCHAR uni01EC
ENCODING 492
SWIDTH 500 0
DWIDTH 6 0
BBX 5 12 1 -2
BITMAP
70
00
70
88
88
88
88
88
88
70
20
30
ENDCHAR
STARTCHAR uni01ED
ENCODING 493
SWIDTH 500 0
DWIDTH 6 0
BBX 5 10 1 -2
BITMAP
70
00
70
88
88
88
88
70
10
18
ENDCHAR
STARTCHAR uni01EE
ENCODING 494
SWIDTH 500 0
DWIDTH 6 0
BBX 5 10 1 0
BITMAP
50
20
F8
10
20
70
08
08
88
70
ENDCHAR
STARTCHAR uni01EF
ENCODING 495
SWIDTH 500 0
DWIDTH 6 0
BBX 5 11 1 -2
BITMAP
50
20
00
F8
10
20
70
08
08
88
70
ENDCHAR
STARTCHAR uni01F0
ENCODING 496
SWIDTH 500 0
DWIDTH 6 0
BBX 3 11 2 -2
BITMAP
A0
40
00
60
20
20
20
20
20
A0
40
ENDCHAR
STARTCHAR uni01F1
ENCODING 497
SWIDTH 500 0
DWIDTH 6 0
BBX 5 8 1 0
BITMAP
D8
A8
A8
A8
B0
B0
B0
D8
ENDCHAR
STARTCHAR uni01F2
ENCODING 498
SWIDTH 500 0
DWIDTH 6 0
BBX 5 8 1 0
BITMAP
C0
A0
B8
A8
A8
B0
B0
D8
ENDCHAR
STARTCHAR uni01F3
ENCODING 499
SWIDTH 500 0
DWIDTH 6 0
BBX 5 9 1 0
BITMAP
20
20
20
78
A8
A8
B0
B0
78
ENDCHAR
STARTCHAR uni01F4
ENCODING 500
SWIDTH 500 0
DWIDTH 6 0
BBX 5 10 1 0
BITMAP
10
20
00
70
88
80
98
88
88
70
ENDCHAR
STARTCHAR uni01F5
ENCODING 501
SWIDTH 500 0
DWIDTH 6 0
BBX 5 12 1 -3
BITMAP
10
20
00
78
88
88
88
88
78
08
08
70
ENDCHAR
STARTCHAR uni01F6
ENCODING 502
SWIDTH 500 0
DWIDTH 6 0
BBX 5 8 1 0
BITMAP
A0
A0
A0
E8
A8
A8
A8
90
ENDCHAR
STARTCHAR uni01F7
ENCODING 503
SWIDTH 500 0
DWIDTH 6 0
BBX 5 8 1 0
BITMAP
B0
C8
88
88
B0
C0
80
80
ENDCHAR
STARTCHAR uni01F8
ENCODING 504
SWIDTH 500 0
DWIDTH 6 0
BBX 5 10 1 0
BITMAP
40
20
88
C8
C8
A8
A8
98
98
88
ENDCHAR
STARTCHAR uni01F9
ENCODING 505
SWIDTH 500 0
DWIDTH 6 0
BBX 5 9 1 0
BITMAP
40
20
00
F0
88
88
88
88
88
ENDCHAR
STARTCHAR Aringacute
ENCODING 506
SWIDTH 500 0
DWIDTH 6 0
BBX 5 10 1 0
BITMAP
40
A8
50
00
70
88
88
F8
88
88
ENDCHAR
STARTCHAR aringacute
ENCODING 507
SWIDTH 500 0
DWIDTH 6 0
BBX 5 10 1 0
BITMAP
40
A8
50
00
78
88
88
88
98
68
ENDCHAR
STARTCHAR AEacute
ENCODING 508
SWIDTH 500 0
DWIDTH 6 0
BBX 5 10 1 0
BITMAP
10
20
00
78
A0
B8
E0
A0
A0
B8
ENDCHAR
STARTCHAR aeacute
ENCODING 509
SWIDTH 500 0
DWIDTH 6 0
BBX 5 9 1 0
BITMAP
10
20
00
70
A8
B8
A0
A8
50
ENDCHAR
STARTCHAR Oslashacute
ENCODING 510
SWIDTH 500 0
DWIDTH 6 0
BBX 5 11 1 -1
BITMAP
10
20
08
70
98
A8
A8
A8
C8
70
80
ENDCHAR
STARTCHAR oslashacute
ENCODING 511
SWIDTH 500 0
DWIDTH 6 0
BBX 5 10 1 -1
BITMAP
10
20
08
70
98
A8
A8
C8
70
80
ENDCHAR
STARTCHAR uni0200
ENCODING 512
SWIDTH 500 0
DWIDTH 6 0
BBX 5 10 1 0
BITMAP
90
48
00
70
88
88
F8
88
88
88
ENDCHAR
STARTCHAR uni0201
ENCODING 513
SWIDTH 500 0
DWIDTH 6 0
BBX 5 9 1 0
BITMAP
90
48
00
78
88
88
88
98
68
ENDCHAR
STARTCHAR uni0202
ENCODING 514
SWIDTH 500 0
DWIDTH 6 0
BBX 5 10 1 0
BITMAP
70
50
00
70
88
88
F8
88
88
88
ENDCHAR
STARTCHAR uni0203
ENCODING 515
SWIDTH 500 0
DWIDTH 6 0
BBX 5 9 1 0
BITMAP
70
50
00
78
88
88
88
98
68
ENDCHAR
STARTCHAR uni0204
ENCODING 516
SWIDTH 500 0
DWIDTH 6 0
BBX 5 10 1 0
BITMAP
90
48
00
F8
80
80
F0
80
80
F8
ENDCHAR
STARTCHAR uni0205
ENCODING 517
SWIDTH 500 0
DWIDTH 6 0
BBX 5 9 1 0
BITMAP
90
48
00
70
88
F8
80
88
70
ENDCHAR
STARTCHAR uni0206
ENCODING 518
SWIDTH 500 0
DWIDTH 6 0
BBX 5 10 1 0
BITMAP
70
50
00
F8
80
80
F0
80
80
F8
ENDCHAR
STARTCHAR uni0207
ENCODING 519
SWIDTH 500 0
DWIDTH 6 0
BBX 5 9 1 0
BITMAP
70
50
00
70
88
F8
80
88
70
ENDCHAR
STARTCHAR uni0208
ENCODING 520
SWIDTH 500 0
DWIDTH 6 0
BBX 5 10 1 0
BITMAP
90
48
00
70
20
20
20
20
20
70
ENDCHAR
STARTCHAR uni0209
ENCODING 521
SWIDTH 500 0
DWIDTH 6 0
BBX 5 9 1 0
BITMAP
90
48
00
60
20
20
20
20
18
ENDCHAR
STARTCHAR uni020A
ENCODING 522
SWIDTH 500 0
DWIDTH 6 0
BBX 3 10 2 0
BITMAP
E0
A0
00
E0
40
40
40
40
40
E0
ENDCHAR
STARTCHAR uni020B
ENCODING 523
SWIDTH 500 0
DWIDTH 6 0
BBX 4 9 2 0
BITMAP
E0
A0
00
C0
40
40
40
40
30
ENDCHAR
STARTCHAR uni020C
ENCODING 524
SWIDTH 500 0
DWIDTH 6 0
BBX 5 10 1 0
BITMAP
90
48
00
70
88
88
88
88
88
70
ENDCHAR
STARTCHAR uni020D
ENCODING 525
SWIDTH 500 0
DWIDTH 6 0
BBX 5 9 1 0
BITMAP
90
48
00
70
88
88
88
88
70
ENDCHAR
STARTCHAR uni020E
ENCODING 526
SWIDTH 500 0
DWIDTH 6 0
BBX 5 10 1 0
BITMAP
70
50
00
70
88
88
88
88
88
70
ENDCHAR
STARTCHAR uni020F
ENCODING 527
SWIDTH 500 0
DWIDTH 6 0
BBX 5 9 1 0
BITMAP
70
50
00
70
88
88
88
88
70
ENDCHAR
STARTCHAR uni0210
ENCODING 528
SWIDTH 500 0
DWIDTH 6 0
BBX 5 10 1 0
BITMAP
90
48
00
F0
88
88
F0
90
88
88
ENDCHAR
STARTCHAR uni0211
ENCODING 529
SWIDTH 500 0
DWIDTH 6 0
BBX 5 9 1 0
BITMAP
90
48
00
F0
88
80
80
80
80
ENDCHAR
STARTCHAR uni0212
ENCODING 530
SWIDTH 500 0
DWIDTH 6 0
BBX 5 10 1 0
BITMAP
70
50
00
F0
88
88
F0
90
88
88
ENDCHAR
STARTCHAR uni0213
ENCODING 531
SWIDTH 500 0
DWIDTH 6 0
BBX 5 9 1 0
BITMAP
70
50
00
F0
88
80
80
80
80
ENDCHAR
STARTCHAR uni0214
ENCODING 532
SWIDTH 500 0
DWIDTH 6 0
BBX 5 10 1 0
BITMAP
90
48
00
88
88
88
88
88
88
70
ENDCHAR
STARTCHAR uni0215
ENCODING 533
SWIDTH 500 0
DWIDTH 6 0
BBX 5 9 1 0
BITMAP
90
48
00
88
88
88
88
88
78
ENDCHAR
STARTCHAR uni0216
ENCODING 534
SWIDTH 500 0
DWIDTH 6 0
BBX 5 10 1 0
BITMAP
70
50
00
88
88
88
88
88
88
70
ENDCHAR
STARTCHAR uni0217
ENCODING 535
SWIDTH 500 0
DWIDTH 6 0
BBX 5 9 1 0
BITMAP
70
50
00
88
88
88
88
88
78
ENDCHAR
STARTCHAR Scommaaccent
ENCODING 536
SWIDTH 500 0
DWIDTH 6 0
BBX 5 11 1 -3
BITMAP
70
88
80
70
08
08
88
70
30
10
20
ENDCHAR
STARTCHAR scommaaccent
ENCODING 537
SWIDTH 500 0
DWIDTH 6 0
BBX 5 9 1 -3
BITMAP
78
80
70
08
08
F0
30
10
20
ENDCHAR
STARTCHAR uni021A
ENCODING 538
SWIDTH 500 0
DWIDTH 6 0
BBX 5 11 1 -3
BITMAP
F8
20
20
20
20
20
20
20
30
10
20
ENDCHAR
STARTCHAR uni021B
ENCODING 539
SWIDTH 500 0
DWIDTH 6 0
BBX 5 11 1 -3
BITMAP
40
40
F0
40
40
40
40
38
30
10
20
ENDCHAR
STARTCHAR uni021C
ENCODING 540
SWIDTH 500 0
DWIDTH 6 0
BBX 5 9 1 -1
BITMAP
70
88
08
10
68
08
08
10
E0
ENDCHAR
STARTCHAR uni021D
ENCODING 541
SWIDTH 500 0
DWIDTH 6 0
BBX 5 8 1 -2
BITMAP
70
88
08
10
68
08
10
E0
ENDCHAR
STARTCHAR uni021E
ENCODING 542
SWIDTH 500 0
DWIDTH 6 0
BBX 5 10 1 0
BITMAP
50
20
88
88
88
F8
88
88
88
88
ENDCHAR
STARTCHAR uni021F
ENCODING 543
SWIDTH 500 0
DWIDTH 6 0
BBX 4 10 2 0
BITMAP
A0
40
00
80
80
E0
90
90
90
90
ENDCHAR
STARTCHAR uni0220
ENCODING 544
SWIDTH 500 0
DWIDTH 6 0
BBX 5 10 1 -2
BITMAP
B0
C8
88
88
88
88
88
88
08
08
ENDCHAR
STARTCHAR uni0221
ENCODING 545
SWIDTH 500 0
DWIDTH 6 0
BBX 7 11 1 -2
BITMAP
08
08
08
78
88
88
88
88
7C
1A
24
ENDCHAR
STARTCHAR uni0222
ENCODING 546
SWIDTH 1000 0
DWIDTH 6 0
BBX 5 8 1 0
BITMAP
88
88
88
70
88
88
88
70
ENDCHAR
STARTCHAR uni0223
ENCODING 547
SWIDTH 1000 0
DWIDTH 6 0
BBX 5 9 1 0
BITMAP
88
88
88
70
88
88
88
88
70
ENDCHAR
STARTCHAR uni0224
ENCODING 548
SWIDTH 500 0
DWIDTH 6 0
BBX 5 10 1 -2
BITMAP
F8
10
20
20
40
40
80
F8
08
30
ENDCHAR
STARTCHAR uni0225
ENCODING 549
SWIDTH 500 0
DWIDTH 6 0
BBX 5 8 1 -2
BITMAP
F8
10
20
40
80
F8
08
30
ENDCHAR
STARTCHAR uni0226
ENCODING 550
SWIDTH 500 0
DWIDTH 6 0
BBX 5 10 1 0
BITMAP
20
00
70
88
88
88
F8
88
88
88
ENDCHAR
STARTCHAR uni0227
ENCODING 551
SWIDTH 500 0
DWIDTH 6 0
BBX 5 8 1 0
BITMAP
20
00
78
88
88
88
98
68
ENDCHAR
STARTCHAR uni0228
ENCODING 552
SWIDTH 500 0
DWIDTH 6 0
BBX 5 11 1 -3
BITMAP
F8
80
80
F0
80
80
80
F8
20
10
60
ENDCHAR
STARTCHAR uni0229
ENCODING 553
SWIDTH 500 0
DWIDTH 6 0
BBX 5 9 1 -3
BITMAP
70
88
F8
80
88
70
20
10
60
ENDCHAR
STARTCHAR uni022A
ENCODING 554
SWIDTH 500 0
DWIDTH 6 0
BBX 5 10 1 0
BITMAP
70
00
50
00
70
88
88
88
88
70
ENDCHAR
STARTCHAR uni022B
ENCODING 555
SWIDTH 500 0
DWIDTH 6 0
BBX 5 10 1 0
BITMAP
70
00
50
00
70
88
88
88
88
70
ENDCHAR
STARTCHAR uni022C
ENCODING 556
SWIDTH 500 0
DWIDTH 6 0
BBX 5 10 1 0
BITMAP
70
00
68
B0
00
70
88
88
88
70
ENDCHAR
STARTCHAR uni022D
ENCODING 557
SWIDTH 500 0
DWIDTH 6 0
BBX 5 10 1 0
BITMAP
70
00
68
B0
00
70
88
88
88
70
ENDCHAR
STARTCHAR uni022E
ENCODING 558
SWIDTH 500 0
DWIDTH 6 0
BBX 5 10 1 0
BITMAP
20
00
70
88
88
88
88
88
88
70
ENDCHAR
STARTCHAR uni022F
ENCODING 559
SWIDTH 500 0
DWIDTH 6 0
BBX 5 8 1 0
BITMAP
20
00
70
88
88
88
88
70
ENDCHAR
STARTCHAR uni0230
ENCODING 560
SWIDTH 500 0
DWIDTH 6 0
BBX 5 10 1 0
BITMAP
70
00
20
00
70
88
88
88
88
70
ENDCHAR
STARTCHAR uni0231
ENCODING 561
SWIDTH 500 0
DWIDTH 6 0
BBX 5 10 1 0
BITMAP
70
00
20
00
70
88
88
88
88
70
ENDCHAR
STARTCHAR uni0232
ENCODING 562
SWIDTH 500 0
DWIDTH 6 0
BBX 5 10 1 0
BITMAP
70
00
88
88
88
50
20
20
20
20
ENDCHAR
STARTCHAR uni0233
ENCODING 563
SWIDTH 500 0
DWIDTH 6 0
BBX 5 11 1 -3
BITMAP
70
00
88
88
88
88
88
78
08
08
70
ENDCHAR
STARTCHAR uni0234
ENCODING 564
SWIDTH 500 0
DWIDTH 6 0
BBX 5 10 1 -1
BITMAP
C0
40
40
40
40
40
50
68
70
80
ENDCHAR
STARTCHAR uni0235
ENCODING 565
SWIDTH 500 0
DWIDTH 6 0
BBX 7 8 1 -2
BITMAP
F0
88
88
88
88
8C
1A
24
ENDCHAR
STARTCHAR uni0236
ENCODING 566
SWIDTH 500 0
DWIDTH 6 0
BBX 5 9 1 -1
BITMAP
40
40
F0
40
40
50
68
70
80
ENDCHAR
STARTCHAR uni0237
ENCODING 567
SWIDTH 500 0
DWIDTH 6 0
BBX 3 8 2 -2
BITMAP
60
20
20
20
20
20
A0
40
ENDCHAR
STARTCHAR uni0238
ENCODING 568
SWIDTH 500 0
DWIDTH 6 0
BBX 5 9 1 0
BITMAP
20
20
20
70
A8
A8
A8
A8
70
ENDCHAR
STARTCHAR uni0239
ENCODING 569
SWIDTH 500 0
DWIDTH 6 0
BBX 5 9 1 -3
BITMAP
70
A8
A8
A8
A8
70
20
20
20
ENDCHAR
STARTCHAR uni023A
ENCODING 570
SWIDTH 500 0
DWIDTH 6 0
BBX 5 10 1 -1
BITMAP
10
70
98
A8
A8
F8
A8
C8
C8
40
ENDCHAR
STARTCHAR uni023B
ENCODING 571
SWIDTH 500 0
DWIDTH 6 0
BBX 5 10 1 -1
BITMAP
10
70
98
A0
A0
A0
A0
C8
70
40
ENDCHAR
STARTCHAR uni023C
ENCODING 572
SWIDTH 500 0
DWIDTH 6 0
BBX 5 8 1 -1
BITMAP
10
70
98
A0
A0
C8
70
40
ENDCHAR
STARTCHAR uni023D
ENCODING 573
SWIDTH 500 0
DWIDTH 6 0
BBX 5 8 1 0
BITMAP
40
40
40
E0
40
40
40
78
ENDCHAR
STARTCHAR uni023E
ENCODING 574
SWIDTH 500 0
DWIDTH 6 0
BBX 5 8 1 0
BITMAP
F8
20
28
30
20
60
A0
20
ENDCHAR
STARTCHAR uni023F
ENCODING 575
SWIDTH 500 0
DWIDTH 6 0
BBX 5 9 1 -3
BITMAP
78
80
70
08
08
70
80
88
70
ENDCHAR
STARTCHAR uni0240
ENCODING 576
SWIDTH 500 0
DWIDTH 6 0
BBX 5 8 1 -2
BITMAP
F8
10
20
40
80
C0
30
08
ENDCHAR
STARTCHAR uni0241
ENCODING 577
SWIDTH 500 0
DWIDTH 6 0
BBX 5 8 1 0
BITMAP
70
88
08
10
20
20
20
20
ENDCHAR
STARTCHAR uni0242
ENCODING 578
SWIDTH 500 0
DWIDTH 6 0
BBX 5 6 1 0
BITMAP
70
88
08
10
20
20
ENDCHAR
STARTCHAR uni0243
ENCODING 579
SWIDTH 500 0
DWIDTH 6 0
BBX 5 8 1 0
BITMAP
70
48
48
70
48
E8
48
70
ENDCHAR
STARTCHAR uni0244
ENCODING 580
SWIDTH 500 0
DWIDTH 6 0
BBX 5 8 1 0
BITMAP
88
88
88
F8
88
88
88
70
ENDCHAR
STARTCHAR uni0245
ENCODING 581
SWIDTH 500 0
DWIDTH 6 0
BBX 5 8 1 0
BITMAP
20
20
50
50
50
88
88
88
ENDCHAR
STARTCHAR uni0246
ENCODING 582
SWIDTH 500 0
DWIDTH 6 0
BBX 5 10 1 -1
BITMAP
10
F8
90
A0
F8
A0
A0
C0
F8
40
ENDCHAR
STARTCHAR uni0247
ENCODING 583
SWIDTH 500 0
DWIDTH 6 0
BBX 5 9 1 -1
BITMAP
10
10
70
A8
F8
A0
C8
70
40
ENDCHAR
STARTCHAR uni0248
ENCODING 584
SWIDTH 500 0
DWIDTH 6 0
BBX 5 8 1 0
BITMAP
70
10
10
38
10
90
90
60
ENDCHAR
STARTCHAR uni0249
ENCODING 585
SWIDTH 500 0
DWIDTH 6 0
BBX 3 10 2 -2
BITMAP
40
00
C0
40
40
E0
40
40
40
80
ENDCHAR
STARTCHAR uni024A
ENCODING 586
SWIDTH 500 0
DWIDTH 6 0
BBX 5 11 1 -3
BITMAP
60
90
90
90
90
90
90
60
20
28
10
ENDCHAR
STARTCHAR uni024B
ENCODING 587
SWIDTH 500 0
DWIDTH 6 0
BBX 5 9 1 -3
BITMAP
60
A0
A0
A0
A0
60
20
28
10
ENDCHAR
STARTCHAR uni024C
ENCODING 588
SWIDTH 500 0
DWIDTH 6 0
BBX 5 8 1 0
BITMAP
70
48
48
F0
50
48
48
48
ENDCHAR
STARTCHAR uni024D
ENCODING 589
SWIDTH 500 0
DWIDTH 6 0
BBX 5 7 1 0
BITMAP
30
48
40
40
E0
40
40
ENDCHAR
STARTCHAR uni024E
ENCODING 590
SWIDTH 500 0
DWIDTH 6 0
BBX 5 8 1 0
BITMAP
88
F8
88
50
20
20
20
20
ENDCHAR
STARTCHAR uni024F
ENCODING 591
SWIDTH 500 0
DWIDTH 6 0
BBX 5 9 1 -3
BITMAP
48
48
F8
48
48
38
08
08
70
ENDCHAR
STARTCHAR uni0250
ENCODING 592
SWIDTH 500 0
DWIDTH 6 0
BBX 5 6 1 0
BITMAP
B0
C8
88
F0
80
70
ENDCHAR
STARTCHAR uni0251
ENCODING 593
SWIDTH 500 0
DWIDTH 6 0
BBX 5 6 1 0
BITMAP
68
98
88
88
98
68
ENDCHAR
STARTCHAR uni0252
ENCODING 594
SWIDTH 500 0
DWIDTH 6 0
BBX 5 6 1 0
BITMAP
B0
C8
88
88
C8
B0
ENDCHAR
STARTCHAR uni0253
ENCODING 595
SWIDTH 500 0
DWIDTH 6 0
BBX 5 9 1 0
BITMAP
60
80
80
F0
88
88
88
88
F0
ENDCHAR
STARTCHAR uni0254
ENCODING 596
SWIDTH 500 0
DWIDTH 6 0
BBX 5 6 1 0
BITMAP
70
88
08
08
88
70
ENDCHAR
STARTCHAR uni0255
ENCODING 597
SWIDTH 500 0
DWIDTH 6 0
BBX 5 6 1 0
BITMAP
70
88
80
B0
48
B0
ENDCHAR
STARTCHAR uni0256
ENCODING 598
SWIDTH 500 0
DWIDTH 6 0
BBX 7 12 1 -3
BITMAP
08
08
08
78
88
88
88
88
78
08
08
06
ENDCHAR
STARTCHAR uni0257
ENCODING 599
SWIDTH 500 0
DWIDTH 6 0
BBX 6 9 1 0
BITMAP
0C
10
10
70
90
90
90
90
70
ENDCHAR
STARTCHAR uni0258
ENCODING 600
SWIDTH 500 0
DWIDTH 6 0
BBX 5 6 1 0
BITMAP
70
88
F8
08
88
70
ENDCHAR
STARTCHAR uni0259
ENCODING 601
SWIDTH 500 0
DWIDTH 6 0
BBX 5 6 1 0
BITMAP
70
88
08
F8
88
70
ENDCHAR
STARTCHAR uni025A
ENCODING 602
SWIDTH 500 0
DWIDTH 6 0
BBX 7 6 1 0
BITMAP
70
88
0E
FA
88
70
ENDCHAR
STARTCHAR uni025B
ENCODING 603
SWIDTH 500 0
DWIDTH 6 0
BBX 5 6 1 0
BITMAP
78
80
70
80
80
78
ENDCHAR
STARTCHAR uni025C
ENCODING 604
SWIDTH 500 0
DWIDTH 6 0
BBX 5 6 1 0
BITMAP
F0
08
70
08
08
F0
ENDCHAR
STARTCHAR uni025D
ENCODING 605
SWIDTH 500 0
DWIDTH 6 0
BBX 7 6 1 0
BITMAP
F0
0E
72
08
08
F0
ENDCHAR
STARTCHAR uni025E
ENCODING 606
SWIDTH 500 0
DWIDTH 6 0
BBX 5 6 1 0
BITMAP
70
88
B0
88
88
70
ENDCHAR
STARTCHAR uni025F
ENCODING 607
SWIDTH 500 0
DWIDTH 6 0
BBX 4 8 2 -2
BITMAP
60
20
70
20
20
20
A0
40
ENDCHAR
STARTCHAR uni0260
ENCODING 608
SWIDTH 500 0
DWIDTH 6 0
BBX 6 12 1 -3
BITMAP
08
14
10
70
90
90
90
90
70
10
10
60
ENDCHAR
STARTCHAR uni0261
ENCODING 609
SWIDTH 500 0
DWIDTH 6 0
BBX 5 9 1 -3
BITMAP
78
88
88
88
88
78
08
08
70
ENDCHAR
STARTCHAR uni0262
ENCODING 610
SWIDTH 500 0
DWIDTH 6 0
BBX 5 6 1 0
BITMAP
70
88
80
98
88
70
ENDCHAR
STARTCHAR uni0263
ENCODING 611
SWIDTH 500 0
DWIDTH 6 0
BBX 5 9 1 -3
BITMAP
88
88
50
50
20
20
50
50
20
ENDCHAR
STARTCHAR uni0264
ENCODING 612
SWIDTH 500 0
DWIDTH 6 0
BBX 5 7 1 -1
BITMAP
88
88
50
50
20
50
20
ENDCHAR
STARTCHAR uni0265
ENCODING 613
SWIDTH 500 0
DWIDTH 6 0
BBX 5 9 1 -3
BITMAP
88
88
88
88
88
78
08
08
08
ENDCHAR
STARTCHAR uni0266
ENCODING 614
SWIDTH 500 0
DWIDTH 6 0
BBX 5 9 1 0
BITMAP
60
80
80
F0
88
88
88
88
88
ENDCHAR
STARTCHAR uni0267
ENCODING 615
SWIDTH 500 0
DWIDTH 6 0
BBX 5 12 1 -3
BITMAP
60
80
80
F0
88
88
88
88
88
08
08
30
ENDCHAR
STARTCHAR uni0268
ENCODING 616
SWIDTH 500 0
DWIDTH 6 0
BBX 4 8 2 0
BITMAP
40
00
C0
40
E0
40
40
30
ENDCHAR
STARTCHAR uni0269
ENCODING 617
SWIDTH 500 0
DWIDTH 6 0
BBX 4 6 2 0
BITMAP
C0
40
40
40
40
30
ENDCHAR
STARTCHAR uni026A
ENCODING 618
SWIDTH 500 0
DWIDTH 6 0
BBX 3 6 2 0
BITMAP
E0
40
40
40
40
E0
ENDCHAR
STARTCHAR uni026B
ENCODING 619
SWIDTH 500 0
DWIDTH 6 0
BBX 5 9 1 0
BITMAP
60
20
20
20
68
B0
20
20
30
ENDCHAR
STARTCHAR uni026C
ENCODING 620
SWIDTH 500 0
DWIDTH 6 0
BBX 4 9 1 0
BITMAP
60
20
20
60
A0
70
20
20
30
ENDCHAR
STARTCHAR uni026D
ENCODING 621
SWIDTH 500 0
DWIDTH 6 0
BBX 4 12 2 -3
BITMAP
C0
40
40
40
40
40
40
40
40
40
40
30
ENDCHAR
STARTCHAR uni026E
ENCODING 622
SWIDTH 500 0
DWIDTH 6 0
BBX 6 11 1 -2
BITMAP
C0
40
40
7C
48
50
58
44
44
04
38
ENDCHAR
STARTCHAR uni026F
ENCODING 623
SWIDTH 500 0
DWIDTH 6 0
BBX 5 6 1 0
BITMAP
A8
A8
A8
A8
A8
58
ENDCHAR
STARTCHAR uni0270
ENCODING 624
SWIDTH 500 0
DWIDTH 6 0
BBX 5 8 1 -2
BITMAP
A8
A8
A8
A8
A8
58
08
08
ENDCHAR
STARTCHAR uni0271
ENCODING 625
SWIDTH 500 0
DWIDTH 6 0
BBX 5 9 1 -3
BITMAP
D0
A8
A8
A8
A8
A8
08
08
10
ENDCHAR
STARTCHAR uni0272
ENCODING 626
SWIDTH 500 0
DWIDTH 6 0
BBX 7 9 -1 -3
BITMAP
3C
22
22
22
22
22
20
20
C0
ENDCHAR
STARTCHAR uni0273
ENCODING 627
SWIDTH 500 0
DWIDTH 6 0
BBX 7 9 1 -3
BITMAP
F0
88
88
88
88
88
08
08
06
ENDCHAR
STARTCHAR uni0274
ENCODING 628
SWIDTH 500 0
DWIDTH 6 0
BBX 5 6 1 0
BITMAP
88
C8
A8
98
88
88
ENDCHAR
STARTCHAR uni0275
ENCODING 629
SWIDTH 500 0
DWIDTH 6 0
BBX 5 6 1 0
BITMAP
70
88
F8
88
88
70
ENDCHAR
STARTCHAR uni0276
ENCODING 630
SWIDTH 500 0
DWIDTH 6 0
BBX 5 6 1 0
BITMAP
78
A0
B8
A0
A0
78
ENDCHAR
STARTCHAR uni0277
ENCODING 631
SWIDTH 500 0
DWIDTH 6 0
BBX 5 6 1 0
BITMAP
70
88
88
A8
A8
50
ENDCHAR
STARTCHAR uni0278
ENCODING 632
SWIDTH 500 0
DWIDTH 6 0
BBX 5 10 1 -2
BITMAP
20
20
70
A8
A8
A8
A8
70
20
20
ENDCHAR
STARTCHAR uni0279
ENCODING 633
SWIDTH 500 0
DWIDTH 6 0
BBX 5 6 1 0
BITMAP
08
08
08
08
88
78
ENDCHAR
STARTCHAR uni027A
ENCODING 634
SWIDTH 500 0
DWIDTH 6 0
BBX 5 9 1 0
BITMAP
08
08
08
08
08
08
08
88
78
ENDCHAR
STARTCHAR uni027B
ENCODING 635
SWIDTH 500 0
DWIDTH 6 0
BBX 7 9 1 -3
BITMAP
08
08
08
08
88
78
08
08
06
ENDCHAR
STARTCHAR uni027C
ENCODING 636
SWIDTH 500 0
DWIDTH 6 0
BBX 5 8 1 -2
BITMAP
F0
88
80
80
80
80
80
80
ENDCHAR
STARTCHAR uni027D
ENCODING 637
SWIDTH 500 0
DWIDTH 6 0
BBX 5 9 1 -3
BITMAP
F0
88
80
80
80
80
80
80
60
ENDCHAR
STARTCHAR uni027E
ENCODING 638
SWIDTH 500 0
DWIDTH 6 0
BBX 4 6 1 0
BITMAP
70
80
80
80
80
80
ENDCHAR
STARTCHAR uni027F
ENCODING 639
SWIDTH 500 0
DWIDTH 6 0
BBX 4 6 2 0
BITMAP
E0
10
10
10
10
10
ENDCHAR
STARTCHAR uni0280
ENCODING 640
SWIDTH 500 0
DWIDTH 6 0
BBX 5 6 1 0
BITMAP
F0
88
F0
88
88
88
ENDCHAR
STARTCHAR uni0281
ENCODING 641
SWIDTH 500 0
DWIDTH 6 0
BBX 5 6 1 0
BITMAP
88
88
88
F0
88
F0
ENDCHAR
STARTCHAR uni0282
ENCODING 642
SWIDTH 500 0
DWIDTH 6 0
BBX 5 9 1 -3
BITMAP
78
80
70
08
08
F0
80
80
60
ENDCHAR
STARTCHAR uni0283
ENCODING 643
SWIDTH 500 0
DWIDTH 6 0
BBX 5 12 2 -3
BITMAP
18
20
20
20
20
20
20
20
20
20
20
C0
ENDCHAR
STARTCHAR uni0284
ENCODING 644
SWIDTH 500 0
DWIDTH 6 0
BBX 5 11 1 -2
BITMAP
18
20
20
20
20
20
70
20
20
A0
40
ENDCHAR
STARTCHAR uni0285
ENCODING 645
SWIDTH 500 0
DWIDTH 6 0
BBX 5 9 1 -3
BITMAP
C0
20
20
20
20
20
20
20
18
ENDCHAR
STARTCHAR uni0286
ENCODING 646
SWIDTH 500 0
DWIDTH 6 0
BBX 5 12 1 -3
BITMAP
18
20
20
20
20
20
20
20
20
70
A0
40
ENDCHAR
STARTCHAR uni0287
ENCODING 647
SWIDTH 500 0
DWIDTH 6 0
BBX 5 8 1 0
BITMAP
E0
10
10
10
10
78
10
10
ENDCHAR
STARTCHAR uni0288
ENCODING 648
SWIDTH 500 0
DWIDTH 6 0
BBX 5 10 1 -2
BITMAP
40
40
F0
40
40
40
40
40
40
38
ENDCHAR
STARTCHAR uni0289
ENCODING 649
SWIDTH 500 0
DWIDTH 6 0
BBX 7 6 0 0
BITMAP
44
44
FE
44
44
3C
ENDCHAR
STARTCHAR uni028A
ENCODING 650
SWIDTH 500 0
DWIDTH 6 0
BBX 5 6 1 0
BITMAP
D8
50
88
88
88
70
ENDCHAR
STARTCHAR uni028B
ENCODING 651
SWIDTH 500 0
DWIDTH 6 0
BBX 5 6 1 0
BITMAP
90
88
88
88
88
70
ENDCHAR
STARTCHAR uni028C
ENCODING 652
SWIDTH 500 0
DWIDTH 6 0
BBX 5 6 1 0
BITMAP
20
20
50
50
88
88
ENDCHAR
STARTCHAR uni028D
ENCODING 653
SWIDTH 500 0
DWIDTH 6 0
BBX 5 6 1 0
BITMAP
50
50
A8
88
88
88
ENDCHAR
STARTCHAR uni028E
ENCODING 654
SWIDTH 500 0
DWIDTH 6 0
BBX 5 8 1 0
BITMAP
18
20
20
20
50
50
88
88
ENDCHAR
STARTCHAR uni028F
ENCODING 655
SWIDTH 500 0
DWIDTH 6 0
BBX 5 6 1 0
BITMAP
88
88
50
20
20
20
ENDCHAR
STARTCHAR uni0290
ENCODING 656
SWIDTH 500 0
DWIDTH 6 0
BBX 7 9 1 -3
BITMAP
F8
10
20
40
80
F8
08
08
06
ENDCHAR
STARTCHAR uni0291
ENCODING 657
SWIDTH 500 0
DWIDTH 6 0
BBX 6 7 1 -1
BITMAP
F8
10
20
48
94
F8
20
ENDCHAR
STARTCHAR uni0292
ENCODING 658
SWIDTH 500 0
DWIDTH 6 0
BBX 5 8 1 -2
BITMAP
F8
10
20
70
08
08
88
70
ENDCHAR
STARTCHAR uni0293
ENCODING 659
SWIDTH 500 0
DWIDTH 6 0
BBX 5 8 1 -2
BITMAP
F8
10
20
70
08
68
90
68
ENDCHAR
STARTCHAR uni0294
ENCODING 660
SWIDTH 500 0
DWIDTH 6 0
BBX 5 8 1 0
BITMAP
70
88
08
08
30
20
20
20
ENDCHAR
STARTCHAR uni0295
ENCODING 661
SWIDTH 500 0
DWIDTH 6 0
BBX 5 8 1 0
BITMAP
70
88
80
80
60
20
20
20
ENDCHAR
STARTCHAR uni0296
ENCODING 662
SWIDTH 500 0
DWIDTH 6 0
BBX 5 8 1 0
BITMAP
20
20
20
30
08
08
88
70
ENDCHAR
STARTCHAR uni0297
ENCODING 663
SWIDTH 500 0
DWIDTH 6 0
BBX 5 9 1 -3
BITMAP
70
88
80
80
80
80
80
88
70
ENDCHAR
STARTCHAR uni0298
ENCODING 664
SWIDTH 500 0
DWIDTH 6 0
BBX 5 8 1 0
BITMAP
70
88
88
A8
88
88
88
70
ENDCHAR
STARTCHAR uni0299
ENCODING 665
SWIDTH 500 0
DWIDTH 6 0
BBX 5 6 1 0
BITMAP
F0
88
F0
88
88
F0
ENDCHAR
STARTCHAR uni029A
ENCODING 666
SWIDTH 500 0
DWIDTH 6 0
BBX 5 6 1 0
BITMAP
70
88
68
88
88
70
ENDCHAR
STARTCHAR uni029B
ENCODING 667
SWIDTH 500 0
DWIDTH 6 0
BBX 6 9 1 0
BITMAP
0C
10
10
70
80
80
B0
90
60
ENDCHAR
STARTCHAR uni029C
ENCODING 668
SWIDTH 500 0
DWIDTH 6 0
BBX 5 6 1 0
BITMAP
88
88
F8
88
88
88
ENDCHAR
STARTCHAR uni029D
ENCODING 669
SWIDTH 500 0
DWIDTH 6 0
BBX 4 10 2 -2
BITMAP
20
00
60
20
20
20
20
70
A0
40
ENDCHAR
STARTCHAR uni029E
ENCODING 670
SWIDTH 500 0
DWIDTH 6 0
BBX 5 9 1 -3
BITMAP
88
48
38
28
48
88
08
08
08
ENDCHAR
STARTCHAR uni029F
ENCODING 671
SWIDTH 500 0
DWIDTH 6 0
BBX 4 6 1 0
BITMAP
80
80
80
80
80
F0
ENDCHAR
STARTCHAR uni02A0
ENCODING 672
SWIDTH 500 0
DWIDTH 6 0
BBX 6 12 1 -3
BITMAP
0C
10
10
70
90
90
90
90
70
10
10
18
ENDCHAR
STARTCHAR uni02A1
ENCODING 673
SWIDTH 500 0
DWIDTH 6 0
BBX 5 8 1 0
BITMAP
70
88
08
10
20
70
20
20
ENDCHAR
STARTCHAR uni02A2
ENCODING 674
SWIDTH 500 0
DWIDTH 6 0
BBX 5 8 1 0
BITMAP
70
88
80
40
20
70
20
20
ENDCHAR
STARTCHAR uni02A3
ENCODING 675
SWIDTH 500 0
DWIDTH 6 0
BBX 5 9 1 0
BITMAP
20
20
20
78
A8
A8
B0
B0
78
ENDCHAR
STARTCHAR uni02A4
ENCODING 676
SWIDTH 500 0
DWIDTH 6 0
BBX 6 11 1 -2
BITMAP
20
20
20
7C
A4
A8
BC
A4
64
04
18
ENDCHAR
STARTCHAR uni02A5
ENCODING 677
SWIDTH 500 0
DWIDTH 6 0
BBX 7 11 1 -2
BITMAP
20
20
20
78
A8
A8
B0
B4
7A
1C
20
ENDCHAR
STARTCHAR uni02A6
ENCODING 678
SWIDTH 500 0
DWIDTH 6 0
BBX 5 8 1 0
BITMAP
40
40
F8
50
50
48
48
38
ENDCHAR
STARTCHAR uni02A7
ENCODING 679
SWIDTH 500 0
DWIDTH 6 0
BBX 5 10 1 -2
BITMAP
48
50
F0
50
50
50
50
30
10
20
ENDCHAR
STARTCHAR uni02A8
ENCODING 680
SWIDTH 500 0
DWIDTH 6 0
BBX 7 11 1 -2
BITMAP
40
40
E0
48
54
50
50
54
2A
0C
10
ENDCHAR
STARTCHAR uni02A9
ENCODING 681
SWIDTH 500 0
DWIDTH 6 0
BBX 5 11 1 -3
BITMAP
60
80
B0
E8
A8
A8
A8
A8
08
08
10
ENDCHAR
STARTCHAR uni02AA
ENCODING 682
SWIDTH 500 0
DWIDTH 6 0
BBX 5 8 1 0
BITMAP
C0
40
58
60
50
48
48
70
ENDCHAR
STARTCHAR uni02AB
ENCODING 683
SWIDTH 500 0
DWIDTH 6 0
BBX 5 8 1 0
BITMAP
C0
40
78
48
50
50
60
78
ENDCHAR
STARTCHAR uni02AC
ENCODING 684
SWIDTH 500 0
DWIDTH 6 0
BBX 5 8 1 0
BITMAP
88
A8
70
50
88
A8
70
50
ENDCHAR
STARTCHAR uni02AD
ENCODING 685
SWIDTH 500 0
DWIDTH 6 0
BBX 5 8 1 0
BITMAP
F8
88
88
00
00
F8
88
88
ENDCHAR
STARTCHAR uni02AE
ENCODING 686
SWIDTH 500 0
DWIDTH 6 0
BBX 5 8 1 -2
BITMAP
88
48
48
48
48
38
08
08
ENDCHAR
STARTCHAR uni02AF
ENCODING 687
SWIDTH 500 0
DWIDTH 6 0
BBX 7 9 1 -3
BITMAP
88
48
48
48
48
38
08
08
06
ENDCHAR
STARTCHAR uni02B0
ENCODING 688
SWIDTH 500 0
DWIDTH 6 0
BBX 3 6 2 4
BITMAP
80
80
C0
A0
A0
A0
ENDCHAR
STARTCHAR uni02B1
ENCODING 689
SWIDTH 500 0
DWIDTH 6 0
BBX 3 6 2 4
BITMAP
40
80
C0
A0
A0
A0
ENDCHAR
STARTCHAR uni02B2
ENCODING 690
SWIDTH 500 0
DWIDTH 6 0
BBX 2 6 2 3
BITMAP
40
00
C0
40
40
80
ENDCHAR
STARTCHAR uni02B3
ENCODING 691
SWIDTH 500 0
DWIDTH 6 0
BBX 3 5 2 4
BITMAP
60
80
80
80
80
ENDCHAR
STARTCHAR uni02B4
ENCODING 692
SWIDTH 500 0
DWIDTH 6 0
BBX 3 5 2 4
BITMAP
20
20
20
20
C0
ENDCHAR
STARTCHAR uni02B5
ENCODING 693
SWIDTH 500 0
DWIDTH 6 0
BBX 4 6 1 3
BITMAP
20
20
20
E0
20
10
ENDCHAR
STARTCHAR uni02B6
ENCODING 694
SWIDTH 500 0
DWIDTH 6 0
BBX 4 5 1 4
BITMAP
90
A0
E0
90
E0
ENDCHAR
STARTCHAR uni02B7
ENCODING 695
SWIDTH 500 0
DWIDTH 6 0
BBX 4 5 1 4
BITMAP
90
90
D0
D0
60
ENDCHAR
STARTCHAR uni02B8
ENCODING 696
SWIDTH 500 0
DWIDTH 6 0
BBX 3 5 2 3
BITMAP
A0
A0
60
20
C0
ENDCHAR
STARTCHAR uni02B9
ENCODING 697
SWIDTH 500 0
DWIDTH 6 0
BBX 2 3 3 7
BITMAP
40
80
80
ENDCHAR
STARTCHAR uni02BA
ENCODING 698
SWIDTH 500 0
DWIDTH 6 0
BBX 4 3 2 7
BITMAP
50
A0
A0
ENDCHAR
STARTCHAR uni02BB
ENCODING 699
SWIDTH 500 0
DWIDTH 6 0
BBX 2 3 3 7
BITMAP
40
80
C0
ENDCHAR
STARTCHAR afii57929
ENCODING 700
SWIDTH 500 0
DWIDTH 6 0
BBX 2 3 2 7
BITMAP
C0
40
80
ENDCHAR
STARTCHAR afii64937
ENCODING 701
SWIDTH 500 0
DWIDTH 6 0
BBX 2 3 3 7
BITMAP
C0
80
40
ENDCHAR
STARTCHAR uni02BE
ENCODING 702
SWIDTH 500 0
DWIDTH 6 0
BBX 2 4 3 6
BITMAP
80
40
40
80
ENDCHAR
STARTCHAR uni02BF
ENCODING 703
SWIDTH 500 0
DWIDTH 6 0
BBX 2 4 3 6
BITMAP
40
80
80
40
ENDCHAR
STARTCHAR uni02C0
ENCODING 704
SWIDTH 500 0
DWIDTH 6 0
BBX 3 5 2 4
BITMAP
C0
20
20
40
40
ENDCHAR
STARTCHAR uni02C1
ENCODING 705
SWIDTH 500 0
DWIDTH 6 0
BBX 3 5 2 4
BITMAP
60
80
80
40
40
ENDCHAR
STARTCHAR uni02C2
ENCODING 706
SWIDTH 500 0
DWIDTH 6 0
BBX 3 5 2 4
BITMAP
20
40
80
40
20
ENDCHAR
STARTCHAR uni02C3
ENCODING 707
SWIDTH 500 0
DWIDTH 6 0
BBX 3 5 2 4
BITMAP
80
40
20
40
80
ENDCHAR
STARTCHAR uni02C4
ENCODING 708
SWIDTH 500 0
DWIDTH 6 0
BBX 5 3 1 5
BITMAP
20
50
88
ENDCHAR
STARTCHAR uni02C5
ENCODING 709
SWIDTH 500 0
DWIDTH 6 0
BBX 5 3 1 5
BITMAP
88
50
20
ENDCHAR
STARTCHAR circumflex
ENCODING 710
SWIDTH 500 0
DWIDTH 6 0
BBX 3 2 2 7
BITMAP
40
A0
ENDCHAR
STARTCHAR caron
ENCODING 711
SWIDTH 500 0
DWIDTH 6 0
BBX 3 2 2 7
BITMAP
A0
40
ENDCHAR
STARTCHAR uni02C8
ENCODING 712
SWIDTH 500 0
DWIDTH 6 0
BBX 1 2 3 7
BITMAP
80
80
ENDCHAR
STARTCHAR uni02C9
ENCODING 713
SWIDTH 500 0
DWIDTH 6 0
BBX 3 1 2 7
BITMAP
E0
ENDCHAR
STARTCHAR uni02CA
ENCODING 714
SWIDTH 500 0
DWIDTH 6 0
BBX 2 2 3 7
BITMAP
40
80
ENDCHAR
STARTCHAR uni02CB
ENCODING 715
SWIDTH 500 0
DWIDTH 6 0
BBX 2 2 2 7
BITMAP
80
40
ENDCHAR
STARTCHAR uni02CC
ENCODING 716
SWIDTH 500 0
DWIDTH 6 0
BBX 1 3 3 -1
BITMAP
80
80
80
ENDCHAR
STARTCHAR uni02CD
ENCODING 717
SWIDTH 500 0
DWIDTH 6 0
BBX 3 1 2 -1
BITMAP
E0
ENDCHAR
STARTCHAR uni02CE
ENCODING 718
SWIDTH 500 0
DWIDTH 6 0
BBX 2 2 2 0
BITMAP
80
40
ENDCHAR
STARTCHAR uni02CF
ENCODING 719
SWIDTH 500 0
DWIDTH 6 0
BBX 2 2 3 0
BITMAP
40
80
ENDCHAR
STARTCHAR uni02D0
ENCODING 720
SWIDTH 500 0
DWIDTH 6 0
BBX 3 8 2 0
BITMAP
E0
E0
40
00
00
40
E0
E0
ENDCHAR
STARTCHAR uni02D1
ENCODING 721
SWIDTH 500 0
DWIDTH 6 0
BBX 3 3 2 5
BITMAP
E0
E0
40
ENDCHAR
STARTCHAR uni02D2
ENCODING 722
SWIDTH 500 0
DWIDTH 6 0
BBX 2 5 2 1
BITMAP
80
40
40
40
80
ENDCHAR
STARTCHAR uni02D3
ENCODING 723
SWIDTH 500 0
DWIDTH 6 0
BBX 2 5 2 1
BITMAP
40
80
80
80
40
ENDCHAR
STARTCHAR uni02D4
ENCODING 724
SWIDTH 500 0
DWIDTH 6 0
BBX 3 2 2 1
BITMAP
40
E0
ENDCHAR
STARTCHAR uni02D5
ENCODING 725
SWIDTH 500 0
DWIDTH 6 0
BBX 3 2 2 1
BITMAP
E0
40
ENDCHAR
STARTCHAR uni02D6
ENCODING 726
SWIDTH 500 0
DWIDTH 6 0
BBX 3 3 2 1
BITMAP
40
E0
40
ENDCHAR
STARTCHAR uni02D7
ENCODING 727
SWIDTH 500 0
DWIDTH 6 0
BBX 3 1 2 2
BITMAP
E0
ENDCHAR
STARTCHAR breve
ENCODING 728
SWIDTH 500 0
DWIDTH 6 0
BBX 3 2 2 7
BITMAP
A0
E0
ENDCHAR
STARTCHAR dotaccent
ENCODING 729
SWIDTH 500 0
DWIDTH 6 0
BBX 1 1 3 7
BITMAP
80
ENDCHAR
STARTCHAR ring
ENCODING 730
SWIDTH 500 0
DWIDTH 6 0
BBX 3 3 2 7
BITMAP
40
A0
40
ENDCHAR
STARTCHAR ogonek
ENCODING 731
SWIDTH 500 0
DWIDTH 6 0
BBX 2 2 3 -2
BITMAP
80
C0
ENDCHAR
STARTCHAR tilde
ENCODING 732
SWIDTH 500 0
DWIDTH 6 0
BBX 5 2 1 6
BITMAP
68
B0
ENDCHAR
STARTCHAR hungarumlaut
ENCODING 733
SWIDTH 500 0
DWIDTH 6 0
BBX 5 2 2 7
BITMAP
48
90
ENDCHAR
STARTCHAR uni02DE
ENCODING 734
SWIDTH 500 0
DWIDTH 6 0
BBX 4 3 0 1
BITMAP
C0
50
20
ENDCHAR
STARTCHAR uni02DF
ENCODING 735
SWIDTH 500 0
DWIDTH 6 0
BBX 3 3 2 7
BITMAP
A0
40
A0
ENDCHAR
STARTCHAR uni02E0
ENCODING 736
SWIDTH 500 0
DWIDTH 6 0
BBX 3 5 2 4
BITMAP
A0
A0
40
A0
40
ENDCHAR
STARTCHAR uni02E1
ENCODING 737
SWIDTH 500 0
DWIDTH 6 0
BBX 3 5 2 4
BITMAP
C0
40
40
40
60
ENDCHAR
STARTCHAR uni02E2
ENCODING 738
SWIDTH 500 0
DWIDTH 6 0
BBX 3 5 2 4
BITMAP
60
80
E0
20
C0
ENDCHAR
STARTCHAR uni02E3
ENCODING 739
SWIDTH 500 0
DWIDTH 6 0
BBX 3 5 2 4
BITMAP
A0
A0
40
A0
A0
ENDCHAR
STARTCHAR uni02E4
ENCODING 740
SWIDTH 500 0
DWIDTH 6 0
BBX 3 5 2 4
BITMAP
60
80
80
40
40
ENDCHAR
STARTCHAR uni02E5
ENCODING 741
SWIDTH 500 0
DWIDTH 6 0
BBX 3 9 2 0
BITMAP
E0
20
20
20
20
20
20
20
20
ENDCHAR
STARTCHAR uni02E6
ENCODING 742
SWIDTH 500 0
DWIDTH 6 0
BBX 3 9 2 0
BITMAP
20
20
E0
20
20
20
20
20
20
ENDCHAR
STARTCHAR uni02E7
ENCODING 743
SWIDTH 500 0
DWIDTH 6 0
BBX 3 9 2 0
BITMAP
20
20
20
20
E0
20
20
20
20
ENDCHAR
STARTCHAR uni02E8
ENCODING 744
SWIDTH 500 0
DWIDTH 6 0
BBX 3 9 2 0
BITMAP
20
20
20
20
20
20
E0
20
20
ENDCHAR
STARTCHAR uni02E9
ENCODING 745
SWIDTH 500 0
DWIDTH 6 0
BBX 3 9 2 0
BITMAP
20
20
20
20
20
20
20
20
E0
ENDCHAR
STARTCHAR uni02EA
ENCODING 746
SWIDTH 500 0
DWIDTH 6 0
BBX 3 5 2 0
BITMAP
80
80
80
80
E0
ENDCHAR
STARTCHAR uni02EB
ENCODING 747
SWIDTH 500 0
DWIDTH 6 0
BBX 3 5 2 0
BITMAP
80
80
E0
80
80
ENDCHAR
STARTCHAR uni02EC
ENCODING 748
SWIDTH 500 0
DWIDTH 6 0
BBX 3 3 2 -2
BITMAP
A0
A0
40
ENDCHAR
STARTCHAR uni02ED
ENCODING 749
SWIDTH 500 0
DWIDTH 6 0
BBX 3 3 2 5
BITMAP
E0
00
E0
ENDCHAR
STARTCHAR uni02EE
ENCODING 750
SWIDTH 500 0
DWIDTH 6 0
BBX 5 3 1 7
BITMAP
D8
48
90
ENDCHAR
STARTCHAR uni02EF
ENCODING 751
SWIDTH 500 0
DWIDTH 6 0
BBX 5 3 1 -1
BITMAP
88
50
20
ENDCHAR
STARTCHAR uni02F0
ENCODING 752
SWIDTH 500 0
DWIDTH 6 0
BBX 5 3 1 -1
BITMAP
20
50
88
ENDCHAR
STARTCHAR uni02F1
ENCODING 753
SWIDTH 500 0
DWIDTH 6 0
BBX 3 5 2 -2
BITMAP
20
40
80
40
20
ENDCHAR
STARTCHAR uni02F2
ENCODING 754
SWIDTH 500 0
DWIDTH 6 0
BBX 3 5 2 -2
BITMAP
80
40
20
40
80
ENDCHAR
STARTCHAR uni02F3
ENCODING 755
SWIDTH 500 0
DWIDTH 6 0
BBX 3 3 2 -3
BITMAP
40
A0
40
ENDCHAR
STARTCHAR uni02F4
ENCODING 756
SWIDTH 500 0
DWIDTH 6 0
BBX 2 2 2 5
BITMAP
80
40
ENDCHAR
STARTCHAR uni02F5
ENCODING 757
SWIDTH 500 0
DWIDTH 6 0
BBX 5 2 1 5
BITMAP
90
48
ENDCHAR
STARTCHAR uni02F6
ENCODING 758
SWIDTH 500 0
DWIDTH 6 0
BBX 5 2 1 5
BITMAP
48
90
ENDCHAR
STARTCHAR uni02F7
ENCODING 759
SWIDTH 500 0
DWIDTH 6 0
BBX 5 2 1 -2
BITMAP
68
B0
ENDCHAR
STARTCHAR uni02F8
ENCODING 760
SWIDTH 500 0
DWIDTH 6 0
BBX 1 3 3 6
BITMAP
80
00
80
ENDCHAR
STARTCHAR uni02F9
ENCODING 761
SWIDTH 500 0
DWIDTH 6 0
BBX 3 3 1 6
BITMAP
E0
80
80
ENDCHAR
STARTCHAR uni02FA
ENCODING 762
SWIDTH 500 0
DWIDTH 6 0
BBX 3 3 3 6
BITMAP
E0
20
20
ENDCHAR
STARTCHAR uni02FB
ENCODING 763
SWIDTH 500 0
DWIDTH 6 0
BBX 3 3 1 -1
BITMAP
80
80
E0
ENDCHAR
STARTCHAR uni02FC
ENCODING 764
SWIDTH 500 0
DWIDTH 6 0
BBX 3 3 3 -1
BITMAP
20
20
E0
ENDCHAR
STARTCHAR uni02FD
ENCODING 765
SWIDTH 500 0
DWIDTH 6 0
BBX 5 2 1 -2
BITMAP
88
F8
ENDCHAR
STARTCHAR uni02FE
ENCODING 766
SWIDTH 500 0
DWIDTH 6 0
BBX 5 2 1 -2
BITMAP
80
F8
ENDCHAR
STARTCHAR uni02FF
ENCODING 767
SWIDTH 500 0
DWIDTH 6 0
BBX 5 3 1 -3
BITMAP
40
F8
40
ENDCHAR
STARTCHAR gravecomb
ENCODING 768
SWIDTH 500 0
DWIDTH 6 0
BBX 2 2 2 7
BITMAP
80
40
ENDCHAR
STARTCHAR acutecomb
ENCODING 769
SWIDTH 500 0
DWIDTH 6 0
BBX 2 2 3 7
BITMAP
40
80
ENDCHAR
STARTCHAR uni0302
ENCODING 770
SWIDTH 500 0
DWIDTH 6 0
BBX 3 2 2 7
BITMAP
40
A0
ENDCHAR
STARTCHAR tildecomb
ENCODING 771
SWIDTH 500 0
DWIDTH 6 0
BBX 5 2 1 7
BITMAP
68
B0
ENDCHAR
STARTCHAR uni0304
ENCODING 772
SWIDTH 500 0
DWIDTH 6 0
BBX 3 1 2 7
BITMAP
E0
ENDCHAR
STARTCHAR uni0305
ENCODING 773
SWIDTH 500 0
DWIDTH 6 0
BBX 5 1 1 7
BITMAP
F8
ENDCHAR
STARTCHAR uni0306
ENCODING 774
SWIDTH 500 0
DWIDTH 6 0
BBX 3 2 2 7
BITMAP
A0
E0
ENDCHAR
STARTCHAR uni0307
ENCODING 775
SWIDTH 500 0
DWIDTH 6 0
BBX 1 1 3 7
BITMAP
80
ENDCHAR
STARTCHAR uni0308
ENCODING 776
SWIDTH 500 0
DWIDTH 6 0
BBX 3 1 2 7
BITMAP
A0
ENDCHAR
STARTCHAR hookabovecomb
ENCODING 777
SWIDTH 500 0
DWIDTH 6 0
BBX 3 3 2 7
BITMAP
E0
20
40
ENDCHAR
STARTCHAR uni030A
ENCODING 778
SWIDTH 500 0
DWIDTH 6 0
BBX 3 3 2 7
BITMAP
40
A0
40
ENDCHAR
STARTCHAR uni030B
ENCODING 779
SWIDTH 500 0
DWIDTH 6 0
BBX 5 2 2 7
BITMAP
48
90
ENDCHAR
STARTCHAR uni030C
ENCODING 780
SWIDTH 500 0
DWIDTH 6 0
BBX 3 2 2 7
BITMAP
A0
40
ENDCHAR
STARTCHAR uni030D
ENCODING 781
SWIDTH 500 0
DWIDTH 6 0
BBX 1 2 3 7
BITMAP
80
80
ENDCHAR
STARTCHAR uni030E
ENCODING 782
SWIDTH 500 0
DWIDTH 6 0
BBX 3 2 2 7
BITMAP
A0
A0
ENDCHAR
STARTCHAR uni030F
ENCODING 783
SWIDTH 500 0
DWIDTH 6 0
BBX 5 2 1 7
BITMAP
90
48
ENDCHAR
STARTCHAR uni0310
ENCODING 784
SWIDTH 500 0
DWIDTH 6 0
BBX 5 3 1 7
BITMAP
20
88
70
ENDCHAR
STARTCHAR uni0311
ENCODING 785
SWIDTH 500 0
DWIDTH 6 0
BBX 3 2 2 7
BITMAP
E0
A0
ENDCHAR
STARTCHAR uni0312
ENCODING 786
SWIDTH 500 0
DWIDTH 6 0
BBX 2 3 3 7
BITMAP
40
80
C0
ENDCHAR
STARTCHAR uni0313
ENCODING 787
SWIDTH 500 0
DWIDTH 6 0
BBX 2 3 2 7
BITMAP
C0
40
80
ENDCHAR
STARTCHAR uni0314
ENCODING 788
SWIDTH 500 0
DWIDTH 6 0
BBX 2 3 3 7
BITMAP
C0
80
40
ENDCHAR
STARTCHAR uni0315
ENCODING 789
SWIDTH 500 0
DWIDTH 6 0
BBX 2 3 5 7
BITMAP
C0
40
80
ENDCHAR
STARTCHAR uni0316
ENCODING 790
SWIDTH 500 0
DWIDTH 6 0
BBX 2 2 3 -3
BITMAP
80
40
ENDCHAR
STARTCHAR uni0317
ENCODING 791
SWIDTH 500 0
DWIDTH 6 0
BBX 2 2 2 -3
BITMAP
40
80
ENDCHAR
STARTCHAR uni0318
ENCODING 792
SWIDTH 500 0
DWIDTH 6 0
BBX 2 3 2 -3
BITMAP
40
C0
40
ENDCHAR
STARTCHAR uni0319
ENCODING 793
SWIDTH 500 0
DWIDTH 6 0
BBX 2 3 3 -3
BITMAP
80
C0
80
ENDCHAR
STARTCHAR uni031A
ENCODING 794
SWIDTH 500 0
DWIDTH 6 0
BBX 3 2 2 7
BITMAP
E0
20
ENDCHAR
STARTCHAR uni031B
ENCODING 795
SWIDTH 500 0
DWIDTH 6 0
BBX 3 3 4 6
BITMAP
20
20
C0
ENDCHAR
STARTCHAR uni031C
ENCODING 796
SWIDTH 500 0
DWIDTH 6 0
BBX 2 3 2 -3
BITMAP
40
80
40
ENDCHAR
STARTCHAR uni031D
ENCODING 797
SWIDTH 500 0
DWIDTH 6 0
BBX 3 2 2 -3
BITMAP
40
E0
ENDCHAR
STARTCHAR uni031E
ENCODING 798
SWIDTH 500 0
DWIDTH 6 0
BBX 3 2 2 -3
BITMAP
E0
40
ENDCHAR
STARTCHAR uni031F
ENCODING 799
SWIDTH 500 0
DWIDTH 6 0
BBX 3 3 2 -3
BITMAP
40
E0
40
ENDCHAR
STARTCHAR uni0320
ENCODING 800
SWIDTH 500 0
DWIDTH 6 0
BBX 3 1 2 -2
BITMAP
E0
ENDCHAR
STARTCHAR uni0321
ENCODING 801
SWIDTH 500 0
DWIDTH 6 0
BBX 2 3 0 -3
BITMAP
40
40
80
ENDCHAR
STARTCHAR uni0322
ENCODING 802
SWIDTH 500 0
DWIDTH 6 0
BBX 2 3 1 -3
BITMAP
80
80
40
ENDCHAR
STARTCHAR dotbelowcomb
ENCODING 803
SWIDTH 500 0
DWIDTH 6 0
BBX 1 1 3 -2
BITMAP
80
ENDCHAR
STARTCHAR uni0324
ENCODING 804
SWIDTH 500 0
DWIDTH 6 0
BBX 3 1 2 -2
BITMAP
A0
ENDCHAR
STARTCHAR uni0325
ENCODING 805
SWIDTH 500 0
DWIDTH 6 0
BBX 3 3 2 -3
BITMAP
40
A0
40
ENDCHAR
STARTCHAR uni0326
ENCODING 806
SWIDTH 500 0
DWIDTH 6 0
BBX 2 3 3 -3
BITMAP
C0
40
80
ENDCHAR
STARTCHAR uni0327
ENCODING 807
SWIDTH 500 0
DWIDTH 6 0
BBX 3 3 2 -3
BITMAP
40
20
C0
ENDCHAR
STARTCHAR uni0328
ENCODING 808
SWIDTH 500 0
DWIDTH 6 0
BBX 2 2 3 -2
BITMAP
80
C0
ENDCHAR
STARTCHAR uni0329
ENCODING 809
SWIDTH 500 0
DWIDTH 6 0
BBX 1 3 3 -3
BITMAP
80
80
80
ENDCHAR
STARTCHAR uni032A
ENCODING 810
SWIDTH 500 0
DWIDTH 6 0
BBX 5 2 1 -3
BITMAP
F8
88
ENDCHAR
STARTCHAR uni032B
ENCODING 811
SWIDTH 500 0
DWIDTH 6 0
BBX 5 2 1 -3
BITMAP
A8
50
ENDCHAR
STARTCHAR uni032C
ENCODING 812
SWIDTH 500 0
DWIDTH 6 0
BBX 3 2 2 -3
BITMAP
A0
40
ENDCHAR
STARTCHAR uni032D
ENCODING 813
SWIDTH 500 0
DWIDTH 6 0
BBX 3 2 2 -3
BITMAP
40
A0
ENDCHAR
STARTCHAR uni032E
ENCODING 814
SWIDTH 500 0
DWIDTH 6 0
BBX 3 2 2 -3
BITMAP
A0
E0
ENDCHAR
STARTCHAR uni032F
ENCODING 815
SWIDTH 500 0
DWIDTH 6 0
BBX 3 2 2 -3
BITMAP
E0
A0
ENDCHAR
STARTCHAR uni0330
ENCODING 816
SWIDTH 500 0
DWIDTH 6 0
BBX 5 2 1 -3
BITMAP
68
B0
ENDCHAR
STARTCHAR uni0331
ENCODING 817
SWIDTH 500 0
DWIDTH 6 0
BBX 3 1 2 -2
BITMAP
E0
ENDCHAR
STARTCHAR uni0332
ENCODING 818
SWIDTH 500 0
DWIDTH 6 0
BBX 5 1 1 -2
BITMAP
F8
ENDCHAR
STARTCHAR uni0333
ENCODING 819
SWIDTH 500 0
DWIDTH 6 0
BBX 5 3 1 -3
BITMAP
F8
00
F8
ENDCHAR
STARTCHAR uni0334
ENCODING 820
SWIDTH 500 0
DWIDTH 6 0
BBX 6 2 0 2
BITMAP
64
98
ENDCHAR
STARTCHAR uni0335
ENCODING 821
SWIDTH 500 0
DWIDTH 6 0
BBX 5 1 1 3
BITMAP
F8
ENDCHAR
STARTCHAR uni0336
ENCODING 822
SWIDTH 500 0
DWIDTH 6 0
BBX 7 1 0 3
BITMAP
FE
ENDCHAR
STARTCHAR uni0337
ENCODING 823
SWIDTH 500 0
DWIDTH 6 0
BBX 5 5 1 1
BITMAP
08
10
20
40
80
ENDCHAR
STARTCHAR uni0338
ENCODING 824
SWIDTH 500 0
DWIDTH 6 0
BBX 3 10 2 -1
BITMAP
20
20
20
40
40
40
40
80
80
80
ENDCHAR
STARTCHAR uni0339
ENCODING 825
SWIDTH 500 0
DWIDTH 6 0
BBX 2 3 2 -3
BITMAP
80
40
80
ENDCHAR
STARTCHAR uni033A
ENCODING 826
SWIDTH 500 0
DWIDTH 6 0
BBX 5 2 1 -3
BITMAP
88
F8
ENDCHAR
STARTCHAR uni033B
ENCODING 827
SWIDTH 500 0
DWIDTH 6 0
BBX 3 3 2 -3
BITMAP
E0
A0
E0
ENDCHAR
STARTCHAR uni033C
ENCODING 828
SWIDTH 500 0
DWIDTH 6 0
BBX 2 3 3 -3
BITMAP
80
40
80
ENDCHAR
STARTCHAR uni033D
ENCODING 829
SWIDTH 500 0
DWIDTH 6 0
BBX 3 3 2 7
BITMAP
A0
40
A0
ENDCHAR
STARTCHAR uni033E
ENCODING 830
SWIDTH 500 0
DWIDTH 6 0
BBX 3 3 2 7
BITMAP
60
40
C0
ENDCHAR
STARTCHAR uni033F
ENCODING 831
SWIDTH 500 0
DWIDTH 6 0
BBX 5 3 1 7
BITMAP
F8
00
F8
ENDCHAR
STARTCHAR uni0340
ENCODING 832
SWIDTH 500 0
DWIDTH 6 0
BBX 2 2 2 7
BITMAP
80
40
ENDCHAR
STARTCHAR uni0341
ENCODING 833
SWIDTH 500 0
DWIDTH 6 0
BBX 2 2 3 7
BITMAP
40
80
ENDCHAR
STARTCHAR uni0342
ENCODING 834
SWIDTH 500 0
DWIDTH 6 0
BBX 5 2 1 7
BITMAP
68
B0
ENDCHAR
STARTCHAR uni0343
ENCODING 835
SWIDTH 500 0
DWIDTH 6 0
BBX 2 3 2 7
BITMAP
C0
40
80
ENDCHAR
STARTCHAR uni0344
ENCODING 836
SWIDTH 500 0
DWIDTH 6 0
BBX 3 4 2 6
BITMAP
20
40
00
A0
ENDCHAR
STARTCHAR uni0345
ENCODING 837
SWIDTH 500 0
DWIDTH 6 0
BBX 2 3 3 -3
BITMAP
80
80
40
ENDCHAR
STARTCHAR uni0346
ENCODING 838
SWIDTH 500 0
DWIDTH 6 0
BBX 5 2 1 7
BITMAP
F8
88
ENDCHAR
STARTCHAR uni0347
ENCODING 839
SWIDTH 500 0
DWIDTH 6 0
BBX 3 3 2 -3
BITMAP
E0
00
E0
ENDCHAR
STARTCHAR uni0348
ENCODING 840
SWIDTH 500 0
DWIDTH 6 0
BBX 3 3 2 -3
BITMAP
A0
A0
A0
ENDCHAR
STARTCHAR uni0349
ENCODING 841
SWIDTH 500 0
DWIDTH 6 0
BBX 3 2 2 -3
BITMAP
E0
20
ENDCHAR
STARTCHAR uni034A
ENCODING 842
SWIDTH 500 0
DWIDTH 6 0
BBX 5 4 1 6
BITMAP
20
68
B0
20
ENDCHAR
STARTCHAR uni034B
ENCODING 843
SWIDTH 500 0
DWIDTH 6 0
BBX 5 4 1 6
BITMAP
20
68
B0
20
ENDCHAR
STARTCHAR uni034C
ENCODING 844
SWIDTH 500 0
DWIDTH 6 0
BBX 5 4 1 6
BITMAP
48
B0
48
B0
ENDCHAR
STARTCHAR uni034D
ENCODING 845
SWIDTH 500 0
DWIDTH 6 0
BBX 5 3 1 -3
BITMAP
50
F8
50
ENDCHAR
STARTCHAR uni034E
ENCODING 846
SWIDTH 500 0
DWIDTH 6 0
BBX 3 4 2 -4
BITMAP
40
E0
40
40
ENDCHAR
STARTCHAR uni034F
ENCODING 847
SWIDTH 500 0
DWIDTH 0 0
BBX 1 1 5 -3
BITMAP
00
ENDCHAR
STARTCHAR uni0350
ENCODING 848
SWIDTH 500 0
DWIDTH 6 0
BBX 2 3 2 7
BITMAP
80
40
80
ENDCHAR
STARTCHAR uni0351
ENCODING 849
SWIDTH 500 0
DWIDTH 6 0
BBX 2 3 2 7
BITMAP
40
80
40
ENDCHAR
STARTCHAR uni0352
ENCODING 850
SWIDTH 500 0
DWIDTH 6 0
BBX 5 3 1 7
BITMAP
70
88
20
ENDCHAR
STARTCHAR uni0353
ENCODING 851
SWIDTH 500 0
DWIDTH 6 0
BBX 3 3 2 -3
BITMAP
A0
40
A0
ENDCHAR
STARTCHAR uni0354
ENCODING 852
SWIDTH 500 0
DWIDTH 6 0
BBX 2 3 2 -3
BITMAP
40
80
40
ENDCHAR
STARTCHAR uni0355
ENCODING 853
SWIDTH 500 0
DWIDTH 6 0
BBX 2 3 3 -3
BITMAP
80
40
80
ENDCHAR
STARTCHAR uni0356
ENCODING 854
SWIDTH 500 0
DWIDTH 6 0
BBX 5 3 1 -3
BITMAP
90
68
A8
ENDCHAR
STARTCHAR uni0357
ENCODING 855
SWIDTH 500 0
DWIDTH 6 0
BBX 2 3 3 7
BITMAP
80
40
80
ENDCHAR
STARTCHAR uni0358
ENCODING 856
SWIDTH 500 0
DWIDTH 6 0
BBX 1 1 5 8
BITMAP
80
ENDCHAR
STARTCHAR uni0359
ENCODING 857
SWIDTH 500 0
DWIDTH 6 0
BBX 3 3 2 -3
BITMAP
40
E0
A0
ENDCHAR
STARTCHAR uni035A
ENCODING 858
SWIDTH 500 0
DWIDTH 6 0
BBX 5 3 1 -3
BITMAP
50
A8
50
ENDCHAR
STARTCHAR uni035B
ENCODING 859
SWIDTH 500 0
DWIDTH 6 0
BBX 3 3 2 7
BITMAP
80
E0
20
ENDCHAR
STARTCHAR uni035C
ENCODING 860
SWIDTH 500 0
DWIDTH 6 0
BBX 9 2 2 -3
BITMAP
8080
7F00
ENDCHAR
STARTCHAR uni035D
ENCODING 861
SWIDTH 500 0
DWIDTH 6 0
BBX 9 2 2 8
BITMAP
8080
7F00
ENDCHAR
STARTCHAR uni035E
ENCODING 862
SWIDTH 500 0
DWIDTH 6 0
BBX 9 1 2 8
BITMAP
FF80
ENDCHAR
STARTCHAR uni035F
ENCODING 863
SWIDTH 500 0
DWIDTH 6 0
BBX 9 1 2 -3
BITMAP
FF80
ENDCHAR
STARTCHAR uni0360
ENCODING 864
SWIDTH 500 0
DWIDTH 6 0
BBX 9 2 2 8
BITMAP
7880
8700
ENDCHAR
STARTCHAR uni0361
ENCODING 865
SWIDTH 500 0
DWIDTH 6 0
BBX 9 2 2 8
BITMAP
7F00
8080
ENDCHAR
STARTCHAR uni0362
ENCODING 866
SWIDTH 500 0
DWIDTH 6 0
BBX 9 3 2 -3
BITMAP
0100
FF80
0100
ENDCHAR
STARTCHAR uni0363
ENCODING 867
SWIDTH 500 0
DWIDTH 6 0
BBX 3 3 2 7
BITMAP
40
A0
60
ENDCHAR
STARTCHAR uni0364
ENCODING 868
SWIDTH 500 0
DWIDTH 6 0
BBX 3 3 2 7
BITMAP
40
A0
C0
ENDCHAR
STARTCHAR uni0365
ENCODING 869
SWIDTH 500 0
DWIDTH 6 0
BBX 1 3 3 7
BITMAP
80
80
80
ENDCHAR
STARTCHAR uni0366
ENCODING 870
SWIDTH 500 0
DWIDTH 6 0
BBX 3 3 2 7
BITMAP
40
A0
40
ENDCHAR
STARTCHAR uni0367
ENCODING 871
SWIDTH 500 0
DWIDTH 6 0
BBX 3 3 2 7
BITMAP
A0
A0
40
ENDCHAR
STARTCHAR uni0368
ENCODING 872
SWIDTH 500 0
DWIDTH 6 0
BBX 3 3 2 7
BITMAP
60
80
60
ENDCHAR
STARTCHAR uni0369
ENCODING 873
SWIDTH 500 0
DWIDTH 6 0
BBX 3 3 2 7
BITMAP
20
A0
60
ENDCHAR
STARTCHAR uni036A
ENCODING 874
SWIDTH 500 0
DWIDTH 6 0
BBX 3 3 2 7
BITMAP
80
C0
A0
ENDCHAR
STARTCHAR uni036B
ENCODING 875
SWIDTH 500 0
DWIDTH 6 0
BBX 5 3 1 7
BITMAP
50
A8
A8
ENDCHAR
STARTCHAR uni036C
ENCODING 876
SWIDTH 500 0
DWIDTH 6 0
BBX 2 3 3 7
BITMAP
40
80
80
ENDCHAR
STARTCHAR uni036D
ENCODING 877
SWIDTH 500 0
DWIDTH 6 0
BBX 3 3 2 7
BITMAP
40
E0
40
ENDCHAR
STARTCHAR uni036E
ENCODING 878
SWIDTH 500 0
DWIDTH 6 0
BBX 3 3 2 7
BITMAP
A0
A0
40
ENDCHAR
STARTCHAR uni036F
ENCODING 879
SWIDTH 500 0
DWIDTH 6 0
BBX 3 3 2 7
BITMAP
A0
40
A0
ENDCHAR
STARTCHAR uni0370
ENCODING 880
SWIDTH 500 0
DWIDTH 6 0
BBX 4 8 2 0
BITMAP
E0
40
40
70
40
40
40
E0
ENDCHAR
STARTCHAR uni0371
ENCODING 881
SWIDTH 500 0
DWIDTH 6 0
BBX 4 6 2 0
BITMAP
C0
40
70
40
40
20
ENDCHAR
STARTCHAR uni0372
ENCODING 882
SWIDTH 500 0
DWIDTH 6 0
BBX 5 8 1 0
BITMAP
F8
A8
20
20
20
20
20
20
ENDCHAR
STARTCHAR uni0373
ENCODING 883
SWIDTH 500 0
DWIDTH 6 0
BBX 5 6 1 0
BITMAP
F8
A8
20
20
20
20
ENDCHAR
STARTCHAR uni0374
ENCODING 884
SWIDTH 500 0
DWIDTH 6 0
BBX 2 3 2 6
BITMAP
40
40
80
ENDCHAR
STARTCHAR uni0375
ENCODING 885
SWIDTH 500 0
DWIDTH 6 0
BBX 2 3 2 -1
BITMAP
40
40
80
ENDCHAR
STARTCHAR uni0376
ENCODING 886
SWIDTH 500 0
DWIDTH 6 0
BBX 5 8 1 0
BITMAP
88
98
98
A8
A8
C8
C8
88
ENDCHAR
STARTCHAR uni0377
ENCODING 887
SWIDTH 500 0
DWIDTH 6 0
BBX 5 6 1 0
BITMAP
98
98
A8
A8
C8
C8
ENDCHAR
STARTCHAR uni037A
ENCODING 890
SWIDTH 500 0
DWIDTH 6 0
BBX 2 3 3 -3
BITMAP
80
80
40
ENDCHAR
STARTCHAR uni037B
ENCODING 891
SWIDTH 1000 0
DWIDTH 6 0
BBX 5 6 1 0
BITMAP
70
88
08
08
88
70
ENDCHAR
STARTCHAR uni037C
ENCODING 892
SWIDTH 1000 0
DWIDTH 6 0
BBX 5 6 1 0
BITMAP
70
88
A0
A0
88
70
ENDCHAR
STARTCHAR uni037D
ENCODING 893
SWIDTH 1000 0
DWIDTH 6 0
BBX 5 6 1 0
BITMAP
70
88
28
28
88
70
ENDCHAR
STARTCHAR uni037E
ENCODING 894
SWIDTH 500 0
DWIDTH 6 0
BBX 2 8 2 -2
BITMAP
C0
C0
00
00
C0
C0
40
80
ENDCHAR
STARTCHAR uni037F
ENCODING 895
SWIDTH 1000 0
DWIDTH 6 0
BBX 5 8 1 0
BITMAP
38
08
08
08
08
88
88
70
ENDCHAR
STARTCHAR tonos
ENCODING 900
SWIDTH 500 0
DWIDTH 6 0
BBX 2 2 3 6
BITMAP
40
80
ENDCHAR
STARTCHAR dieresistonos
ENCODING 901
SWIDTH 500 0
DWIDTH 6 0
BBX 3 4 2 6
BITMAP
20
40
00
A0
ENDCHAR
STARTCHAR Alphatonos
ENCODING 902
SWIDTH 500 0
DWIDTH 6 0
BBX 6 8 0 0
BITMAP
50
90
28
28
38
44
44
44
ENDCHAR
STARTCHAR anoteleia
ENCODING 903
SWIDTH 500 0
DWIDTH 6 0
BBX 3 3 2 3
BITMAP
40
E0
40
ENDCHAR
STARTCHAR Epsilontonos
ENCODING 904
SWIDTH 500 0
DWIDTH 6 0
BBX 6 8 0 0
BITMAP
5C
90
10
18
10
10
10
1C
ENDCHAR
STARTCHAR Etatonos
ENCODING 905
SWIDTH 500 0
DWIDTH 6 0
BBX 6 9 0 0
BITMAP
40
A4
24
24
3C
24
24
24
24
ENDCHAR
STARTCHAR Iotatonos
ENCODING 906
SWIDTH 500 0
DWIDTH 6 0
BBX 5 9 0 0
BITMAP
40
B8
10
10
10
10
10
10
38
ENDCHAR
STARTCHAR Omicrontonos
ENCODING 908
SWIDTH 500 0
DWIDTH 6 0
BBX 6 8 0 0
BITMAP
58
A4
24
24
24
24
24
18
ENDCHAR
STARTCHAR Upsilontonos
ENCODING 910
SWIDTH 500 0
DWIDTH 6 0
BBX 6 8 0 0
BITMAP
54
94
14
14
08
08
08
08
ENDCHAR
STARTCHAR Omegatonos
ENCODING 911
SWIDTH 500 0
DWIDTH 6 0
BBX 6 8 0 0
BITMAP
40
B8
28
44
44
28
28
6C
ENDCHAR
STARTCHAR iotadieresistonos
ENCODING 912
SWIDTH 500 0
DWIDTH 6 0
BBX 3 10 2 0
BITMAP
20
40
00
A0
00
C0
40
40
40
20
ENDCHAR
STARTCHAR Alpha
ENCODING 913
SWIDTH 500 0
DWIDTH 6 0
BBX 5 8 1 0
BITMAP
20
20
50
50
70
88
88
88
ENDCHAR
STARTCHAR Beta
ENCODING 914
SWIDTH 500 0
DWIDTH 6 0
BBX 5 8 1 0
BITMAP
F0
88
88
F0
88
88
88
F0
ENDCHAR
STARTCHAR Gamma
ENCODING 915
SWIDTH 500 0
DWIDTH 6 0
BBX 5 8 1 0
BITMAP
F8
80
80
80
80
80
80
80
ENDCHAR
STARTCHAR uni0394
ENCODING 916
SWIDTH 500 0
DWIDTH 6 0
BBX 5 8 1 0
BITMAP
20
20
50
50
50
88
88
F8
ENDCHAR
STARTCHAR Epsilon
ENCODING 917
SWIDTH 500 0
DWIDTH 6 0
BBX 5 8 1 0
BITMAP
F8
80
80
F8
80
80
80
F8
ENDCHAR
STARTCHAR Zeta
ENCODING 918
SWIDTH 500 0
DWIDTH 6 0
BBX 5 8 1 0
BITMAP
F8
10
20
20
40
40
80
F8
ENDCHAR
STARTCHAR Eta
ENCODING 919
SWIDTH 500 0
DWIDTH 6 0
BBX 5 8 1 0
BITMAP
88
88
88
F8
88
88
88
88
ENDCHAR
STARTCHAR Theta
ENCODING 920
SWIDTH 500 0
DWIDTH 6 0
BBX 5 8 1 0
BITMAP
70
88
88
88
F8
88
88
70
ENDCHAR
STARTCHAR Iota
ENCODING 921
SWIDTH 500 0
DWIDTH 6 0
BBX 3 8 2 0
BITMAP
E0
40
40
40
40
40
40
E0
ENDCHAR
STARTCHAR Kappa
ENCODING 922
SWIDTH 500 0
DWIDTH 6 0
BBX 5 8 1 0
BITMAP
88
90
A0
C0
C0
A0
90
88
ENDCHAR
STARTCHAR Lambda
ENCODING 923
SWIDTH 500 0
DWIDTH 6 0
BBX 5 8 1 0
BITMAP
20
20
50
50
50
88
88
88
ENDCHAR
STARTCHAR Mu
ENCODING 924
SWIDTH 500 0
DWIDTH 6 0
BBX 5 8 1 0
BITMAP
88
88
D8
D8
A8
A8
88
88
ENDCHAR
STARTCHAR Nu
ENCODING 925
SWIDTH 500 0
DWIDTH 6 0
BBX 5 8 1 0
BITMAP
88
C8
C8
A8
A8
98
98
88
ENDCHAR
STARTCHAR Xi
ENCODING 926
SWIDTH 500 0
DWIDTH 6 0
BBX 5 8 1 0
BITMAP
F8
00
00
70
00
00
00
F8
ENDCHAR
STARTCHAR Omicron
ENCODING 927
SWIDTH 500 0
DWIDTH 6 0
BBX 5 8 1 0
BITMAP
70
88
88
88
88
88
88
70
ENDCHAR
STARTCHAR Pi
ENCODING 928
SWIDTH 500 0
DWIDTH 6 0
BBX 5 8 1 0
BITMAP
F8
88
88
88
88
88
88
88
ENDCHAR
STARTCHAR Rho
ENCODING 929
SWIDTH 500 0
DWIDTH 6 0
BBX 5 8 1 0
BITMAP
F0
88
88
88
F0
80
80
80
ENDCHAR
STARTCHAR Sigma
ENCODING 931
SWIDTH 500 0
DWIDTH 6 0
BBX 5 8 1 0
BITMAP
F8
88
40
20
20
40
88
F8
ENDCHAR
STARTCHAR Tau
ENCODING 932
SWIDTH 500 0
DWIDTH 6 0
BBX 5 8 1 0
BITMAP
F8
20
20
20
20
20
20
20
ENDCHAR
STARTCHAR Upsilon
ENCODING 933
SWIDTH 500 0
DWIDTH 6 0
BBX 5 8 1 0
BITMAP
88
88
88
50
20
20
20
20
ENDCHAR
STARTCHAR Phi
ENCODING 934
SWIDTH 500 0
DWIDTH 6 0
BBX 5 9 1 -1
BITMAP
20
20
70
A8
A8
A8
70
20
20
ENDCHAR
STARTCHAR Chi
ENCODING 935
SWIDTH 500 0
DWIDTH 6 0
BBX 5 8 1 0
BITMAP
88
88
50
20
20
50
88
88
ENDCHAR
STARTCHAR Psi
ENCODING 936
SWIDTH 500 0
DWIDTH 6 0
BBX 5 8 1 0
BITMAP
A8
A8
A8
A8
A8
70
20
20
ENDCHAR
STARTCHAR uni03A9
ENCODING 937
SWIDTH 500 0
DWIDTH 6 0
BBX 5 8 1 0
BITMAP
70
88
88
88
88
D8
50
D8
ENDCHAR
STARTCHAR Iotadieresis
ENCODING 938
SWIDTH 500 0
DWIDTH 6 0
BBX 3 9 2 0
BITMAP
A0
00
E0
40
40
40
40
40
E0
ENDCHAR
STARTCHAR Upsilondieresis
ENCODING 939
SWIDTH 500 0
DWIDTH 6 0
BBX 5 9 1 0
BITMAP
50
00
88
88
50
20
20
20
20
ENDCHAR
STARTCHAR alphatonos
ENCODING 940
SWIDTH 500 0
DWIDTH 6 0
BBX 5 9 1 0
BITMAP
10
20
00
68
98
90
90
90
68
ENDCHAR
STARTCHAR epsilontonos
ENCODING 941
SWIDTH 500 0
DWIDTH 6 0
BBX 5 9 1 0
BITMAP
10
20
00
70
88
60
80
88
70
ENDCHAR
STARTCHAR etatonos
ENCODING 942
SWIDTH 500 0
DWIDTH 6 0
BBX 5 11 1 -2
BITMAP
10
20
00
F0
88
88
88
88
88
08
08
ENDCHAR
STARTCHAR iotatonos
ENCODING 943
SWIDTH 500 0
DWIDTH 6 0
BBX 3 9 2 0
BITMAP
20
40
00
C0
40
40
40
40
20
ENDCHAR
STARTCHAR upsilondieresistonos
ENCODING 944
SWIDTH 500 0
DWIDTH 6 0
BBX 5 8 1 0
BITMAP
50
00
90
88
88
88
90
60
ENDCHAR
STARTCHAR alpha
ENCODING 945
SWIDTH 500 0
DWIDTH 6 0
BBX 5 6 1 0
BITMAP
68
98
90
90
90
68
ENDCHAR
STARTCHAR beta
ENCODING 946
SWIDTH 500 0
DWIDTH 6 0
BBX 5 11 1 -3
BITMAP
F0
88
88
B0
88
88
88
F0
80
80
80
ENDCHAR
STARTCHAR gamma
ENCODING 947
SWIDTH 500 0
DWIDTH 6 0
BBX 5 10 1 -3
BITMAP
08
08
70
90
30
30
50
50
50
20
ENDCHAR
STARTCHAR delta
ENCODING 948
SWIDTH 500 0
DWIDTH 6 0
BBX 5 7 1 0
BITMAP
F8
80
70
88
88
88
70
ENDCHAR
STARTCHAR epsilon
ENCODING 949
SWIDTH 500 0
DWIDTH 6 0
BBX 5 6 1 0
BITMAP
70
88
60
80
88
70
ENDCHAR
STARTCHAR zeta
ENCODING 950
SWIDTH 500 0
DWIDTH 6 0
BBX 5 9 1 -2
BITMAP
F8
30
40
80
80
80
78
08
10
ENDCHAR
STARTCHAR eta
ENCODING 951
SWIDTH 500 0
DWIDTH 6 0
BBX 5 8 1 -2
BITMAP
F0
88
88
88
88
88
08
08
ENDCHAR
STARTCHAR theta
ENCODING 952
SWIDTH 500 0
DWIDTH 6 0
BBX 5 6 1 0
BITMAP
70
88
88
F8
88
70
ENDCHAR
STARTCHAR iota
ENCODING 953
SWIDTH 500 0
DWIDTH 6 0
BBX 3 6 2 0
BITMAP
C0
40
40
40
40
20
ENDCHAR
STARTCHAR kappa
ENCODING 954
SWIDTH 500 0
DWIDTH 6 0
BBX 5 6 1 0
BITMAP
88
90
A0
E0
90
88
ENDCHAR
STARTCHAR lambda
ENCODING 955
SWIDTH 500 0
DWIDTH 6 0
BBX 5 8 1 0
BITMAP
C0
20
20
20
50
50
88
88
ENDCHAR
STARTCHAR uni03BC
ENCODING 956
SWIDTH 500 0
DWIDTH 6 0
BBX 5 9 1 -3
BITMAP
88
88
88
88
98
E8
80
80
80
ENDCHAR
STARTCHAR nu
ENCODING 957
SWIDTH 500 0
DWIDTH 6 0
BBX 5 6 1 0
BITMAP
B0
88
48
48
30
20
ENDCHAR
STARTCHAR xi
ENCODING 958
SWIDTH 500 0
DWIDTH 6 0
BBX 5 9 1 -2
BITMAP
F8
40
78
80
80
80
78
08
10
ENDCHAR
STARTCHAR omicron
ENCODING 959
SWIDTH 500 0
DWIDTH 6 0
BBX 5 6 1 0
BITMAP
70
88
88
88
88
70
ENDCHAR
STARTCHAR pi
ENCODING 960
SWIDTH 500 0
DWIDTH 6 0
BBX 5 6 1 0
BITMAP
F8
50
50
50
50
48
ENDCHAR
STARTCHAR rho
ENCODING 961
SWIDTH 500 0
DWIDTH 6 0
BBX 5 9 1 -3
BITMAP
70
88
88
88
C8
B0
80
80
80
ENDCHAR
STARTCHAR sigma1
ENCODING 962
SWIDTH 500 0
DWIDTH 6 0
BBX 5 9 1 -3
BITMAP
70
88
80
80
80
78
08
08
10
ENDCHAR
STARTCHAR sigma
ENCODING 963
SWIDTH 500 0
DWIDTH 6 0
BBX 5 6 1 0
BITMAP
78
90
88
88
88
70
ENDCHAR
STARTCHAR tau
ENCODING 964
SWIDTH 500 0
DWIDTH 6 0
BBX 5 6 1 0
BITMAP
F8
20
20
20
20
18
ENDCHAR
STARTCHAR upsilon
ENCODING 965
SWIDTH 500 0
DWIDTH 6 0
BBX 5 6 1 0
BITMAP
90
88
88
88
90
60
ENDCHAR
STARTCHAR phi
ENCODING 966
SWIDTH 500 0
DWIDTH 6 0
BBX 5 9 1 -3
BITMAP
30
A8
A8
A8
A8
70
20
20
20
ENDCHAR
STARTCHAR chi
ENCODING 967
SWIDTH 500 0
DWIDTH 6 0
BBX 5 8 1 -2
BITMAP
88
48
50
20
20
50
90
88
ENDCHAR
STARTCHAR psi
ENCODING 968
SWIDTH 500 0
DWIDTH 6 0
BBX 5 9 1 -3
BITMAP
A8
A8
A8
A8
A8
70
20
20
20
ENDCHAR
STARTCHAR omega
ENCODING 969
SWIDTH 500 0
DWIDTH 6 0
BBX 5 6 1 0
BITMAP
50
88
88
A8
A8
50
ENDCHAR
STARTCHAR iotadieresis
ENCODING 970
SWIDTH 500 0
DWIDTH 6 0
BBX 3 8 2 0
BITMAP
A0
00
C0
40
40
40
40
20
ENDCHAR
STARTCHAR upsilondieresis
ENCODING 971
SWIDTH 500 0
DWIDTH 6 0
BBX 5 10 1 0
BITMAP
10
20
00
50
00
90
88
88
90
60
ENDCHAR
STARTCHAR omicrontonos
ENCODING 972
SWIDTH 500 0
DWIDTH 6 0
BBX 5 9 1 0
BITMAP
10
20
00
70
88
88
88
88
70
ENDCHAR
STARTCHAR upsilontonos
ENCODING 973
SWIDTH 500 0
DWIDTH 6 0
BBX 5 9 1 0
BITMAP
10
20
00
90
88
88
88
90
60
ENDCHAR
STARTCHAR omegatonos
ENCODING 974
SWIDTH 500 0
DWIDTH 6 0
BBX 5 9 1 0
BITMAP
10
20
00
50
88
88
A8
A8
50
ENDCHAR
STARTCHAR uni03CF
ENCODING 975
SWIDTH 500 0
DWIDTH 6 0
BBX 5 10 1 -2
BITMAP
88
90
A0
C0
C0
A0
90
88
10
20
ENDCHAR
STARTCHAR uni03D0
ENCODING 976
SWIDTH 500 0
DWIDTH 6 0
BBX 5 8 1 0
BITMAP
70
88
F0
80
F0
88
88
70
ENDCHAR
STARTCHAR theta1
ENCODING 977
SWIDTH 500 0
DWIDTH 6 0
BBX 6 8 1 0
BITMAP
70
88
7C
08
C8
48
88
70
ENDCHAR
STARTCHAR Upsilon1
ENCODING 978
SWIDTH 500 0
DWIDTH 6 0
BBX 6 8 1 0
BITMAP
8C
88
88
50
20
20
20
20
ENDCHAR
STARTCHAR uni03D3
ENCODING 979
SWIDTH 500 0
DWIDTH 6 0
BBX 7 8 0 0
BITMAP
56
94
14
14
08
08
08
08
ENDCHAR
STARTCHAR uni03D4
ENCODING 980
SWIDTH 500 0
DWIDTH 6 0
BBX 6 9 1 0
BITMAP
50
00
8C
88
50
20
20
20
20
ENDCHAR
STARTCHAR phi1
ENCODING 981
SWIDTH 500 0
DWIDTH 6 0
BBX 5 10 1 -2
BITMAP
20
20
70
A8
A8
A8
A8
70
20
20
ENDCHAR
STARTCHAR omega1
ENCODING 982
SWIDTH 500 0
DWIDTH 6 0
BBX 5 6 1 0
BITMAP
F8
50
88
A8
A8
50
ENDCHAR
STARTCHAR uni03D7
ENCODING 983
SWIDTH 500 0
DWIDTH 6 0
BBX 5 8 1 -2
BITMAP
88
90
A0
E0
90
88
10
20
ENDCHAR
STARTCHAR uni03D8
ENCODING 984
SWIDTH 500 0
DWIDTH 6 0
BBX 5 10 1 -2
BITMAP
70
88
88
88
88
88
88
70
20
20
ENDCHAR
STARTCHAR uni03D9
ENCODING 985
SWIDTH 500 0
DWIDTH 6 0
BBX 5 8 1 -2
BITMAP
70
88
88
88
88
70
20
20
ENDCHAR
STARTCHAR uni03DA
ENCODING 986
SWIDTH 500 0
DWIDTH 6 0
BBX 5 12 1 -3
BITMAP
78
80
80
80
80
80
80
80
78
08
08
10
ENDCHAR
STARTCHAR uni03DB
ENCODING 987
SWIDTH 500 0
DWIDTH 6 0
BBX 5 9 1 -3
BITMAP
78
80
80
80
80
78
08
08
10
ENDCHAR
STARTCHAR uni03DC
ENCODING 988
SWIDTH 500 0
DWIDTH 6 0
BBX 5 8 1 0
BITMAP
F8
80
80
F0
80
80
80
80
ENDCHAR
STARTCHAR uni03DD
ENCODING 989
SWIDTH 500 0
DWIDTH 6 0
BBX 5 11 1 -3
BITMAP
18
20
20
20
38
20
20
20
20
20
C0
ENDCHAR
STARTCHAR uni03DE
ENCODING 990
SWIDTH 500 0
DWIDTH 6 0
BBX 5 8 1 0
BITMAP
20
40
80
F8
08
10
20
40
ENDCHAR
STARTCHAR uni03DF
ENCODING 991
SWIDTH 500 0
DWIDTH 6 0
BBX 5 9 1 0
BITMAP
10
20
40
80
F8
08
10
20
40
ENDCHAR
STARTCHAR uni03E0
ENCODING 992
SWIDTH 500 0
DWIDTH 6 0
BBX 5 8 1 0
BITMAP
70
88
38
48
38
48
08
70
ENDCHAR
STARTCHAR uni03E1
ENCODING 993
SWIDTH 500 0
DWIDTH 6 0
BBX 5 6 1 0
BITMAP
E0
30
48
98
28
48
ENDCHAR
STARTCHAR uni03E2
ENCODING 994
SWIDTH 500 0
DWIDTH 6 0
BBX 5 11 1 -3
BITMAP
88
88
88
A8
A8
A8
A8
58
08
70
80
ENDCHAR
STARTCHAR uni03E3
ENCODING 995
SWIDTH 500 0
DWIDTH 6 0
BBX 5 9 1 -3
BITMAP
88
88
A8
A8
A8
58
08
70
80
ENDCHAR
STARTCHAR uni03E4
ENCODING 996
SWIDTH 500 0
DWIDTH 6 0
BBX 5 8 1 0
BITMAP
48
88
88
88
78
08
08
08
ENDCHAR
STARTCHAR uni03E5
ENCODING 997
SWIDTH 500 0
DWIDTH 6 0
BBX 5 9 1 -3
BITMAP
48
88
88
88
88
78
08
08
08
ENDCHAR
STARTCHAR uni03E6
ENCODING 998
SWIDTH 500 0
DWIDTH 6 0
BBX 5 11 1 -3
BITMAP
80
80
F0
88
88
88
88
88
08
70
80
ENDCHAR
STARTCHAR uni03E7
ENCODING 999
SWIDTH 500 0
DWIDTH 6 0
BBX 5 6 1 0
BITMAP
70
98
68
08
C8
B0
ENDCHAR
STARTCHAR uni03E8
ENCODING 1000
SWIDTH 500 0
DWIDTH 6 0
BBX 5 8 1 0
BITMAP
70
88
08
70
80
80
88
70
ENDCHAR
STARTCHAR uni03E9
ENCODING 1001
SWIDTH 500 0
DWIDTH 6 0
BBX 5 6 1 0
BITMAP
F0
08
70
80
80
78
ENDCHAR
STARTCHAR uni03EA
ENCODING 1002
SWIDTH 500 0
DWIDTH 6 0
BBX 5 8 1 0
BITMAP
50
A8
A8
20
50
50
88
F8
ENDCHAR
STARTCHAR uni03EB
ENCODING 1003
SWIDTH 500 0
DWIDTH 6 0
BBX 5 6 1 0
BITMAP
50
A8
20
50
88
F8
ENDCHAR
STARTCHAR uni03EC
ENCODING 1004
SWIDTH 500 0
DWIDTH 6 0
BBX 5 8 1 0
BITMAP
78
80
90
88
88
88
88
70
ENDCHAR
STARTCHAR uni03ED
ENCODING 1005
SWIDTH 500 0
DWIDTH 6 0
BBX 5 6 1 0
BITMAP
78
80
90
88
88
70
ENDCHAR
STARTCHAR uni03EE
ENCODING 1006
SWIDTH 500 0
DWIDTH 6 0
BBX 5 8 1 0
BITMAP
20
20
70
A8
A8
20
20
20
ENDCHAR
STARTCHAR uni03EF
ENCODING 1007
SWIDTH 500 0
DWIDTH 6 0
BBX 5 6 1 0
BITMAP
20
20
70
A8
20
20
ENDCHAR
STARTCHAR uni03F0
ENCODING 1008
SWIDTH 500 0
DWIDTH 6 0
BBX 5 6 1 0
BITMAP
88
88
B0
D0
90
88
ENDCHAR
STARTCHAR uni03F1
ENCODING 1009
SWIDTH 500 0
DWIDTH 6 0
BBX 5 9 1 -3
BITMAP
70
88
88
88
C8
B0
80
70
08
ENDCHAR
STARTCHAR uni03F2
ENCODING 1010
SWIDTH 500 0
DWIDTH 6 0
BBX 5 6 1 0
BITMAP
70
88
80
80
88
70
ENDCHAR
STARTCHAR uni03F3
ENCODING 1011
SWIDTH 500 0
DWIDTH 6 0
BBX 3 8 2 -2
BITMAP
60
20
20
20
20
20
A0
40
ENDCHAR
STARTCHAR uni03F4
ENCODING 1012
SWIDTH 500 0
DWIDTH 6 0
BBX 5 8 1 0
BITMAP
70
88
88
88
F8
88
88
70
ENDCHAR
STARTCHAR uni03F5
ENCODING 1013
SWIDTH 500 0
DWIDTH 6 0
BBX 5 6 1 0
BITMAP
70
88
E0
80
88
70
ENDCHAR
STARTCHAR uni03F6
ENCODING 1014
SWIDTH 500 0
DWIDTH 6 0
BBX 5 6 1 0
BITMAP
70
88
38
08
88
70
ENDCHAR
STARTCHAR uni03F7
ENCODING 1015
SWIDTH 500 0
DWIDTH 6 0
BBX 5 8 1 0
BITMAP
80
80
F0
88
88
F0
80
80
ENDCHAR
STARTCHAR uni03F8
ENCODING 1016
SWIDTH 500 0
DWIDTH 6 0
BBX 5 10 1 -2
BITMAP
80
80
F0
88
88
88
88
F0
80
80
ENDCHAR
STARTCHAR uni03F9
ENCODING 1017
SWIDTH 500 0
DWIDTH 6 0
BBX 5 8 1 0
BITMAP
70
88
80
80
80
80
88
70
ENDCHAR
STARTCHAR uni03FA
ENCODING 1018
SWIDTH 500 0
DWIDTH 6 0
BBX 5 8 1 0
BITMAP
88
D8
A8
A8
88
88
88
88
ENDCHAR
STARTCHAR uni03FB
ENCODING 1019
SWIDTH 500 0
DWIDTH 6 0
BBX 5 9 1 -3
BITMAP
88
D8
A8
A8
88
88
80
80
80
ENDCHAR
STARTCHAR uni03FC
ENCODING 1020
SWIDTH 500 0
DWIDTH 6 0
BBX 5 9 1 -3
BITMAP
70
88
88
88
C8
B0
80
F0
80
ENDCHAR
STARTCHAR uni03FD
ENCODING 1021
SWIDTH 1000 0
DWIDTH 6 0
BBX 5 8 1 0
BITMAP
70
88
08
08
08
08
88
70
ENDCHAR
STARTCHAR uni03FE
ENCODING 1022
SWIDTH 500 0
DWIDTH 6 0
BBX 5 8 1 0
BITMAP
70
88
80
A0
A0
80
88
70
ENDCHAR
STARTCHAR uni03FF
ENCODING 1023
SWIDTH 500 0
DWIDTH 6 0
BBX 5 8 1 0
BITMAP
70
88
08
28
28
08
88
70
ENDCHAR
STARTCHAR uni0400
ENCODING 1024
SWIDTH 500 0
DWIDTH 6 0
BBX 5 10 1 0
BITMAP
40
20
00
F8
80
80
F0
80
80
F8
ENDCHAR
STARTCHAR afii10023
ENCODING 1025
SWIDTH 500 0
DWIDTH 6 0
BBX 5 10 1 0
BITMAP
50
00
F8
80
80
F0
80
80
80
F8
ENDCHAR
STARTCHAR afii10051
ENCODING 1026
SWIDTH 500 0
DWIDTH 6 0
BBX 5 10 1 -2
BITMAP
F0
40
40
58
68
48
48
48
08
30
ENDCHAR
STARTCHAR afii10052
ENCODING 1027
SWIDTH 500 0
DWIDTH 6 0
BBX 4 10 2 0
BITMAP
20
40
00
F0
80
80
80
80
80
80
ENDCHAR
STARTCHAR afii10053
ENCODING 1028
SWIDTH 500 0
DWIDTH 6 0
BBX 5 8 1 0
BITMAP
30
48
80
F0
80
80
48
30
ENDCHAR
STARTCHAR afii10054
ENCODING 1029
SWIDTH 500 0
DWIDTH 6 0
BBX 5 8 1 0
BITMAP
70
88
80
70
08
08
88
70
ENDCHAR
STARTCHAR afii10055
ENCODING 1030
SWIDTH 500 0
DWIDTH 6 0
BBX 3 8 2 0
BITMAP
E0
40
40
40
40
40
40
E0
ENDCHAR
STARTCHAR afii10056
ENCODING 1031
SWIDTH 500 0
DWIDTH 6 0
BBX 3 10 2 0
BITMAP
A0
00
E0
40
40
40
40
40
40
E0
ENDCHAR
STARTCHAR afii10057
ENCODING 1032
SWIDTH 500 0
DWIDTH 6 0
BBX 4 8 2 0
BITMAP
70
20
20
20
20
20
20
C0
ENDCHAR
STARTCHAR afii10058
ENCODING 1033
SWIDTH 500 0
DWIDTH 6 0
BBX 6 8 0 0
BITMAP
70
50
50
58
54
54
54
98
ENDCHAR
STARTCHAR afii10059
ENCODING 1034
SWIDTH 500 0
DWIDTH 6 0
BBX 5 8 1 0
BITMAP
A0
A0
A0
F0
A8
A8
A8
B0
ENDCHAR
STARTCHAR afii10060
ENCODING 1035
SWIDTH 500 0
DWIDTH 6 0
BBX 5 8 1 0
BITMAP
F0
40
40
58
68
48
48
48
ENDCHAR
STARTCHAR afii10061
ENCODING 1036
SWIDTH 500 0
DWIDTH 6 0
BBX 5 10 1 0
BITMAP
10
20
88
88
90
A0
D0
90
88
88
ENDCHAR
STARTCHAR uni040D
ENCODING 1037
SWIDTH 500 0
DWIDTH 6 0
BBX 5 10 1 0
BITMAP
40
20
88
98
98
A8
A8
C8
C8
88
ENDCHAR
STARTCHAR afii10062
ENCODING 1038
SWIDTH 500 0
DWIDTH 6 0
BBX 5 10 1 0
BITMAP
50
20
88
88
88
50
50
20
20
C0
ENDCHAR
STARTCHAR afii10145
ENCODING 1039
SWIDTH 500 0
DWIDTH 6 0
BBX 5 10 1 -2
BITMAP
88
88
88
88
88
88
88
F8
20
20
ENDCHAR
STARTCHAR afii10017
ENCODING 1040
SWIDTH 500 0
DWIDTH 6 0
BBX 5 8 1 0
BITMAP
20
20
50
50
70
88
88
88
ENDCHAR
STARTCHAR afii10018
ENCODING 1041
SWIDTH 500 0
DWIDTH 6 0
BBX 5 8 1 0
BITMAP
F0
80
80
F0
88
88
88
F0
ENDCHAR
STARTCHAR afii10019
ENCODING 1042
SWIDTH 500 0
DWIDTH 6 0
BBX 5 8 1 0
BITMAP
F0
88
88
F0
88
88
88
F0
ENDCHAR
STARTCHAR afii10020
ENCODING 1043
SWIDTH 500 0
DWIDTH 6 0
BBX 4 8 2 0
BITMAP
F0
80
80
80
80
80
80
80
ENDCHAR
STARTCHAR afii10021
ENCODING 1044
SWIDTH 500 0
DWIDTH 6 0
BBX 6 9 1 -1
BITMAP
38
48
48
48
48
48
88
FC
84
ENDCHAR
STARTCHAR afii10022
ENCODING 1045
SWIDTH 500 0
DWIDTH 6 0
BBX 5 8 1 0
BITMAP
F8
80
80
F0
80
80
80
F8
ENDCHAR
STARTCHAR afii10024
ENCODING 1046
SWIDTH 500 0
DWIDTH 6 0
BBX 5 8 1 0
BITMAP
A8
A8
A8
70
70
A8
A8
A8
ENDCHAR
STARTCHAR afii10025
ENCODING 1047
SWIDTH 500 0
DWIDTH 6 0
BBX 5 8 1 0
BITMAP
F0
88
08
30
08
08
88
70
ENDCHAR
STARTCHAR afii10026
ENCODING 1048
SWIDTH 500 0
DWIDTH 6 0
BBX 5 8 1 0
BITMAP
88
98
98
A8
A8
C8
C8
88
ENDCHAR
STARTCHAR afii10027
ENCODING 1049
SWIDTH 500 0
DWIDTH 6 0
BBX 5 10 1 0
BITMAP
50
20
88
98
98
A8
A8
C8
C8
88
ENDCHAR
STARTCHAR afii10028
ENCODING 1050
SWIDTH 500 0
DWIDTH 6 0
BBX 5 8 1 0
BITMAP
88
88
90
A0
D0
90
88
88
ENDCHAR
STARTCHAR afii10029
ENCODING 1051
SWIDTH 500 0
DWIDTH 6 0
BBX 5 8 1 0
BITMAP
78
48
48
48
48
48
48
88
ENDCHAR
STARTCHAR afii10030
ENCODING 1052
SWIDTH 500 0
DWIDTH 6 0
BBX 5 8 1 0
BITMAP
88
88
D8
D8
A8
A8
88
88
ENDCHAR
STARTCHAR afii10031
ENCODING 1053
SWIDTH 500 0
DWIDTH 6 0
BBX 5 8 1 0
BITMAP
88
88
88
F8
88
88
88
88
ENDCHAR
STARTCHAR afii10032
ENCODING 1054
SWIDTH 500 0
DWIDTH 6 0
BBX 5 8 1 0
BITMAP
70
88
88
88
88
88
88
70
ENDCHAR
STARTCHAR afii10033
ENCODING 1055
SWIDTH 500 0
DWIDTH 6 0
BBX 5 8 1 0
BITMAP
F8
88
88
88
88
88
88
88
ENDCHAR
STARTCHAR afii10034
ENCODING 1056
SWIDTH 500 0
DWIDTH 6 0
BBX 5 8 1 0
BITMAP
F0
88
88
88
F0
80
80
80
ENDCHAR
STARTCHAR afii10035
ENCODING 1057
SWIDTH 500 0
DWIDTH 6 0
BBX 5 8 1 0
BITMAP
70
88
80
80
80
80
88
70
ENDCHAR
STARTCHAR afii10036
ENCODING 1058
SWIDTH 500 0
DWIDTH 6 0
BBX 5 8 1 0
BITMAP
F8
20
20
20
20
20
20
20
ENDCHAR
STARTCHAR afii10037
ENCODING 1059
SWIDTH 500 0
DWIDTH 6 0
BBX 5 8 1 0
BITMAP
88
88
88
88
50
50
20
C0
ENDCHAR
STARTCHAR afii10038
ENCODING 1060
SWIDTH 500 0
DWIDTH 6 0
BBX 5 8 1 0
BITMAP
20
70
A8
A8
A8
A8
70
20
ENDCHAR
STARTCHAR afii10039
ENCODING 1061
SWIDTH 500 0
DWIDTH 6 0
BBX 5 8 1 0
BITMAP
88
88
50
20
20
50
88
88
ENDCHAR
STARTCHAR afii10040
ENCODING 1062
SWIDTH 500 0
DWIDTH 6 0
BBX 5 9 1 -1
BITMAP
90
90
90
90
90
90
90
F8
08
ENDCHAR
STARTCHAR afii10041
ENCODING 1063
SWIDTH 500 0
DWIDTH 6 0
BBX 5 8 1 0
BITMAP
88
88
88
88
78
08
08
08
ENDCHAR
STARTCHAR afii10042
ENCODING 1064
SWIDTH 500 0
DWIDTH 6 0
BBX 5 8 1 0
BITMAP
A8
A8
A8
A8
A8
A8
A8
F8
ENDCHAR
STARTCHAR afii10043
ENCODING 1065
SWIDTH 500 0
DWIDTH 6 0
BBX 6 10 1 -2
BITMAP
A8
A8
A8
A8
A8
A8
A8
F8
04
1C
ENDCHAR
STARTCHAR afii10044
ENCODING 1066
SWIDTH 500 0
DWIDTH 6 0
BBX 6 8 0 0
BITMAP
E0
20
20
38
24
24
24
38
ENDCHAR
STARTCHAR afii10045
ENCODING 1067
SWIDTH 500 0
DWIDTH 6 0
BBX 5 8 1 0
BITMAP
88
88
88
C8
A8
A8
A8
C8
ENDCHAR
STARTCHAR afii10046
ENCODING 1068
SWIDTH 500 0
DWIDTH 6 0
BBX 5 8 1 0
BITMAP
80
80
80
F0
88
88
88
F0
ENDCHAR
STARTCHAR afii10047
ENCODING 1069
SWIDTH 500 0
DWIDTH 6 0
BBX 5 8 1 0
BITMAP
60
90
08
78
08
08
90
60
ENDCHAR
STARTCHAR afii10048
ENCODING 1070
SWIDTH 500 0
DWIDTH 6 0
BBX 5 8 1 0
BITMAP
90
A8
A8
E8
A8
A8
A8
90
ENDCHAR
STARTCHAR afii10049
ENCODING 1071
SWIDTH 500 0
DWIDTH 6 0
BBX 5 8 1 0
BITMAP
78
88
88
88
78
28
48
88
ENDCHAR
STARTCHAR afii10065
ENCODING 1072
SWIDTH 500 0
DWIDTH 6 0
BBX 5 6 1 0
BITMAP
70
08
78
88
98
68
ENDCHAR
STARTCHAR afii10066
ENCODING 1073
SWIDTH 500 0
DWIDTH 6 0
BBX 5 9 1 0
BITMAP
08
70
80
B0
C8
88
88
88
70
ENDCHAR
STARTCHAR afii10067
ENCODING 1074
SWIDTH 500 0
DWIDTH 6 0
BBX 5 6 1 0
BITMAP
F0
88
F0
88
88
F0
ENDCHAR
STARTCHAR afii10068
ENCODING 1075
SWIDTH 500 0
DWIDTH 6 0
BBX 4 6 2 0
BITMAP
F0
80
80
80
80
80
ENDCHAR
STARTCHAR afii10069
ENCODING 1076
SWIDTH 500 0
DWIDTH 6 0
BBX 6 7 1 -1
BITMAP
78
48
48
48
88
FC
84
ENDCHAR
STARTCHAR afii10070
ENCODING 1077
SWIDTH 500 0
DWIDTH 6 0
BBX 5 6 1 0
BITMAP
70
88
F8
80
88
70
ENDCHAR
STARTCHAR afii10072
ENCODING 1078
SWIDTH 500 0
DWIDTH 6 0
BBX 5 6 1 0
BITMAP
A8
A8
70
70
A8
A8
ENDCHAR
STARTCHAR afii10073
ENCODING 1079
SWIDTH 500 0
DWIDTH 6 0
BBX 5 6 1 0
BITMAP
70
88
30
08
88
70
ENDCHAR
STARTCHAR afii10074
ENCODING 1080
SWIDTH 500 0
DWIDTH 6 0
BBX 5 6 1 0
BITMAP
98
98
A8
A8
C8
C8
ENDCHAR
STARTCHAR afii10075
ENCODING 1081
SWIDTH 500 0
DWIDTH 6 0
BBX 5 9 1 0
BITMAP
50
20
00
98
98
A8
A8
C8
C8
ENDCHAR
STARTCHAR afii10076
ENCODING 1082
SWIDTH 500 0
DWIDTH 6 0
BBX 5 6 1 0
BITMAP
88
90
A0
E0
90
88
ENDCHAR
STARTCHAR afii10077
ENCODING 1083
SWIDTH 500 0
DWIDTH 6 0
BBX 5 6 1 0
BITMAP
78
48
48
48
48
88
ENDCHAR
STARTCHAR afii10078
ENCODING 1084
SWIDTH 500 0
DWIDTH 6 0
BBX 5 6 1 0
BITMAP
88
D8
D8
A8
A8
88
ENDCHAR
STARTCHAR afii10079
ENCODING 1085
SWIDTH 500 0
DWIDTH 6 0
BBX 5 6 1 0
BITMAP
88
88
88
F8
88
88
ENDCHAR
STARTCHAR afii10080
ENCODING 1086
SWIDTH 500 0
DWIDTH 6 0
BBX 5 6 1 0
BITMAP
70
88
88
88
88
70
ENDCHAR
STARTCHAR afii10081
ENCODING 1087
SWIDTH 500 0
DWIDTH 6 0
BBX 5 6 1 0
BITMAP
F8
88
88
88
88
88
ENDCHAR
STARTCHAR afii10082
ENCODING 1088
SWIDTH 500 0
DWIDTH 6 0
BBX 5 9 1 -3
BITMAP
B0
C8
88
88
C8
B0
80
80
80
ENDCHAR
STARTCHAR afii10083
ENCODING 1089
SWIDTH 500 0
DWIDTH 6 0
BBX 5 6 1 0
BITMAP
70
88
80
80
88
70
ENDCHAR
STARTCHAR afii10084
ENCODING 1090
SWIDTH 500 0
DWIDTH 6 0
BBX 5 6 1 0
BITMAP
F8
20
20
20
20
20
ENDCHAR
STARTCHAR afii10085
ENCODING 1091
SWIDTH 500 0
DWIDTH 6 0
BBX 5 8 1 -2
BITMAP
88
88
88
50
50
20
20
C0
ENDCHAR
STARTCHAR afii10086
ENCODING 1092
SWIDTH 500 0
DWIDTH 6 0
BBX 5 10 1 -2
BITMAP
20
20
70
A8
A8
A8
A8
70
20
20
ENDCHAR
STARTCHAR afii10087
ENCODING 1093
SWIDTH 500 0
DWIDTH 6 0
BBX 5 6 1 0
BITMAP
88
50
20
20
50
88
ENDCHAR
STARTCHAR afii10088
ENCODING 1094
SWIDTH 500 0
DWIDTH 6 0
BBX 5 7 1 -1
BITMAP
90
90
90
90
90
F8
08
ENDCHAR
STARTCHAR afii10089
ENCODING 1095
SWIDTH 500 0
DWIDTH 6 0
BBX 5 6 1 0
BITMAP
88
88
88
78
08
08
ENDCHAR
STARTCHAR afii10090
ENCODING 1096
SWIDTH 500 0
DWIDTH 6 0
BBX 5 6 1 0
BITMAP
A8
A8
A8
A8
A8
F8
ENDCHAR
STARTCHAR afii10091
ENCODING 1097
SWIDTH 500 0
DWIDTH 6 0
BBX 6 8 1 -2
BITMAP
A8
A8
A8
A8
A8
F8
04
1C
ENDCHAR
STARTCHAR afii10092
ENCODING 1098
SWIDTH 500 0
DWIDTH 6 0
BBX 6 6 0 0
BITMAP
E0
20
38
24
24
38
ENDCHAR
STARTCHAR afii10093
ENCODING 1099
SWIDTH 500 0
DWIDTH 6 0
BBX 5 6 1 0
BITMAP
88
88
C8
A8
A8
C8
ENDCHAR
STARTCHAR afii10094
ENCODING 1100
SWIDTH 500 0
DWIDTH 6 0
BBX 5 6 1 0
BITMAP
80
80
F0
88
88
F0
ENDCHAR
STARTCHAR afii10095
ENCODING 1101
SWIDTH 500 0
DWIDTH 6 0
BBX 5 6 1 0
BITMAP
F0
08
78
08
08
F0
ENDCHAR
STARTCHAR afii10096
ENCODING 1102
SWIDTH 500 0
DWIDTH 6 0
BBX 5 6 1 0
BITMAP
90
A8
E8
A8
A8
90
ENDCHAR
STARTCHAR afii10097
ENCODING 1103
SWIDTH 500 0
DWIDTH 6 0
BBX 5 6 1 0
BITMAP
78
88
88
78
48
88
ENDCHAR
STARTCHAR uni0450
ENCODING 1104
SWIDTH 500 0
DWIDTH 6 0
BBX 5 9 1 0
BITMAP
40
20
00
70
88
F8
80
88
70
ENDCHAR
STARTCHAR afii10071
ENCODING 1105
SWIDTH 500 0
DWIDTH 6 0
BBX 5 8 1 0
BITMAP
50
00
70
88
F8
80
88
70
ENDCHAR
STARTCHAR afii10099
ENCODING 1106
SWIDTH 500 0
DWIDTH 6 0
BBX 5 10 1 -2
BITMAP
40
40
F0
40
58
68
48
48
08
30
ENDCHAR
STARTCHAR afii10100
ENCODING 1107
SWIDTH 500 0
DWIDTH 6 0
BBX 4 9 2 0
BITMAP
20
40
00
F0
80
80
80
80
80
ENDCHAR
STARTCHAR afii10101
ENCODING 1108
SWIDTH 500 0
DWIDTH 6 0
BBX 5 6 1 0
BITMAP
70
88
E0
80
88
70
ENDCHAR
STARTCHAR afii10102
ENCODING 1109
SWIDTH 500 0
DWIDTH 6 0
BBX 5 6 1 0
BITMAP
70
88
60
10
88
70
ENDCHAR
STARTCHAR afii10103
ENCODING 1110
SWIDTH 500 0
DWIDTH 6 0
BBX 3 8 2 0
BITMAP
40
00
40
C0
40
40
40
E0
ENDCHAR
STARTCHAR afii10104
ENCODING 1111
SWIDTH 500 0
DWIDTH 6 0
BBX 3 8 2 0
BITMAP
A0
00
40
C0
40
40
40
E0
ENDCHAR
STARTCHAR afii10105
ENCODING 1112
SWIDTH 500 0
DWIDTH 6 0
BBX 3 10 2 -2
BITMAP
20
00
60
20
20
20
20
20
A0
40
ENDCHAR
STARTCHAR afii10106
ENCODING 1113
SWIDTH 500 0
DWIDTH 6 0
BBX 6 6 0 0
BITMAP
70
50
58
54
54
98
ENDCHAR
STARTCHAR afii10107
ENCODING 1114
SWIDTH 500 0
DWIDTH 6 0
BBX 5 6 1 0
BITMAP
A0
A0
F0
A8
A8
B0
ENDCHAR
STARTCHAR afii10108
ENCODING 1115
SWIDTH 500 0
DWIDTH 6 0
BBX 5 8 1 0
BITMAP
40
40
F0
40
58
68
48
48
ENDCHAR
STARTCHAR afii10109
ENCODING 1116
SWIDTH 500 0
DWIDTH 6 0
BBX 5 9 1 0
BITMAP
10
20
00
88
90
A0
D0
90
88
ENDCHAR
STARTCHAR uni045D
ENCODING 1117
SWIDTH 500 0
DWIDTH 6 0
BBX 5 9 1 0
BITMAP
40
20
00
98
98
A8
A8
C8
C8
ENDCHAR
STARTCHAR afii10110
ENCODING 1118
SWIDTH 500 0
DWIDTH 6 0
BBX 5 11 1 -2
BITMAP
50
20
00
88
88
88
50
50
20
20
C0
ENDCHAR
STARTCHAR afii10193
ENCODING 1119
SWIDTH 500 0
DWIDTH 6 0
BBX 5 8 1 -2
BITMAP
88
88
88
88
88
F8
20
20
ENDCHAR
STARTCHAR uni0460
ENCODING 1120
SWIDTH 500 0
DWIDTH 6 0
BBX 5 8 1 0
BITMAP
50
88
88
A8
A8
A8
A8
50
ENDCHAR
STARTCHAR uni0461
ENCODING 1121
SWIDTH 500 0
DWIDTH 6 0
BBX 5 6 1 0
BITMAP
50
88
88
A8
A8
50
ENDCHAR
STARTCHAR afii10146
ENCODING 1122
SWIDTH 500 0
DWIDTH 6 0
BBX 5 8 1 0
BITMAP
40
F0
40
70
48
48
48
F0
ENDCHAR
STARTCHAR afii10194
ENCODING 1123
SWIDTH 500 0
DWIDTH 6 0
BBX 5 8 1 0
BITMAP
40
40
F0
40
70
48
48
70
ENDCHAR
STARTCHAR uni0464
ENCODING 1124
SWIDTH 500 0
DWIDTH 6 0
BBX 5 8 1 0
BITMAP
98
A0
A0
F0
A0
A0
A0
98
ENDCHAR
STARTCHAR uni0465
ENCODING 1125
SWIDTH 500 0
DWIDTH 6 0
BBX 5 6 1 0
BITMAP
98
A0
F0
A0
A0
98
ENDCHAR
STARTCHAR uni0466
ENCODING 1126
SWIDTH 500 0
DWIDTH 6 0
BBX 5 8 1 0
BITMAP
20
20
50
50
70
A8
A8
A8
ENDCHAR
STARTCHAR uni0467
ENCODING 1127
SWIDTH 500 0
DWIDTH 6 0
BBX 5 6 1 0
BITMAP
20
50
50
F8
A8
A8
ENDCHAR
STARTCHAR uni0468
ENCODING 1128
SWIDTH 500 0
DWIDTH 6 0
BBX 5 8 1 0
BITMAP
A0
A0
D0
D0
F0
A8
A8
A8
ENDCHAR
STARTCHAR uni0469
ENCODING 1129
SWIDTH 500 0
DWIDTH 6 0
BBX 5 6 1 0
BITMAP
A0
A0
D0
F0
A8
A8
ENDCHAR
STARTCHAR uni046A
ENCODING 1130
SWIDTH 500 0
DWIDTH 6 0
BBX 5 8 1 0
BITMAP
F8
88
50
50
70
A8
A8
A8
ENDCHAR
STARTCHAR uni046B
ENCODING 1131
SWIDTH 500 0
DWIDTH 6 0
BBX 5 6 1 0
BITMAP
F8
88
50
70
A8
A8
ENDCHAR
STARTCHAR uni046C
ENCODING 1132
SWIDTH 500 0
DWIDTH 6 0
BBX 5 8 1 0
BITMAP
F8
88
D0
D0
F0
A8
A8
A8
ENDCHAR
STARTCHAR uni046D
ENCODING 1133
SWIDTH 500 0
DWIDTH 6 0
BBX 5 6 1 0
BITMAP
F8
88
D0
F0
A8
A8
ENDCHAR
STARTCHAR uni046E
ENCODING 1134
SWIDTH 500 0
DWIDTH 6 0
BBX 5 12 1 -2
BITMAP
50
20
70
88
08
30
08
08
08
70
80
70
ENDCHAR
STARTCHAR uni046F
ENCODING 1135
SWIDTH 500 0
DWIDTH 6 0
BBX 5 10 1 -2
BITMAP
50
20
70
88
30
08
08
70
80
70
ENDCHAR
STARTCHAR uni0470
ENCODING 1136
SWIDTH 500 0
DWIDTH 6 0
BBX 6 8 1 0
BITMAP
AC
A8
A8
A8
A8
A8
70
20
ENDCHAR
STARTCHAR uni0471
ENCODING 1137
SWIDTH 500 0
DWIDTH 6 0
BBX 5 8 1 -2
BITMAP
A8
A8
A8
A8
A8
70
20
20
ENDCHAR
STARTCHAR afii10147
ENCODING 1138
SWIDTH 500 0
DWIDTH 6 0
BBX 5 8 1 0
BITMAP
70
88
88
F8
88
88
88
70
ENDCHAR
STARTCHAR afii10195
ENCODING 1139
SWIDTH 500 0
DWIDTH 6 0
BBX 5 6 1 0
BITMAP
70
88
F8
88
88
70
ENDCHAR
STARTCHAR afii10148
ENCODING 1140
SWIDTH 500 0
DWIDTH 6 0
BBX 6 8 1 0
BITMAP
8C
88
88
50
50
50
20
20
ENDCHAR
STARTCHAR afii10196
ENCODING 1141
SWIDTH 500 0
DWIDTH 6 0
BBX 5 6 1 0
BITMAP
88
88
50
50
20
20
ENDCHAR
STARTCHAR uni0476
ENCODING 1142
SWIDTH 500 0
DWIDTH 6 0
BBX 6 10 1 0
BITMAP
A0
50
00
8C
88
50
50
50
20
20
ENDCHAR
STARTCHAR uni0477
ENCODING 1143
SWIDTH 500 0
DWIDTH 6 0
BBX 5 9 1 0
BITMAP
A0
50
00
88
88
50
50
20
20
ENDCHAR
STARTCHAR uni0478
ENCODING 1144
SWIDTH 500 0
DWIDTH 6 0
BBX 5 8 1 0
BITMAP
88
88
50
20
70
A8
88
70
ENDCHAR
STARTCHAR uni0479
ENCODING 1145
SWIDTH 500 0
DWIDTH 6 0
BBX 5 6 1 0
BITMAP
88
88
70
88
88
70
ENDCHAR
STARTCHAR uni047A
ENCODING 1146
SWIDTH 500 0
DWIDTH 6 0
BBX 5 8 1 0
BITMAP
70
A8
88
88
88
88
A8
70
ENDCHAR
STARTCHAR uni047B
ENCODING 1147
SWIDTH 500 0
DWIDTH 6 0
BBX 5 6 1 0
BITMAP
70
A8
88
88
A8
70
ENDCHAR
STARTCHAR uni047C
ENCODING 1148
SWIDTH 500 0
DWIDTH 6 0
BBX 5 10 1 0
BITMAP
70
00
20
88
88
88
88
88
A8
50
ENDCHAR
STARTCHAR uni047D
ENCODING 1149
SWIDTH 500 0
DWIDTH 6 0
BBX 5 8 1 0
BITMAP
70
00
A8
88
88
88
A8
50
ENDCHAR
STARTCHAR uni047E
ENCODING 1150
SWIDTH 500 0
DWIDTH 6 0
BBX 5 10 1 0
BITMAP
F8
A8
00
88
88
88
88
A8
A8
50
ENDCHAR
STARTCHAR uni047F
ENCODING 1151
SWIDTH 500 0
DWIDTH 6 0
BBX 5 9 1 0
BITMAP
F8
A8
00
A8
A8
A8
A8
70
50
ENDCHAR
STARTCHAR uni0480
ENCODING 1152
SWIDTH 500 0
DWIDTH 6 0
BBX 5 10 1 -2
BITMAP
70
88
80
80
80
80
80
70
10
10
ENDCHAR
STARTCHAR uni0481
ENCODING 1153
SWIDTH 500 0
DWIDTH 6 0
BBX 5 8 1 -2
BITMAP
70
88
80
80
80
70
10
10
ENDCHAR
STARTCHAR uni0482
ENCODING 1154
SWIDTH 500 0
DWIDTH 6 0
BBX 5 8 1 0
BITMAP
10
10
E0
38
E0
38
40
40
ENDCHAR
STARTCHAR uni0483
ENCODING 1155
SWIDTH 500 0
DWIDTH 6 0
BBX 5 3 1 7
BITMAP
08
F8
80
ENDCHAR
STARTCHAR uni0484
ENCODING 1156
SWIDTH 500 0
DWIDTH 6 0
BBX 5 2 1 8
BITMAP
30
C8
ENDCHAR
STARTCHAR uni0485
ENCODING 1157
SWIDTH 500 0
DWIDTH 6 0
BBX 2 3 5 7
BITMAP
C0
80
40
ENDCHAR
STARTCHAR uni0486
ENCODING 1158
SWIDTH 500 0
DWIDTH 6 0
BBX 2 3 5 7
BITMAP
C0
40
80
ENDCHAR
STARTCHAR uni0487
ENCODING 1159
SWIDTH 500 0
DWIDTH 6 0
BBX 5 2 4 8
BITMAP
60
98
ENDCHAR
STARTCHAR uni0488
ENCODING 1160
SWIDTH 500 0
DWIDTH 6 0
BBX 13 13 -3 -3
BITMAP
0200
0500
2020
5050
0000
4010
A028
0000
2020
5050
0000
0200
0500
ENDCHAR
STARTCHAR uni0489
ENCODING 1161
SWIDTH 500 0
DWIDTH 6 0
BBX 13 13 -3 -3
BITMAP
0100
2230
2B40
1020
0000
A030
6028
0000
1020
0850
3310
0100
0200
ENDCHAR
STARTCHAR uni048A
ENCODING 1162
SWIDTH 500 0
DWIDTH 6 0
BBX 5 12 1 -2
BITMAP
50
20
88
98
98
A8
A8
C8
C8
88
08
10
ENDCHAR
STARTCHAR uni048B
ENCODING 1163
SWIDTH 500 0
DWIDTH 6 0
BBX 5 11 1 -2
BITMAP
50
20
00
98
98
A8
A8
C8
C8
08
10
ENDCHAR
STARTCHAR uni048C
ENCODING 1164
SWIDTH 500 0
DWIDTH 6 0
BBX 5 8 1 0
BITMAP
40
40
E0
40
70
48
48
F0
ENDCHAR
STARTCHAR uni048D
ENCODING 1165
SWIDTH 500 0
DWIDTH 6 0
BBX 5 8 1 0
BITMAP
40
40
40
E0
40
70
48
70
ENDCHAR
STARTCHAR uni048E
ENCODING 1166
SWIDTH 500 0
DWIDTH 6 0
BBX 5 8 1 0
BITMAP
F0
88
88
A8
F0
88
80
80
ENDCHAR
STARTCHAR uni048F
ENCODING 1167
SWIDTH 500 0
DWIDTH 6 0
BBX 5 9 1 -3
BITMAP
B0
C8
88
88
A8
F0
88
80
80
ENDCHAR
STARTCHAR afii10050
ENCODING 1168
SWIDTH 500 0
DWIDTH 6 0
BBX 4 9 2 0
BITMAP
10
F0
80
80
80
80
80
80
80
ENDCHAR
STARTCHAR afii10098
ENCODING 1169
SWIDTH 500 0
DWIDTH 6 0
BBX 4 7 2 0
BITMAP
10
F0
80
80
80
80
80
ENDCHAR
STARTCHAR uni0492
ENCODING 1170
SWIDTH 500 0
DWIDTH 6 0
BBX 5 8 1 0
BITMAP
78
40
40
40
F0
40
40
40
ENDCHAR
STARTCHAR uni0493
ENCODING 1171
SWIDTH 500 0
DWIDTH 6 0
BBX 5 6 1 0
BITMAP
78
40
F0
40
40
40
ENDCHAR
STARTCHAR uni0494
ENCODING 1172
SWIDTH 500 0
DWIDTH 6 0
BBX 4 10 2 -2
BITMAP
F0
80
80
80
E0
90
90
90
10
20
ENDCHAR
STARTCHAR uni0495
ENCODING 1173
SWIDTH 500 0
DWIDTH 6 0
BBX 4 8 2 -2
BITMAP
F0
80
80
E0
90
90
10
20
ENDCHAR
STARTCHAR uni0496
ENCODING 1174
SWIDTH 500 0
DWIDTH 6 0
BBX 5 10 1 -2
BITMAP
A8
A8
A8
70
70
A8
A8
A8
08
08
ENDCHAR
STARTCHAR uni0497
ENCODING 1175
SWIDTH 500 0
DWIDTH 6 0
BBX 5 8 1 -2
BITMAP
A8
A8
70
70
A8
A8
08
08
ENDCHAR
STARTCHAR uni0498
ENCODING 1176
SWIDTH 500 0
DWIDTH 6 0
BBX 5 10 1 -2
BITMAP
F0
88
08
30
08
08
88
70
20
60
ENDCHAR
STARTCHAR uni0499
ENCODING 1177
SWIDTH 500 0
DWIDTH 6 0
BBX 5 8 1 -2
BITMAP
70
88
30
08
88
70
20
60
ENDCHAR
STARTCHAR uni049A
ENCODING 1178
SWIDTH 500 0
DWIDTH 6 0
BBX 5 10 1 -2
BITMAP
90
90
90
A0
E0
A0
90
98
08
08
ENDCHAR
STARTCHAR uni049B
ENCODING 1179
SWIDTH 500 0
DWIDTH 6 0
BBX 5 8 1 -2
BITMAP
90
90
A0
E0
90
98
08
08
ENDCHAR
STARTCHAR uni049C
ENCODING 1180
SWIDTH 500 0
DWIDTH 6 0
BBX 5 8 1 0
BITMAP
88
A8
B0
A0
F0
B0
A8
88
ENDCHAR
STARTCHAR uni049D
ENCODING 1181
SWIDTH 500 0
DWIDTH 6 0
BBX 5 6 1 0
BITMAP
88
A8
B0
F0
A8
88
ENDCHAR
STARTCHAR uni049E
ENCODING 1182
SWIDTH 500 0
DWIDTH 6 0
BBX 6 8 0 0
BITMAP
44
E4
48
50
68
48
44
44
ENDCHAR
STARTCHAR uni049F
ENCODING 1183
SWIDTH 500 0
DWIDTH 6 0
BBX 6 8 0 0
BITMAP
40
F0
44
48
50
68
48
44
ENDCHAR
STARTCHAR uni04A0
ENCODING 1184
SWIDTH 500 0
DWIDTH 6 0
BBX 6 8 0 0
BITMAP
E4
24
28
28
38
24
24
24
ENDCHAR
STARTCHAR uni04A1
ENCODING 1185
SWIDTH 500 0
DWIDTH 6 0
BBX 6 6 0 0
BITMAP
E4
28
28
38
24
24
ENDCHAR
STARTCHAR uni04A2
ENCODING 1186
SWIDTH 500 0
DWIDTH 6 0
BBX 5 10 1 -2
BITMAP
90
90
90
F0
90
90
90
98
08
08
ENDCHAR
STARTCHAR uni04A3
ENCODING 1187
SWIDTH 500 0
DWIDTH 6 0
BBX 5 8 1 -2
BITMAP
90
90
F0
90
90
98
08
08
ENDCHAR
STARTCHAR uni04A4
ENCODING 1188
SWIDTH 500 0
DWIDTH 6 0
BBX 6 8 1 0
BITMAP
9C
90
90
F0
90
90
90
90
ENDCHAR
STARTCHAR uni04A5
ENCODING 1189
SWIDTH 500 0
DWIDTH 6 0
BBX 6 6 1 0
BITMAP
9C
90
F0
90
90
90
ENDCHAR
STARTCHAR uni04A6
ENCODING 1190
SWIDTH 500 0
DWIDTH 6 0
BBX 5 10 1 -2
BITMAP
E0
A0
A0
A0
B0
A8
A8
A8
08
10
ENDCHAR
STARTCHAR uni04A7
ENCODING 1191
SWIDTH 500 0
DWIDTH 6 0
BBX 5 8 1 -2
BITMAP
E0
A0
A0
B0
A8
A8
08
10
ENDCHAR
STARTCHAR uni04A8
ENCODING 1192
SWIDTH 500 0
DWIDTH 6 0
BBX 5 8 1 0
BITMAP
40
90
A8
A8
A8
A8
90
68
ENDCHAR
STARTCHAR uni04A9
ENCODING 1193
SWIDTH 500 0
DWIDTH 6 0
BBX 5 6 1 0
BITMAP
40
90
A8
A8
90
68
ENDCHAR
STARTCHAR uni04AA
ENCODING 1194
SWIDTH 500 0
DWIDTH 6 0
BBX 5 10 1 -2
BITMAP
70
88
80
80
80
80
88
70
10
30
ENDCHAR
STARTCHAR uni04AB
ENCODING 1195
SWIDTH 500 0
DWIDTH 6 0
BBX 5 8 1 -2
BITMAP
70
88
80
80
88
70
10
30
ENDCHAR
STARTCHAR uni04AC
ENCODING 1196
SWIDTH 500 0
DWIDTH 6 0
BBX 5 10 1 -2
BITMAP
F8
20
20
20
20
20
20
30
10
10
ENDCHAR
STARTCHAR uni04AD
ENCODING 1197
SWIDTH 500 0
DWIDTH 6 0
BBX 5 8 1 -2
BITMAP
F8
20
20
20
20
30
10
10
ENDCHAR
STARTCHAR uni04AE
ENCODING 1198
SWIDTH 500 0
DWIDTH 6 0
BBX 5 8 1 0
BITMAP
88
88
50
50
20
20
20
20
ENDCHAR
STARTCHAR uni04AF
ENCODING 1199
SWIDTH 500 0
DWIDTH 6 0
BBX 5 8 1 -2
BITMAP
88
88
50
50
20
20
20
20
ENDCHAR
STARTCHAR uni04B0
ENCODING 1200
SWIDTH 500 0
DWIDTH 6 0
BBX 5 8 1 0
BITMAP
88
88
50
50
20
70
20
20
ENDCHAR
STARTCHAR uni04B1
ENCODING 1201
SWIDTH 500 0
DWIDTH 6 0
BBX 5 8 1 -2
BITMAP
88
88
50
50
20
70
20
20
ENDCHAR
STARTCHAR uni04B2
ENCODING 1202
SWIDTH 500 0
DWIDTH 6 0
BBX 5 10 1 -2
BITMAP
88
88
50
20
20
50
88
88
08
08
ENDCHAR
STARTCHAR uni04B3
ENCODING 1203
SWIDTH 500 0
DWIDTH 6 0
BBX 5 8 1 -2
BITMAP
88
50
20
20
50
88
08
08
ENDCHAR
STARTCHAR uni04B4
ENCODING 1204
SWIDTH 500 0
DWIDTH 6 0
BBX 6 9 1 -1
BITMAP
E8
48
48
48
48
48
48
7C
04
ENDCHAR
STARTCHAR uni04B5
ENCODING 1205
SWIDTH 500 0
DWIDTH 6 0
BBX 6 7 1 -1
BITMAP
E8
48
48
48
48
7C
04
ENDCHAR
STARTCHAR uni04B6
ENCODING 1206
SWIDTH 500 0
DWIDTH 6 0
BBX 5 10 1 -2
BITMAP
90
90
90
90
70
10
10
18
08
08
ENDCHAR
STARTCHAR uni04B7
ENCODING 1207
SWIDTH 500 0
DWIDTH 6 0
BBX 5 8 1 -2
BITMAP
90
90
90
70
10
18
08
08
ENDCHAR
STARTCHAR uni04B8
ENCODING 1208
SWIDTH 500 0
DWIDTH 6 0
BBX 5 8 1 0
BITMAP
88
88
88
A8
78
28
08
08
ENDCHAR
STARTCHAR uni04B9
ENCODING 1209
SWIDTH 500 0
DWIDTH 6 0
BBX 5 6 1 0
BITMAP
88
88
A8
78
28
08
ENDCHAR
STARTCHAR uni04BA
ENCODING 1210
SWIDTH 500 0
DWIDTH 6 0
BBX 5 8 1 0
BITMAP
80
80
80
F0
88
88
88
88
ENDCHAR
STARTCHAR uni04BB
ENCODING 1211
SWIDTH 500 0
DWIDTH 6 0
BBX 5 6 1 0
BITMAP
80
80
F0
88
88
88
ENDCHAR
STARTCHAR uni04BC
ENCODING 1212
SWIDTH 500 0
DWIDTH 6 0
BBX 5 8 1 0
BITMAP
10
28
A8
78
20
20
28
10
ENDCHAR
STARTCHAR uni04BD
ENCODING 1213
SWIDTH 500 0
DWIDTH 6 0
BBX 5 6 1 0
BITMAP
10
A8
78
20
28
10
ENDCHAR
STARTCHAR uni04BE
ENCODING 1214
SWIDTH 500 0
DWIDTH 6 0
BBX 5 10 1 -2
BITMAP
10
28
A8
78
20
20
28
10
10
10
ENDCHAR
STARTCHAR uni04BF
ENCODING 1215
SWIDTH 500 0
DWIDTH 6 0
BBX 5 8 1 -2
BITMAP
10
A8
78
20
28
10
10
10
ENDCHAR
STARTCHAR uni04C0
ENCODING 1216
SWIDTH 500 0
DWIDTH 6 0
BBX 3 8 2 0
BITMAP
E0
40
40
40
40
40
40
E0
ENDCHAR
STARTCHAR uni04C1
ENCODING 1217
SWIDTH 500 0
DWIDTH 6 0
BBX 5 10 1 0
BITMAP
50
20
00
A8
A8
A8
70
A8
A8
A8
ENDCHAR
STARTCHAR uni04C2
ENCODING 1218
SWIDTH 500 0
DWIDTH 6 0
BBX 5 9 1 0
BITMAP
50
20
00
A8
A8
70
70
A8
A8
ENDCHAR
STARTCHAR uni04C3
ENCODING 1219
SWIDTH 500 0
DWIDTH 6 0
BBX 5 10 1 -2
BITMAP
88
88
90
A0
D0
90
88
88
08
30
ENDCHAR
STARTCHAR uni04C4
ENCODING 1220
SWIDTH 500 0
DWIDTH 6 0
BBX 5 8 1 -2
BITMAP
88
90
A0
D0
90
88
08
30
ENDCHAR
STARTCHAR uni04C5
ENCODING 1221
SWIDTH 500 0
DWIDTH 6 0
BBX 5 10 1 -2
BITMAP
78
48
48
48
48
48
48
88
08
10
ENDCHAR
STARTCHAR uni04C6
ENCODING 1222
SWIDTH 500 0
DWIDTH 6 0
BBX 5 8 1 -2
BITMAP
78
48
48
48
48
88
08
10
ENDCHAR
STARTCHAR uni04C7
ENCODING 1223
SWIDTH 500 0
DWIDTH 6 0
BBX 5 9 1 -1
BITMAP
88
88
88
F8
88
88
88
88
30
ENDCHAR
STARTCHAR uni04C8
ENCODING 1224
SWIDTH 500 0
DWIDTH 6 0
BBX 5 7 1 -1
BITMAP
88
88
88
F8
88
88
30
ENDCHAR
STARTCHAR uni04C9
ENCODING 1225
SWIDTH 500 0
DWIDTH 6 0
BBX 5 10 1 -2
BITMAP
88
88
88
F8
88
88
88
88
08
10
ENDCHAR
STARTCHAR uni04CA
ENCODING 1226
SWIDTH 500 0
DWIDTH 6 0
BBX 5 8 1 -2
BITMAP
88
88
88
F8
88
88
08
10
ENDCHAR
STARTCHAR uni04CB
ENCODING 1227
SWIDTH 500 0
DWIDTH 6 0
BBX 5 10 1 -2
BITMAP
88
88
88
88
78
08
08
18
10
10
ENDCHAR
STARTCHAR uni04CC
ENCODING 1228
SWIDTH 500 0
DWIDTH 6 0
BBX 5 8 1 -2
BITMAP
88
88
88
78
08
18
10
10
ENDCHAR
STARTCHAR uni04CD
ENCODING 1229
SWIDTH 500 0
DWIDTH 6 0
BBX 5 10 1 -2
BITMAP
88
88
D8
D8
A8
A8
88
88
08
10
ENDCHAR
STARTCHAR uni04CE
ENCODING 1230
SWIDTH 500 0
DWIDTH 6 0
BBX 5 8 1 -2
BITMAP
88
D8
D8
A8
A8
88
08
10
ENDCHAR
STARTCHAR uni04CF
ENCODING 1231
SWIDTH 500 0
DWIDTH 6 0
BBX 2 8 2 0
BITMAP
C0
40
40
40
40
40
40
40
ENDCHAR
STARTCHAR uni04D0
ENCODING 1232
SWIDTH 500 0
DWIDTH 6 0
BBX 5 10 1 0
BITMAP
50
20
00
20
20
50
70
50
88
88
ENDCHAR
STARTCHAR uni04D1
ENCODING 1233
SWIDTH 500 0
DWIDTH 6 0
BBX 5 9 1 0
BITMAP
50
20
00
70
08
78
88
98
68
ENDCHAR
STARTCHAR uni04D2
ENCODING 1234
SWIDTH 500 0
DWIDTH 6 0
BBX 5 10 1 0
BITMAP
50
00
20
20
50
50
70
88
88
88
ENDCHAR
STARTCHAR uni04D3
ENCODING 1235
SWIDTH 500 0
DWIDTH 6 0
BBX 5 8 1 0
BITMAP
50
00
70
08
78
88
98
68
ENDCHAR
STARTCHAR uni04D4
ENCODING 1236
SWIDTH 500 0
DWIDTH 6 0
BBX 5 8 1 0
BITMAP
38
30
50
58
70
50
90
98
ENDCHAR
STARTCHAR uni04D5
ENCODING 1237
SWIDTH 500 0
DWIDTH 6 0
BBX 5 6 1 0
BITMAP
D0
28
78
A0
A8
50
ENDCHAR
STARTCHAR uni04D6
ENCODING 1238
SWIDTH 500 0
DWIDTH 6 0
BBX 5 10 1 0
BITMAP
50
20
00
F8
80
80
F0
80
80
F8
ENDCHAR
STARTCHAR uni04D7
ENCODING 1239
SWIDTH 500 0
DWIDTH 6 0
BBX 5 9 1 0
BITMAP
50
20
00
70
88
F8
80
88
70
ENDCHAR
STARTCHAR uni04D8
ENCODING 1240
SWIDTH 500 0
DWIDTH 6 0
BBX 5 8 1 0
BITMAP
70
88
08
08
F8
88
88
70
ENDCHAR
STARTCHAR afii10846
ENCODING 1241
SWIDTH 500 0
DWIDTH 6 0
BBX 5 6 1 0
BITMAP
70
88
08
F8
88
70
ENDCHAR
STARTCHAR uni04DA
ENCODING 1242
SWIDTH 500 0
DWIDTH 6 0
BBX 5 10 1 0
BITMAP
50
00
70
88
08
08
F8
88
88
70
ENDCHAR
STARTCHAR uni04DB
ENCODING 1243
SWIDTH 500 0
DWIDTH 6 0
BBX 5 8 1 0
BITMAP
50
00
70
88
08
F8
88
70
ENDCHAR
STARTCHAR uni04DC
ENCODING 1244
SWIDTH 500 0
DWIDTH 6 0
BBX 5 10 1 0
BITMAP
50
00
A8
A8
A8
70
70
A8
A8
A8
ENDCHAR
STARTCHAR uni04DD
ENCODING 1245
SWIDTH 500 0
DWIDTH 6 0
BBX 5 8 1 0
BITMAP
50
00
A8
A8
70
70
A8
A8
ENDCHAR
STARTCHAR uni04DE
ENCODING 1246
SWIDTH 500 0
DWIDTH 6 0
BBX 5 10 1 0
BITMAP
50
00
F0
88
08
30
08
08
88
70
ENDCHAR
STARTCHAR uni04DF
ENCODING 1247
SWIDTH 500 0
DWIDTH 6 0
BBX 5 8 1 0
BITMAP
50
00
70
88
30
08
88
70
ENDCHAR
STARTCHAR uni04E0
ENCODING 1248
SWIDTH 500 0
DWIDTH 6 0
BBX 5 8 1 0
BITMAP
F8
08
10
30
08
08
88
70
ENDCHAR
STARTCHAR uni04E1
ENCODING 1249
SWIDTH 500 0
DWIDTH 6 0
BBX 5 8 1 -2
BITMAP
F8
08
10
20
70
08
88
70
ENDCHAR
STARTCHAR uni04E2
ENCODING 1250
SWIDTH 500 0
DWIDTH 6 0
BBX 5 10 1 0
BITMAP
70
00
88
98
98
A8
A8
C8
C8
88
ENDCHAR
STARTCHAR uni04E3
ENCODING 1251
SWIDTH 500 0
DWIDTH 6 0
BBX 5 8 1 0
BITMAP
70
00
98
98
A8
A8
C8
C8
ENDCHAR
STARTCHAR uni04E4
ENCODING 1252
SWIDTH 500 0
DWIDTH 6 0
BBX 5 10 1 0
BITMAP
50
00
88
98
98
A8
A8
C8
C8
88
ENDCHAR
STARTCHAR uni04E5
ENCODING 1253
SWIDTH 500 0
DWIDTH 6 0
BBX 5 8 1 0
BITMAP
50
00
98
98
A8
A8
C8
C8
ENDCHAR
STARTCHAR uni04E6
ENCODING 1254
SWIDTH 500 0
DWIDTH 6 0
BBX 5 10 1 0
BITMAP
50
00
70
88
88
88
88
88
88
70
ENDCHAR
STARTCHAR uni04E7
ENCODING 1255
SWIDTH 500 0
DWIDTH 6 0
BBX 5 8 1 0
BITMAP
50
00
70
88
88
88
88
70
ENDCHAR
STARTCHAR uni04E8
ENCODING 1256
SWIDTH 500 0
DWIDTH 6 0
BBX 5 8 1 0
BITMAP
70
88
88
88
F8
88
88
70
ENDCHAR
STARTCHAR uni04E9
ENCODING 1257
SWIDTH 500 0
DWIDTH 6 0
BBX 5 6 1 0
BITMAP
70
88
88
F8
88
70
ENDCHAR
STARTCHAR uni04EA
ENCODING 1258
SWIDTH 500 0
DWIDTH 6 0
BBX 5 10 1 0
BITMAP
50
00
70
88
88
88
F8
88
88
70
ENDCHAR
STARTCHAR uni04EB
ENCODING 1259
SWIDTH 500 0
DWIDTH 6 0
BBX 5 8 1 0
BITMAP
50
00
70
88
88
F8
88
70
ENDCHAR
STARTCHAR uni04EC
ENCODING 1260
SWIDTH 500 0
DWIDTH 6 0
BBX 5 10 1 0
BITMAP
50
00
60
90
08
78
08
08
90
60
ENDCHAR
STARTCHAR uni04ED
ENCODING 1261
SWIDTH 500 0
DWIDTH 6 0
BBX 5 8 1 0
BITMAP
50
00
F0
08
78
08
08
F0
ENDCHAR
STARTCHAR uni04EE
ENCODING 1262
SWIDTH 500 0
DWIDTH 6 0
BBX 5 10 1 0
BITMAP
70
00
88
88
88
88
50
50
20
C0
ENDCHAR
STARTCHAR uni04EF
ENCODING 1263
SWIDTH 500 0
DWIDTH 6 0
BBX 5 10 1 -2
BITMAP
70
00
88
88
88
50
50
20
20
C0
ENDCHAR
STARTCHAR uni04F0
ENCODING 1264
SWIDTH 500 0
DWIDTH 6 0
BBX 5 10 1 0
BITMAP
50
00
88
88
88
88
50
50
20
C0
ENDCHAR
STARTCHAR uni04F1
ENCODING 1265
SWIDTH 500 0
DWIDTH 6 0
BBX 5 10 1 -2
BITMAP
50
00
88
88
88
50
50
20
20
C0
ENDCHAR
STARTCHAR uni04F2
ENCODING 1266
SWIDTH 500 0
DWIDTH 6 0
BBX 5 10 1 0
BITMAP
28
50
00
88
88
88
50
50
20
C0
ENDCHAR
STARTCHAR uni04F3
ENCODING 1267
SWIDTH 500 0
DWIDTH 6 0
BBX 5 11 1 -2
BITMAP
28
50
00
88
88
88
50
50
20
20
C0
ENDCHAR
STARTCHAR uni04F4
ENCODING 1268
SWIDTH 500 0
DWIDTH 6 0
BBX 5 10 1 0
BITMAP
50
00
88
88
88
88
78
08
08
08
ENDCHAR
STARTCHAR uni04F5
ENCODING 1269
SWIDTH 500 0
DWIDTH 6 0
BBX 5 8 1 0
BITMAP
50
00
88
88
88
78
08
08
ENDCHAR
STARTCHAR uni04F6
ENCODING 1270
SWIDTH 500 0
DWIDTH 6 0
BBX 4 10 2 -2
BITMAP
F0
80
80
80
80
80
80
C0
40
40
ENDCHAR
STARTCHAR uni04F7
ENCODING 1271
SWIDTH 500 0
DWIDTH 6 0
BBX 4 8 2 -2
BITMAP
F0
80
80
80
80
C0
40
40
ENDCHAR
STARTCHAR uni04F8
ENCODING 1272
SWIDTH 500 0
DWIDTH 6 0
BBX 5 10 1 0
BITMAP
50
00
88
88
88
C8
A8
A8
A8
C8
ENDCHAR
STARTCHAR uni04F9
ENCODING 1273
SWIDTH 500 0
DWIDTH 6 0
BBX 5 8 1 0
BITMAP
50
00
88
88
C8
A8
A8
C8
ENDCHAR
STARTCHAR uni04FA
ENCODING 1274
SWIDTH 500 0
DWIDTH 6 0
BBX 5 10 1 -2
BITMAP
78
40
40
40
F0
40
40
70
10
60
ENDCHAR
STARTCHAR uni04FB
ENCODING 1275
SWIDTH 500 0
DWIDTH 6 0
BBX 5 8 1 -2
BITMAP
78
40
F0
40
40
70
10
60
ENDCHAR
STARTCHAR uni04FC
ENCODING 1276
SWIDTH 500 0
DWIDTH 6 0
BBX 5 10 1 -2
BITMAP
88
88
50
20
20
50
88
88
08
30
ENDCHAR
STARTCHAR uni04FD
ENCODING 1277
SWIDTH 500 0
DWIDTH 6 0
BBX 5 8 1 -2
BITMAP
88
50
20
20
50
88
08
30
ENDCHAR
STARTCHAR uni04FE
ENCODING 1278
SWIDTH 500 0
DWIDTH 6 0
BBX 5 8 1 0
BITMAP
88
88
50
F8
70
50
88
88
ENDCHAR
STARTCHAR uni04FF
ENCODING 1279
SWIDTH 500 0
DWIDTH 6 0
BBX 5 6 1 0
BITMAP
88
50
F8
70
50
88
ENDCHAR
STARTCHAR uni0500
ENCODING 1280
SWIDTH 500 0
DWIDTH 6 0
BBX 5 8 1 0
BITMAP
38
10
70
90
90
90
90
78
ENDCHAR
STARTCHAR uni0501
ENCODING 1281
SWIDTH 500 0
DWIDTH 6 0
BBX 5 8 1 0
BITMAP
08
68
98
88
88
88
98
68
ENDCHAR
STARTCHAR uni0502
ENCODING 1282
SWIDTH 500 0
DWIDTH 6 0
BBX 5 8 1 0
BITMAP
70
20
60
A8
A8
A8
A8
70
ENDCHAR
STARTCHAR uni0503
ENCODING 1283
SWIDTH 500 0
DWIDTH 6 0
BBX 5 8 1 0
BITMAP
20
20
60
A0
A0
A8
A8
70
ENDCHAR
STARTCHAR uni0504
ENCODING 1284
SWIDTH 500 0
DWIDTH 6 0
BBX 5 8 1 0
BITMAP
C0
20
20
C8
28
28
28
10
ENDCHAR
STARTCHAR uni0505
ENCODING 1285
SWIDTH 500 0
DWIDTH 6 0
BBX 5 6 1 0
BITMAP
C0
20
28
C8
28
10
ENDCHAR
STARTCHAR uni0506
ENCODING 1286
SWIDTH 500 0
DWIDTH 6 0
BBX 5 10 1 -2
BITMAP
60
90
10
20
60
10
10
18
08
08
ENDCHAR
STARTCHAR uni0507
ENCODING 1287
SWIDTH 500 0
DWIDTH 6 0
BBX 5 8 1 -2
BITMAP
60
90
10
60
10
18
08
08
ENDCHAR
STARTCHAR uni0508
ENCODING 1288
SWIDTH 500 0
DWIDTH 6 0
BBX 6 8 0 0
BITMAP
70
50
54
54
54
54
54
88
ENDCHAR
STARTCHAR uni0509
ENCODING 1289
SWIDTH 500 0
DWIDTH 6 0
BBX 6 6 0 0
BITMAP
70
50
54
54
54
88
ENDCHAR
STARTCHAR uni050A
ENCODING 1290
SWIDTH 500 0
DWIDTH 6 0
BBX 5 8 1 0
BITMAP
A0
A0
A8
E8
A8
A8
A8
90
ENDCHAR
STARTCHAR uni050B
ENCODING 1291
SWIDTH 500 0
DWIDTH 6 0
BBX 5 6 1 0
BITMAP
A0
A0
E8
A8
A8
90
ENDCHAR
STARTCHAR uni050C
ENCODING 1292
SWIDTH 500 0
DWIDTH 6 0
BBX 5 8 1 0
BITMAP
70
88
80
88
88
88
88
70
ENDCHAR
STARTCHAR uni050D
ENCODING 1293
SWIDTH 500 0
DWIDTH 6 0
BBX 5 6 1 0
BITMAP
70
88
80
88
88
70
ENDCHAR
STARTCHAR uni050E
ENCODING 1294
SWIDTH 500 0
DWIDTH 6 0
BBX 5 8 1 0
BITMAP
F8
20
20
28
28
28
28
10
ENDCHAR
STARTCHAR uni050F
ENCODING 1295
SWIDTH 500 0
DWIDTH 6 0
BBX 5 6 1 0
BITMAP
F8
20
28
28
28
10
ENDCHAR
STARTCHAR uni0510
ENCODING 1296
SWIDTH 500 0
DWIDTH 6 0
BBX 5 8 1 0
BITMAP
78
88
80
60
80
80
88
70
ENDCHAR
STARTCHAR uni0511
ENCODING 1297
SWIDTH 500 0
DWIDTH 6 0
BBX 5 6 1 0
BITMAP
70
88
60
80
88
70
ENDCHAR
STARTCHAR uni0512
ENCODING 1298
SWIDTH 500 0
DWIDTH 6 0
BBX 5 9 1 -1
BITMAP
78
48
48
48
48
48
48
88
30
ENDCHAR
STARTCHAR uni0513
ENCODING 1299
SWIDTH 500 0
DWIDTH 6 0
BBX 5 7 1 -1
BITMAP
78
48
48
48
48
88
30
ENDCHAR
STARTCHAR uni0514
ENCODING 1300
SWIDTH 500 0
DWIDTH 6 0
BBX 6 8 0 0
BITMAP
74
54
54
48
48
54
54
94
ENDCHAR
STARTCHAR uni0515
ENCODING 1301
SWIDTH 500 0
DWIDTH 6 0
BBX 6 6 0 0
BITMAP
74
54
48
48
54
94
ENDCHAR
STARTCHAR uni0516
ENCODING 1302
SWIDTH 500 0
DWIDTH 6 0
BBX 5 8 1 0
BITMAP
C8
A8
B0
A0
E0
90
88
88
ENDCHAR
STARTCHAR uni0517
ENCODING 1303
SWIDTH 500 0
DWIDTH 6 0
BBX 5 9 1 -3
BITMAP
C8
A8
B0
B0
A8
C8
80
80
80
ENDCHAR
STARTCHAR uni0518
ENCODING 1304
SWIDTH 500 0
DWIDTH 6 0
BBX 5 8 1 0
BITMAP
78
90
90
78
30
50
50
98
ENDCHAR
STARTCHAR uni0519
ENCODING 1305
SWIDTH 500 0
DWIDTH 6 0
BBX 5 6 1 0
BITMAP
70
A8
78
60
A8
90
ENDCHAR
STARTCHAR uni051A
ENCODING 1306
SWIDTH 500 0
DWIDTH 6 0
BBX 5 10 1 -2
BITMAP
70
88
88
88
88
88
88
70
20
10
ENDCHAR
STARTCHAR uni051B
ENCODING 1307
SWIDTH 500 0
DWIDTH 6 0
BBX 6 9 1 -3
BITMAP
78
88
88
88
88
78
08
08
0C
ENDCHAR
STARTCHAR uni051C
ENCODING 1308
SWIDTH 500 0
DWIDTH 6 0
BBX 5 8 1 0
BITMAP
A8
A8
A8
A8
A8
50
50
50
ENDCHAR
STARTCHAR uni051D
ENCODING 1309
SWIDTH 500 0
DWIDTH 6 0
BBX 5 6 1 0
BITMAP
A8
A8
A8
A8
50
50
ENDCHAR
STARTCHAR uni051E
ENCODING 1310
SWIDTH 500 0
DWIDTH 6 0
BBX 5 8 1 0
BITMAP
88
A8
90
A8
E0
90
88
88
ENDCHAR
STARTCHAR uni051F
ENCODING 1311
SWIDTH 500 0
DWIDTH 6 0
BBX 5 6 1 0
BITMAP
A8
90
A8
E0
90
88
ENDCHAR
STARTCHAR uni0520
ENCODING 1312
SWIDTH 500 0
DWIDTH 6 0
BBX 6 10 0 -2
BITMAP
70
50
50
50
58
54
54
94
04
08
ENDCHAR
STARTCHAR uni0521
ENCODING 1313
SWIDTH 500 0
DWIDTH 6 0
BBX 6 8 0 -2
BITMAP
70
50
50
58
54
94
04
08
ENDCHAR
STARTCHAR uni0522
ENCODING 1314
SWIDTH 500 0
DWIDTH 6 0
BBX 5 10 1 -2
BITMAP
A0
A0
A0
F0
A8
A8
A8
A8
08
10
ENDCHAR
STARTCHAR uni0523
ENCODING 1315
SWIDTH 500 0
DWIDTH 6 0
BBX 5 8 1 -2
BITMAP
A0
A0
A0
F0
A8
A8
08
10
ENDCHAR
STARTCHAR uni0524
ENCODING 1316
SWIDTH 500 0
DWIDTH 6 0
BBX 5 10 1 -2
BITMAP
F0
90
90
90
90
90
90
98
08
08
ENDCHAR
STARTCHAR uni0525
ENCODING 1317
SWIDTH 500 0
DWIDTH 6 0
BBX 5 8 1 -2
BITMAP
F0
90
90
90
90
98
08
08
ENDCHAR
STARTCHAR uni0526
ENCODING 1318
SWIDTH 500 0
DWIDTH 6 0
BBX 5 10 1 -2
BITMAP
80
80
80
E0
90
90
90
98
08
08
ENDCHAR
STARTCHAR uni0527
ENCODING 1319
SWIDTH 500 0
DWIDTH 6 0
BBX 5 8 1 -2
BITMAP
80
80
E0
90
90
98
08
08
ENDCHAR
STARTCHAR uni0528
ENCODING 1320
SWIDTH 500 0
DWIDTH 6 0
BBX 6 10 0 -2
BITMAP
24
24
24
3C
24
24
24
24
A0
40
ENDCHAR
STARTCHAR uni0529
ENCODING 1321
SWIDTH 500 0
DWIDTH 6 0
BBX 6 8 0 -2
BITMAP
24
24
24
3C
24
24
A0
40
ENDCHAR
STARTCHAR uni052A
ENCODING 1322
SWIDTH 500 0
DWIDTH 6 0
BBX 5 9 1 -1
BITMAP
28
68
68
A8
B0
A8
A8
E8
A0
ENDCHAR
STARTCHAR uni052B
ENCODING 1323
SWIDTH 500 0
DWIDTH 6 0
BBX 5 7 1 -1
BITMAP
28
68
68
B0
A8
E8
A0
ENDCHAR
STARTCHAR uni052C
ENCODING 1324
SWIDTH 500 0
DWIDTH 6 0
BBX 5 9 1 -1
BITMAP
90
B0
B0
D0
70
50
90
F8
88
ENDCHAR
STARTCHAR uni052D
ENCODING 1325
SWIDTH 500 0
DWIDTH 6 0
BBX 5 7 1 -1
BITMAP
90
B0
70
30
50
F8
88
ENDCHAR
STARTCHAR uni052E
ENCODING 1326
SWIDTH 500 0
DWIDTH 6 0
BBX 5 10 1 -2
BITMAP
70
50
50
50
50
50
50
98
08
08
ENDCHAR
STARTCHAR uni052F
ENCODING 1327
SWIDTH 500 0
DWIDTH 6 0
BBX 5 8 1 -2
BITMAP
70
50
50
50
50
98
08
08
ENDCHAR
STARTCHAR uni0531
ENCODING 1329
SWIDTH 1000 0
DWIDTH 6 0
BBX 5 9 1 -1
BITMAP
88
88
88
88
88
88
A8
70
08
ENDCHAR
STARTCHAR uni0532
ENCODING 1330
SWIDTH 1000 0
DWIDTH 6 0
BBX 5 8 1 0
BITMAP
70
88
88
80
F8
80
80
80
ENDCHAR
STARTCHAR uni0533
ENCODING 1331
SWIDTH 1000 0
DWIDTH 6 0
BBX 6 8 1 0
BITMAP
70
88
88
88
7C
08
08
08
ENDCHAR
STARTCHAR uni0534
ENCODING 1332
SWIDTH 1000 0
DWIDTH 6 0
BBX 6 8 1 0
BITMAP
70
88
88
88
1C
08
08
08
ENDCHAR
STARTCHAR uni0535
ENCODING 1333
SWIDTH 1000 0
DWIDTH 6 0
BBX 5 8 1 0
BITMAP
80
80
80
F8
80
88
88
70
ENDCHAR
STARTCHAR uni0536
ENCODING 1334
SWIDTH 1000 0
DWIDTH 6 0
BBX 5 8 1 0
BITMAP
70
88
88
08
08
08
90
F8
ENDCHAR
STARTCHAR uni0537
ENCODING 1335
SWIDTH 1000 0
DWIDTH 6 0
BBX 5 10 1 -2
BITMAP
80
80
80
F8
80
80
80
F0
08
10
ENDCHAR
STARTCHAR uni0538
ENCODING 1336
SWIDTH 1000 0
DWIDTH 6 0
BBX 5 8 1 0
BITMAP
70
88
88
88
80
80
80
F8
ENDCHAR
STARTCHAR uni0539
ENCODING 1337
SWIDTH 1000 0
DWIDTH 6 0
BBX 5 8 1 0
BITMAP
70
88
98
A8
A8
B0
80
80
ENDCHAR
STARTCHAR uni053A
ENCODING 1338
SWIDTH 1000 0
DWIDTH 6 0
BBX 6 8 1 0
BITMAP
08
08
08
7C
88
88
88
70
ENDCHAR
STARTCHAR uni053B
ENCODING 1339
SWIDTH 1000 0
DWIDTH 6 0
BBX 5 8 1 0
BITMAP
80
80
B0
C8
88
80
80
80
ENDCHAR
STARTCHAR uni053C
ENCODING 1340
SWIDTH 1000 0
DWIDTH 6 0
BBX 5 8 1 0
BITMAP
80
80
80
80
80
80
80
F8
ENDCHAR
STARTCHAR uni053D
ENCODING 1341
SWIDTH 1000 0
DWIDTH 6 0
BBX 5 8 1 0
BITMAP
80
80
80
C8
A8
A8
A8
90
ENDCHAR
STARTCHAR uni053E
ENCODING 1342
SWIDTH 1000 0
DWIDTH 6 0
BBX 5 8 1 0
BITMAP
18
E0
50
48
88
88
88
70
ENDCHAR
STARTCHAR uni053F
ENCODING 1343
SWIDTH 1000 0
DWIDTH 6 0
BBX 5 8 1 0
BITMAP
80
88
88
98
68
08
08
08
ENDCHAR
STARTCHAR uni0540
ENCODING 1344
SWIDTH 1000 0
DWIDTH 6 0
BBX 5 8 1 0
BITMAP
70
08
08
F0
08
08
08
08
ENDCHAR
STARTCHAR uni0541
ENCODING 1345
SWIDTH 1000 0
DWIDTH 6 0
BBX 5 8 1 0
BITMAP
70
88
88
08
68
98
88
70
ENDCHAR
STARTCHAR uni0542
ENCODING 1346
SWIDTH 1000 0
DWIDTH 6 0
BBX 6 8 1 0
BITMAP
70
88
88
88
08
08
08
0C
ENDCHAR
STARTCHAR uni0543
ENCODING 1347
SWIDTH 1000 0
DWIDTH 6 0
BBX 5 8 1 0
BITMAP
18
E0
50
48
88
88
88
F8
ENDCHAR
STARTCHAR uni0544
ENCODING 1348
SWIDTH 1000 0
DWIDTH 6 0
BBX 5 9 1 0
BITMAP
08
90
88
88
88
88
88
88
70
ENDCHAR
STARTCHAR uni0545
ENCODING 1349
SWIDTH 1000 0
DWIDTH 6 0
BBX 5 8 1 0
BITMAP
70
88
08
F0
08
88
88
70
ENDCHAR
STARTCHAR uni0546
ENCODING 1350
SWIDTH 1000 0
DWIDTH 6 0
BBX 5 8 1 0
BITMAP
80
40
80
80
88
88
88
70
ENDCHAR
STARTCHAR uni0547
ENCODING 1351
SWIDTH 1000 0
DWIDTH 6 0
BBX 5 8 1 0
BITMAP
C0
30
48
80
80
80
88
70
ENDCHAR
STARTCHAR uni0548
ENCODING 1352
SWIDTH 1000 0
DWIDTH 6 0
BBX 5 8 1 0
BITMAP
70
88
88
88
88
88
88
88
ENDCHAR
STARTCHAR uni0549
ENCODING 1353
SWIDTH 1000 0
DWIDTH 6 0
BBX 5 8 1 0
BITMAP
70
88
08
08
08
90
60
18
ENDCHAR
STARTCHAR uni054A
ENCODING 1354
SWIDTH 1000 0
DWIDTH 6 0
BBX 5 8 1 0
BITMAP
70
A8
A8
A8
28
28
08
08
ENDCHAR
STARTCHAR uni054B
ENCODING 1355
SWIDTH 1000 0
DWIDTH 6 0
BBX 5 8 1 0
BITMAP
70
88
88
68
10
10
A0
F8
ENDCHAR
STARTCHAR uni054C
ENCODING 1356
SWIDTH 1000 0
DWIDTH 6 0
BBX 6 8 1 0
BITMAP
70
88
88
9C
88
88
88
88
ENDCHAR
STARTCHAR uni054D
ENCODING 1357
SWIDTH 1000 0
DWIDTH 6 0
BBX 5 8 1 0
BITMAP
88
88
88
88
88
88
88
70
ENDCHAR
STARTCHAR uni054E
ENCODING 1358
SWIDTH 1000 0
DWIDTH 6 0
BBX 6 8 1 0
BITMAP
08
08
88
88
88
78
08
1C
ENDCHAR
STARTCHAR uni054F
ENCODING 1359
SWIDTH 1000 0
DWIDTH 6 0
BBX 5 8 1 0
BITMAP
70
88
80
70
08
08
88
70
ENDCHAR
STARTCHAR uni0550
ENCODING 1360
SWIDTH 1000 0
DWIDTH 6 0
BBX 5 8 1 0
BITMAP
70
88
88
88
80
80
80
80
ENDCHAR
STARTCHAR uni0551
ENCODING 1361
SWIDTH 1000 0
DWIDTH 6 0
BBX 5 8 1 0
BITMAP
30
48
48
F0
08
08
88
70
ENDCHAR
STARTCHAR uni0552
ENCODING 1362
SWIDTH 1000 0
DWIDTH 6 0
BBX 5 8 1 0
BITMAP
80
80
F0
88
80
80
80
80
ENDCHAR
STARTCHAR uni0553
ENCODING 1363
SWIDTH 1000 0
DWIDTH 6 0
BBX 5 8 1 0
BITMAP
20
70
A8
A8
A8
A8
70
20
ENDCHAR
STARTCHAR uni0554
ENCODING 1364
SWIDTH 1000 0
DWIDTH 6 0
BBX 5 8 1 0
BITMAP
70
88
88
88
F0
80
F8
80
ENDCHAR
STARTCHAR uni0555
ENCODING 1365
SWIDTH 1000 0
DWIDTH 6 0
BBX 5 8 1 0
BITMAP
70
88
88
88
88
88
88
70
ENDCHAR
STARTCHAR uni0556
ENCODING 1366
SWIDTH 1000 0
DWIDTH 6 0
BBX 5 8 1 0
BITMAP
60
A0
A0
70
28
A8
A8
70
ENDCHAR
STARTCHAR uni0559
ENCODING 1369
SWIDTH 1000 0
DWIDTH 6 0
BBX 2 3 2 7
BITMAP
40
80
C0
ENDCHAR
STARTCHAR uni055A
ENCODING 1370
SWIDTH 1000 0
DWIDTH 6 0
BBX 2 3 2 7
BITMAP
C0
40
80
ENDCHAR
STARTCHAR uni055B
ENCODING 1371
SWIDTH 1000 0
DWIDTH 6 0
BBX 3 3 2 7
BITMAP
20
40
80
ENDCHAR
STARTCHAR uni055C
ENCODING 1372
SWIDTH 1000 0
DWIDTH 6 0
BBX 5 3 1 7
BITMAP
08
70
80
ENDCHAR
STARTCHAR uni055D
ENCODING 1373
SWIDTH 1000 0
DWIDTH 6 0
BBX 3 3 2 7
BITMAP
C0
40
20
ENDCHAR
STARTCHAR uni055E
ENCODING 1374
SWIDTH 1000 0
DWIDTH 6 0
BBX 4 3 2 7
BITMAP
60
90
A0
ENDCHAR
STARTCHAR uni055F
ENCODING 1375
SWIDTH 1000 0
DWIDTH 6 0
BBX 5 2 1 8
BITMAP
40
F8
ENDCHAR
STARTCHAR uni0560
ENCODING 1376
SWIDTH 1000 0
DWIDTH 6 0
BBX 5 6 1 0
BITMAP
D0
A8
A8
A8
A8
A8
ENDCHAR
STARTCHAR uni0561
ENCODING 1377
SWIDTH 1000 0
DWIDTH 6 0
BBX 5 6 1 0
BITMAP
A8
A8
A8
A8
A8
58
ENDCHAR
STARTCHAR uni0562
ENCODING 1378
SWIDTH 1000 0
DWIDTH 6 0
BBX 5 9 1 -3
BITMAP
70
88
88
80
80
F8
80
80
80
ENDCHAR
STARTCHAR uni0563
ENCODING 1379
SWIDTH 1000 0
DWIDTH 6 0
BBX 6 9 1 -3
BITMAP
78
88
88
88
88
7C
08
08
08
ENDCHAR
STARTCHAR uni0564
ENCODING 1380
SWIDTH 1000 0
DWIDTH 6 0
BBX 6 9 1 -3
BITMAP
F0
88
88
88
88
9C
08
08
08
ENDCHAR
STARTCHAR uni0565
ENCODING 1381
SWIDTH 1000 0
DWIDTH 6 0
BBX 5 9 1 0
BITMAP
80
80
80
F8
80
88
88
88
78
ENDCHAR
STARTCHAR uni0566
ENCODING 1382
SWIDTH 1000 0
DWIDTH 6 0
BBX 6 9 1 -3
BITMAP
78
88
88
88
88
78
08
10
0C
ENDCHAR
STARTCHAR uni0567
ENCODING 1383
SWIDTH 1000 0
DWIDTH 6 0
BBX 5 9 1 0
BITMAP
80
80
80
F8
80
80
80
80
F0
ENDCHAR
STARTCHAR uni0568
ENCODING 1384
SWIDTH 1000 0
DWIDTH 6 0
BBX 5 9 1 -3
BITMAP
F0
88
88
88
88
88
80
80
F8
ENDCHAR
STARTCHAR uni0569
ENCODING 1385
SWIDTH 1000 0
DWIDTH 6 0
BBX 5 9 1 -3
BITMAP
F0
88
98
A8
A8
B0
80
80
80
ENDCHAR
STARTCHAR uni056A
ENCODING 1386
SWIDTH 1000 0
DWIDTH 6 0
BBX 6 9 1 0
BITMAP
08
08
08
7C
88
88
88
88
78
ENDCHAR
STARTCHAR uni056B
ENCODING 1387
SWIDTH 1000 0
DWIDTH 6 0
BBX 5 12 1 -3
BITMAP
80
80
80
F0
88
88
88
88
88
80
80
80
ENDCHAR
STARTCHAR uni056C
ENCODING 1388
SWIDTH 1000 0
DWIDTH 6 0
BBX 3 9 2 -3
BITMAP
C0
40
40
40
40
40
40
40
60
ENDCHAR
STARTCHAR uni056D
ENCODING 1389
SWIDTH 1000 0
DWIDTH 6 0
BBX 5 12 1 -3
BITMAP
80
80
80
C8
A8
A8
A8
A8
90
80
80
80
ENDCHAR
STARTCHAR uni056E
ENCODING 1390
SWIDTH 1000 0
DWIDTH 6 0
BBX 5 9 1 0
BITMAP
80
80
40
20
50
88
88
88
70
ENDCHAR
STARTCHAR uni056F
ENCODING 1391
SWIDTH 1000 0
DWIDTH 6 0
BBX 5 12 1 -3
BITMAP
80
80
80
88
88
88
88
88
78
08
08
08
ENDCHAR
STARTCHAR uni0570
ENCODING 1392
SWIDTH 1000 0
DWIDTH 6 0
BBX 5 9 1 0
BITMAP
80
80
80
F0
88
88
88
88
88
ENDCHAR
STARTCHAR uni0571
ENCODING 1393
SWIDTH 1000 0
DWIDTH 6 0
BBX 5 8 1 0
BITMAP
08
10
08
78
88
88
88
78
ENDCHAR
STARTCHAR uni0572
ENCODING 1394
SWIDTH 1000 0
DWIDTH 6 0
BBX 6 9 1 -3
BITMAP
F0
88
88
88
88
88
08
10
0C
ENDCHAR
STARTCHAR uni0573
ENCODING 1395
SWIDTH 1000 0
DWIDTH 6 0
BBX 5 9 1 0
BITMAP
10
60
80
80
F0
88
88
88
F0
ENDCHAR
STARTCHAR uni0574
ENCODING 1396
SWIDTH 1000 0
DWIDTH 6 0
BBX 5 9 1 0
BITMAP
08
10
08
88
88
88
88
88
78
ENDCHAR
STARTCHAR uni0575
ENCODING 1397
SWIDTH 1000 0
DWIDTH 6 0
BBX 3 9 2 -3
BITMAP
60
40
40
40
40
40
40
40
80
ENDCHAR
STARTCHAR uni0576
ENCODING 1398
SWIDTH 1000 0
DWIDTH 6 0
BBX 5 9 1 0
BITMAP
80
40
80
88
88
88
88
88
78
ENDCHAR
STARTCHAR uni0577
ENCODING 1399
SWIDTH 1000 0
DWIDTH 6 0
BBX 5 9 1 -3
BITMAP
70
88
88
08
10
20
40
80
F8
ENDCHAR
STARTCHAR uni0578
ENCODING 1400
SWIDTH 1000 0
DWIDTH 6 0
BBX 5 6 1 0
BITMAP
F0
88
88
88
88
88
ENDCHAR
STARTCHAR uni0579
ENCODING 1401
SWIDTH 1000 0
DWIDTH 6 0
BBX 5 9 1 -3
BITMAP
80
80
70
08
10
20
40
80
F8
ENDCHAR
STARTCHAR uni057A
ENCODING 1402
SWIDTH 1000 0
DWIDTH 6 0
BBX 5 9 1 -3
BITMAP
A8
A8
A8
A8
A8
58
08
08
08
ENDCHAR
STARTCHAR uni057B
ENCODING 1403
SWIDTH 1000 0
DWIDTH 6 0
BBX 5 9 1 -3
BITMAP
70
88
88
88
50
20
40
80
F8
ENDCHAR
STARTCHAR uni057C
ENCODING 1404
SWIDTH 1000 0
DWIDTH 6 0
BBX 5 6 1 0
BITMAP
F0
88
88
88
90
88
ENDCHAR
STARTCHAR uni057D
ENCODING 1405
SWIDTH 1000 0
DWIDTH 6 0
BBX 5 6 1 0
BITMAP
88
88
88
88
88
78
ENDCHAR
STARTCHAR uni057E
ENCODING 1406
SWIDTH 1000 0
DWIDTH 6 0
BBX 6 12 1 -3
BITMAP
08
08
08
88
88
88
88
88
78
08
10
0C
ENDCHAR
STARTCHAR uni057F
ENCODING 1407
SWIDTH 1000 0
DWIDTH 6 0
BBX 5 6 1 0
BITMAP
B0
A8
A8
A8
A8
68
ENDCHAR
STARTCHAR uni0580
ENCODING 1408
SWIDTH 1000 0
DWIDTH 6 0
BBX 5 9 1 -3
BITMAP
F0
88
88
88
88
88
80
80
80
ENDCHAR
STARTCHAR uni0581
ENCODING 1409
SWIDTH 1000 0
DWIDTH 6 0
BBX 5 9 1 -3
BITMAP
78
88
88
88
88
78
08
08
70
ENDCHAR
STARTCHAR uni0582
ENCODING 1410
SWIDTH 1000 0
DWIDTH 6 0
BBX 5 6 1 0
BITMAP
80
80
80
80
80
F8
ENDCHAR
STARTCHAR uni0583
ENCODING 1411
SWIDTH 1000 0
DWIDTH 6 0
BBX 5 12 1 -3
BITMAP
20
20
20
B0
A8
A8
A8
A8
68
20
20
20
ENDCHAR
STARTCHAR uni0584
ENCODING 1412
SWIDTH 1000 0
DWIDTH 6 0
BBX 5 9 1 -3
BITMAP
70
88
88
88
88
F0
80
F8
80
ENDCHAR
STARTCHAR uni0585
ENCODING 1413
SWIDTH 1000 0
DWIDTH 6 0
BBX 5 6 1 0
BITMAP
70
88
88
88
88
70
ENDCHAR
STARTCHAR uni0586
ENCODING 1414
SWIDTH 1000 0
DWIDTH 6 0
BBX 5 12 1 -3
BITMAP
60
A0
A0
70
28
28
28
A8
70
20
20
20
ENDCHAR
STARTCHAR uni0587
ENCODING 1415
SWIDTH 1000 0
DWIDTH 6 0
BBX 6 9 1 0
BITMAP
80
80
80
88
88
88
88
88
7C
ENDCHAR
STARTCHAR uni0588
ENCODING 1416
SWIDTH 1000 0
DWIDTH 6 0
BBX 5 9 1 -3
BITMAP
30
20
20
20
20
F8
20
20
C0
ENDCHAR
STARTCHAR uni0589
ENCODING 1417
SWIDTH 1000 0
DWIDTH 6 0
BBX 2 6 2 0
BITMAP
C0
C0
00
00
C0
C0
ENDCHAR
STARTCHAR uni058A
ENCODING 1418
SWIDTH 1000 0
DWIDTH 6 0
BBX 5 2 1 4
BITMAP
80
78
ENDCHAR
STARTCHAR uni058D
ENCODING 1421
SWIDTH 1000 0
DWIDTH 12 0
BBX 11 11 1 -2
BITMAP
1F00
2980
5240
D5A0
AA60
9520
CAA0
B560
4940
3280
1F00
ENDCHAR
STARTCHAR uni058E
ENCODING 1422
SWIDTH 1000 0
DWIDTH 12 0
BBX 11 11 1 -2
BITMAP
1F00
3280
4940
B560
CAA0
9520
AA60
D5A0
5240
2980
1F00
ENDCHAR
STARTCHAR uni058F
ENCODING 1423
SWIDTH 1000 0
DWIDTH 6 0
BBX 5 8 1 0
BITMAP
60
90
90
38
10
38
10
10
ENDCHAR
STARTCHAR uni0591
ENCODING 1425
SWIDTH 1000 0
DWIDTH 6 0
BBX 3 2 2 -3
BITMAP
E0
A0
ENDCHAR
STARTCHAR uni0592
ENCODING 1426
SWIDTH 1000 0
DWIDTH 6 0
BBX 5 1 1 8
BITMAP
A8
ENDCHAR
STARTCHAR uni0593
ENCODING 1427
SWIDTH 1000 0
DWIDTH 6 0
BBX 2 4 1 6
BITMAP
40
80
40
80
ENDCHAR
STARTCHAR uni0594
ENCODING 1428
SWIDTH 1000 0
DWIDTH 6 0
BBX 1 3 3 7
BITMAP
80
00
80
ENDCHAR
STARTCHAR uni0595
ENCODING 1429
SWIDTH 1000 0
DWIDTH 6 0
BBX 3 3 2 7
BITMAP
A0
80
A0
ENDCHAR
STARTCHAR uni0596
ENCODING 1430
SWIDTH 1000 0
DWIDTH 6 0
BBX 3 2 2 -3
BITMAP
80
60
ENDCHAR
STARTCHAR uni0597
ENCODING 1431
SWIDTH 1000 0
DWIDTH 6 0
BBX 3 3 2 7
BITMAP
40
E0
40
ENDCHAR
STARTCHAR uni0598
ENCODING 1432
SWIDTH 1000 0
DWIDTH 6 0
BBX 5 3 1 7
BITMAP
48
A8
90
ENDCHAR
STARTCHAR uni0599
ENCODING 1433
SWIDTH 1000 0
DWIDTH 6 0
BBX 3 2 1 8
BITMAP
C0
20
ENDCHAR
STARTCHAR uni059A
ENCODING 1434
SWIDTH 1000 0
DWIDTH 6 0
BBX 2 3 4 -3
BITMAP
40
80
40
ENDCHAR
STARTCHAR uni059B
ENCODING 1435
SWIDTH 1000 0
DWIDTH 6 0
BBX 3 3 1 -3
BITMAP
80
20
C0
ENDCHAR
STARTCHAR uni059C
ENCODING 1436
SWIDTH 1000 0
DWIDTH 6 0
BBX 3 2 2 8
BITMAP
60
80
ENDCHAR
STARTCHAR uni059D
ENCODING 1437
SWIDTH 1000 0
DWIDTH 6 0
BBX 3 2 3 8
BITMAP
60
80
ENDCHAR
STARTCHAR uni059E
ENCODING 1438
SWIDTH 1000 0
DWIDTH 6 0
BBX 5 2 1 8
BITMAP
68
90
ENDCHAR
STARTCHAR uni059F
ENCODING 1439
SWIDTH 1000 0
DWIDTH 6 0
BBX 4 2 1 8
BITMAP
90
60
ENDCHAR
STARTCHAR uni05A0
ENCODING 1440
SWIDTH 1000 0
DWIDTH 6 0
BBX 2 2 4 8
BITMAP
40
80
ENDCHAR
STARTCHAR uni05A1
ENCODING 1441
SWIDTH 1000 0
DWIDTH 6 0
BBX 3 3 1 7
BITMAP
A0
C0
80
ENDCHAR
STARTCHAR uni05A2
ENCODING 1442
SWIDTH 1000 0
DWIDTH 6 0
BBX 3 2 2 -3
BITMAP
A0
E0
ENDCHAR
STARTCHAR uni05A3
ENCODING 1443
SWIDTH 1000 0
DWIDTH 6 0
BBX 3 2 1 -3
BITMAP
20
E0
ENDCHAR
STARTCHAR uni05A4
ENCODING 1444
SWIDTH 1000 0
DWIDTH 6 0
BBX 2 3 1 -3
BITMAP
40
80
40
ENDCHAR
STARTCHAR uni05A5
ENCODING 1445
SWIDTH 1000 0
DWIDTH 6 0
BBX 3 2 1 -3
BITMAP
20
C0
ENDCHAR
STARTCHAR uni05A6
ENCODING 1446
SWIDTH 1000 0
DWIDTH 6 0
BBX 5 2 1 -3
BITMAP
48
B0
ENDCHAR
STARTCHAR uni05A7
ENCODING 1447
SWIDTH 1000 0
DWIDTH 6 0
BBX 2 3 2 -3
BITMAP
80
40
C0
ENDCHAR
STARTCHAR uni05A8
ENCODING 1448
SWIDTH 1000 0
DWIDTH 6 0
BBX 3 2 1 8
BITMAP
C0
20
ENDCHAR
STARTCHAR uni05A9
ENCODING 1449
SWIDTH 1000 0
DWIDTH 6 0
BBX 2 2 1 8
BITMAP
80
40
ENDCHAR
STARTCHAR uni05AA
ENCODING 1450
SWIDTH 1000 0
DWIDTH 6 0
BBX 3 2 2 -3
BITMAP
A0
E0
ENDCHAR
STARTCHAR uni05AB
ENCODING 1451
SWIDTH 1000 0
DWIDTH 6 0
BBX 2 3 2 7
BITMAP
40
80
40
ENDCHAR
STARTCHAR uni05AC
ENCODING 1452
SWIDTH 1000 0
DWIDTH 6 0
BBX 3 2 2 8
BITMAP
20
E0
ENDCHAR
STARTCHAR uni05AD
ENCODING 1453
SWIDTH 1000 0
DWIDTH 6 0
BBX 3 2 3 -3
BITMAP
80
60
ENDCHAR
STARTCHAR uni05AE
ENCODING 1454
SWIDTH 1000 0
DWIDTH 6 0
BBX 5 3 1 7
BITMAP
48
A8
90
ENDCHAR
STARTCHAR uni05AF
ENCODING 1455
SWIDTH 1000 0
DWIDTH 6 0
BBX 3 3 2 7
BITMAP
40
A0
40
ENDCHAR
STARTCHAR afii57799
ENCODING 1456
SWIDTH 1000 0
DWIDTH 6 0
BBX 1 3 3 -3
BITMAP
80
00
80
ENDCHAR
STARTCHAR afii57801
ENCODING 1457
SWIDTH 1000 0
DWIDTH 6 0
BBX 5 3 1 -3
BITMAP
A8
00
48
ENDCHAR
STARTCHAR afii57800
ENCODING 1458
SWIDTH 1000 0
DWIDTH 6 0
BBX 5 3 1 -3
BITMAP
08
E0
08
ENDCHAR
STARTCHAR afii57802
ENCODING 1459
SWIDTH 1000 0
DWIDTH 6 0
BBX 5 3 1 -3
BITMAP
E8
40
48
ENDCHAR
STARTCHAR afii57793
ENCODING 1460
SWIDTH 1000 0
DWIDTH 6 0
BBX 1 1 3 -2
BITMAP
80
ENDCHAR
STARTCHAR afii57794
ENCODING 1461
SWIDTH 1000 0
DWIDTH 6 0
BBX 3 1 2 -2
BITMAP
A0
ENDCHAR
STARTCHAR afii57795
ENCODING 1462
SWIDTH 1000 0
DWIDTH 6 0
BBX 3 2 2 -3
BITMAP
A0
40
ENDCHAR
STARTCHAR afii57798
ENCODING 1463
SWIDTH 1000 0
DWIDTH 6 0
BBX 3 1 2 -2
BITMAP
E0
ENDCHAR
STARTCHAR afii57797
ENCODING 1464
SWIDTH 1000 0
DWIDTH 6 0
BBX 3 2 2 -3
BITMAP
E0
40
ENDCHAR
STARTCHAR afii57806
ENCODING 1465
SWIDTH 1000 0
DWIDTH 6 0
BBX 1 1 1 8
BITMAP
80
ENDCHAR
STARTCHAR uni05BA
ENCODING 1466
SWIDTH 1000 0
DWIDTH 6 0
BBX 1 1 1 8
BITMAP
80
ENDCHAR
STARTCHAR afii57796
ENCODING 1467
SWIDTH 1000 0
DWIDTH 6 0
BBX 5 1 1 -2
BITMAP
A8
ENDCHAR
STARTCHAR afii57807
ENCODING 1468
SWIDTH 1000 0
DWIDTH 6 0
BBX 1 1 2 3
BITMAP
80
ENDCHAR
STARTCHAR afii57839
ENCODING 1469
SWIDTH 1000 0
DWIDTH 6 0
BBX 1 3 1 -3
BITMAP
80
80
80
ENDCHAR
STARTCHAR afii57645
ENCODING 1470
SWIDTH 1000 0
DWIDTH 6 0
BBX 3 1 2 8
BITMAP
E0
ENDCHAR
STARTCHAR afii57841
ENCODING 1471
SWIDTH 1000 0
DWIDTH 6 0
BBX 3 1 2 8
BITMAP
E0
ENDCHAR
STARTCHAR afii57842
ENCODING 1472
SWIDTH 1000 0
DWIDTH 6 0
BBX 1 8 3 0
BITMAP
80
80
80
80
80
80
80
80
ENDCHAR
STARTCHAR afii57804
ENCODING 1473
SWIDTH 1000 0
DWIDTH 6 0
BBX 1 1 5 8
BITMAP
80
ENDCHAR
STARTCHAR afii57803
ENCODING 1474
SWIDTH 1000 0
DWIDTH 6 0
BBX 1 1 1 8
BITMAP
80
ENDCHAR
STARTCHAR afii57658
ENCODING 1475
SWIDTH 1000 0
DWIDTH 6 0
BBX 2 6 2 0
BITMAP
C0
C0
00
00
C0
C0
ENDCHAR
STARTCHAR uni05C4
ENCODING 1476
SWIDTH 1000 0
DWIDTH 6 0
BBX 1 1 3 8
BITMAP
80
ENDCHAR
STARTCHAR uni05C5
ENCODING 1477
SWIDTH 1000 0
DWIDTH 6 0
BBX 1 1 3 -2
BITMAP
80
ENDCHAR
STARTCHAR uni05C6
ENCODING 1478
SWIDTH 1000 0
DWIDTH 6 0
BBX 3 6 2 0
BITMAP
60
80
80
80
80
E0
ENDCHAR
STARTCHAR uni05C7
ENCODING 1479
SWIDTH 1000 0
DWIDTH 6 0
BBX 3 3 2 -3
BITMAP
E0
40
40
ENDCHAR
STARTCHAR afii57664
ENCODING 1488
SWIDTH 1000 0
DWIDTH 6 0
BBX 5 6 1 0
BITMAP
90
48
30
60
90
88
ENDCHAR
STARTCHAR afii57665
ENCODING 1489
SWIDTH 1000 0
DWIDTH 6 0
BBX 5 6 1 0
BITMAP
E0
10
10
10
10
F8
ENDCHAR
STARTCHAR afii57666
ENCODING 1490
SWIDTH 1000 0
DWIDTH 6 0
BBX 4 6 1 0
BITMAP
C0
20
20
60
A0
90
ENDCHAR
STARTCHAR afii57667
ENCODING 1491
SWIDTH 1000 0
DWIDTH 6 0
BBX 5 6 1 0
BITMAP
F8
08
10
10
10
10
ENDCHAR
STARTCHAR afii57668
ENCODING 1492
SWIDTH 1000 0
DWIDTH 6 0
BBX 5 6 1 0
BITMAP
F8
08
10
10
90
90
ENDCHAR
STARTCHAR afii57669
ENCODING 1493
SWIDTH 1000 0
DWIDTH 6 0
BBX 2 7 2 0
BITMAP
80
C0
40
40
40
40
40
ENDCHAR
STARTCHAR afii57670
ENCODING 1494
SWIDTH 1000 0
DWIDTH 6 0
BBX 3 6 2 0
BITMAP
E0
20
40
40
40
40
ENDCHAR
STARTCHAR afii57671
ENCODING 1495
SWIDTH 1000 0
DWIDTH 6 0
BBX 5 6 1 0
BITMAP
F8
08
90
90
90
90
ENDCHAR
STARTCHAR afii57672
ENCODING 1496
SWIDTH 1000 0
DWIDTH 6 0
BBX 5 6 1 0
BITMAP
90
A8
88
88
88
70
ENDCHAR
STARTCHAR afii57673
ENCODING 1497
SWIDTH 1000 0
DWIDTH 6 0
BBX 2 4 2 3
BITMAP
80
C0
40
80
ENDCHAR
STARTCHAR afii57674
ENCODING 1498
SWIDTH 1000 0
DWIDTH 6 0
BBX 5 9 1 -3
BITMAP
F0
08
08
08
08
08
08
08
08
ENDCHAR
STARTCHAR afii57675
ENCODING 1499
SWIDTH 1000 0
DWIDTH 6 0
BBX 5 6 1 0
BITMAP
F0
08
08
08
08
F0
ENDCHAR
STARTCHAR afii57676
ENCODING 1500
SWIDTH 1000 0
DWIDTH 6 0
BBX 3 6 2 0
BITMAP
80
E0
20
20
40
80
ENDCHAR
STARTCHAR afii57677
ENCODING 1501
SWIDTH 1000 0
DWIDTH 6 0
BBX 5 6 1 0
BITMAP
F0
48
88
88
88
F8
ENDCHAR
STARTCHAR afii57678
ENCODING 1502
SWIDTH 1000 0
DWIDTH 6 0
BBX 5 6 1 0
BITMAP
B0
48
48
48
88
B0
ENDCHAR
STARTCHAR afii57679
ENCODING 1503
SWIDTH 1000 0
DWIDTH 6 0
BBX 3 8 2 -2
BITMAP
C0
20
40
40
40
40
40
40
ENDCHAR
STARTCHAR afii57680
ENCODING 1504
SWIDTH 1000 0
DWIDTH 6 0
BBX 3 6 2 0
BITMAP
C0
20
20
20
20
E0
ENDCHAR
STARTCHAR afii57681
ENCODING 1505
SWIDTH 1000 0
DWIDTH 6 0
BBX 5 6 1 0
BITMAP
F0
48
88
88
88
70
ENDCHAR
STARTCHAR afii57682
ENCODING 1506
SWIDTH 1000 0
DWIDTH 6 0
BBX 5 6 1 0
BITMAP
48
48
48
28
10
E0
ENDCHAR
STARTCHAR afii57683
ENCODING 1507
SWIDTH 1000 0
DWIDTH 6 0
BBX 5 8 1 -2
BITMAP
F0
88
C8
88
08
08
08
08
ENDCHAR
STARTCHAR afii57684
ENCODING 1508
SWIDTH 1000 0
DWIDTH 6 0
BBX 5 6 1 0
BITMAP
F0
88
C8
88
08
F0
ENDCHAR
STARTCHAR afii57685
ENCODING 1509
SWIDTH 1000 0
DWIDTH 6 0
BBX 5 8 1 -2
BITMAP
88
88
90
A0
C0
80
80
80
ENDCHAR
STARTCHAR afii57686
ENCODING 1510
SWIDTH 1000 0
DWIDTH 6 0
BBX 5 6 1 0
BITMAP
48
48
28
10
08
F8
ENDCHAR
STARTCHAR afii57687
ENCODING 1511
SWIDTH 1000 0
DWIDTH 6 0
BBX 5 8 1 -2
BITMAP
F0
08
88
90
A0
A0
80
80
ENDCHAR
STARTCHAR afii57688
ENCODING 1512
SWIDTH 1000 0
DWIDTH 6 0
BBX 5 6 1 0
BITMAP
F0
08
08
08
08
08
ENDCHAR
STARTCHAR afii57689
ENCODING 1513
SWIDTH 1000 0
DWIDTH 6 0
BBX 5 6 1 0
BITMAP
A8
A8
A8
C8
90
60
ENDCHAR
STARTCHAR afii57690
ENCODING 1514
SWIDTH 1000 0
DWIDTH 6 0
BBX 5 6 1 0
BITMAP
F0
48
48
48
48
88
ENDCHAR
STARTCHAR uni05EF
ENCODING 1519
SWIDTH 1000 0
DWIDTH 6 0
BBX 5 7 1 3
BITMAP
20
30
10
A0
D8
48
90
ENDCHAR
STARTCHAR afii57716
ENCODING 1520
SWIDTH 1000 0
DWIDTH 6 0
BBX 5 7 1 0
BITMAP
90
D8
48
48
48
48
48
ENDCHAR
STARTCHAR afii57717
ENCODING 1521
SWIDTH 1000 0
DWIDTH 6 0
BBX 5 7 1 0
BITMAP
90
D8
48
88
08
08
08
ENDCHAR
STARTCHAR afii57718
ENCODING 1522
SWIDTH 1000 0
DWIDTH 6 0
BBX 5 4 1 3
BITMAP
90
D8
48
90
ENDCHAR
STARTCHAR uni05F3
ENCODING 1523
SWIDTH 1000 0
DWIDTH 6 0
BBX 3 3 2 6
BITMAP
20
40
80
ENDCHAR
STARTCHAR uni05F4
ENCODING 1524
SWIDTH 1000 0
DWIDTH 6 0
BBX 5 3 1 6
BITMAP
28
50
A0
ENDCHAR
STARTCHAR uni0780
ENCODING 1920
SWIDTH 1000 0
DWIDTH 6 0
BBX 3 6 2 0
BITMAP
20
20
20
20
20
C0
ENDCHAR
STARTCHAR uni0781
ENCODING 1921
SWIDTH 1000 0
DWIDTH 6 0
BBX 5 6 1 0
BITMAP
88
88
88
F0
80
80
ENDCHAR
STARTCHAR uni0782
ENCODING 1922
SWIDTH 1000 0
DWIDTH 6 0
BBX 5 6 1 0
BITMAP
A8
A8
A8
D0
80
80
ENDCHAR
STARTCHAR uni0783
ENCODING 1923
SWIDTH 1000 0
DWIDTH 6 0
BBX 5 6 1 0
BITMAP
10
90
F8
80
80
80
ENDCHAR
STARTCHAR uni0784
ENCODING 1924
SWIDTH 1000 0
DWIDTH 6 0
BBX 5 6 1 0
BITMAP
50
A8
A8
A8
A8
70
ENDCHAR
STARTCHAR uni0785
ENCODING 1925
SWIDTH 1000 0
DWIDTH 6 0
BBX 5 6 1 0
BITMAP
88
88
88
78
08
08
ENDCHAR
STARTCHAR uni0786
ENCODING 1926
SWIDTH 1000 0
DWIDTH 6 0
BBX 5 6 1 0
BITMAP
88
88
88
88
90
E0
ENDCHAR
STARTCHAR uni0787
ENCODING 1927
SWIDTH 1000 0
DWIDTH 6 0
BBX 5 6 1 0
BITMAP
38
48
88
88
88
88
ENDCHAR
STARTCHAR uni0788
ENCODING 1928
SWIDTH 1000 0
DWIDTH 6 0
BBX 5 6 1 0
BITMAP
70
88
88
78
08
08
ENDCHAR
STARTCHAR uni0789
ENCODING 1929
SWIDTH 1000 0
DWIDTH 6 0
BBX 5 6 1 0
BITMAP
F8
08
08
08
10
E0
ENDCHAR
STARTCHAR uni078A
ENCODING 1930
SWIDTH 1000 0
DWIDTH 6 0
BBX 5 6 1 0
BITMAP
78
08
30
08
10
E0
ENDCHAR
STARTCHAR uni078B
ENCODING 1931
SWIDTH 1000 0
DWIDTH 6 0
BBX 5 6 1 0
BITMAP
F0
08
08
70
80
80
ENDCHAR
STARTCHAR uni078C
ENCODING 1932
SWIDTH 1000 0
DWIDTH 6 0
BBX 5 6 1 0
BITMAP
70
88
88
F0
80
70
ENDCHAR
STARTCHAR uni078D
ENCODING 1933
SWIDTH 1000 0
DWIDTH 6 0
BBX 5 6 1 0
BITMAP
88
98
A8
C8
88
08
ENDCHAR
STARTCHAR uni078E
ENCODING 1934
SWIDTH 1000 0
DWIDTH 6 0
BBX 5 6 1 0
BITMAP
10
20
10
08
08
F0
ENDCHAR
STARTCHAR uni078F
ENCODING 1935
SWIDTH 1000 0
DWIDTH 6 0
BBX 5 6 1 0
BITMAP
A8
A8
A8
D0
80
70
ENDCHAR
STARTCHAR uni0790
ENCODING 1936
SWIDTH 1000 0
DWIDTH 6 0
BBX 5 4 1 1
BITMAP
08
08
F0
80
ENDCHAR
STARTCHAR uni0791
ENCODING 1937
SWIDTH 1000 0
DWIDTH 6 0
BBX 5 6 1 0
BITMAP
70
80
60
80
80
78
ENDCHAR
STARTCHAR uni0792
ENCODING 1938
SWIDTH 1000 0
DWIDTH 6 0
BBX 5 6 1 0
BITMAP
10
90
F8
80
80
70
ENDCHAR
STARTCHAR uni0793
ENCODING 1939
SWIDTH 1000 0
DWIDTH 6 0
BBX 5 6 1 0
BITMAP
50
A8
A8
F0
80
70
ENDCHAR
STARTCHAR uni0794
ENCODING 1940
SWIDTH 1000 0
DWIDTH 6 0
BBX 5 6 1 0
BITMAP
F8
48
48
48
48
88
ENDCHAR
STARTCHAR uni0795
ENCODING 1941
SWIDTH 1000 0
DWIDTH 6 0
BBX 5 6 1 0
BITMAP
78
08
30
10
20
C8
ENDCHAR
STARTCHAR uni0796
ENCODING 1942
SWIDTH 1000 0
DWIDTH 6 0
BBX 5 6 1 0
BITMAP
F0
08
08
F0
80
70
ENDCHAR
STARTCHAR uni0797
ENCODING 1943
SWIDTH 1000 0
DWIDTH 6 0
BBX 5 7 1 0
BITMAP
80
F0
88
88
F0
80
70
ENDCHAR
STARTCHAR uni0798
ENCODING 1944
SWIDTH 1000 0
DWIDTH 6 0
BBX 5 6 1 0
BITMAP
50
A8
48
F0
80
70
ENDCHAR
STARTCHAR uni0799
ENCODING 1945
SWIDTH 1000 0
DWIDTH 6 0
BBX 5 6 1 0
BITMAP
20
20
20
20
20
C8
ENDCHAR
STARTCHAR uni079A
ENCODING 1946
SWIDTH 1000 0
DWIDTH 6 0
BBX 3 6 2 0
BITMAP
20
A0
20
20
20
C0
ENDCHAR
STARTCHAR uni079B
ENCODING 1947
SWIDTH 1000 0
DWIDTH 6 0
BBX 5 6 1 0
BITMAP
B0
08
08
70
80
80
ENDCHAR
STARTCHAR uni079C
ENCODING 1948
SWIDTH 1000 0
DWIDTH 6 0
BBX 5 6 1 0
BITMAP
90
10
F8
80
80
80
ENDCHAR
STARTCHAR uni079D
ENCODING 1949
SWIDTH 1000 0
DWIDTH 6 0
BBX 5 5 1 1
BITMAP
40
A8
08
F0
80
ENDCHAR
STARTCHAR uni079E
ENCODING 1950
SWIDTH 1000 0
DWIDTH 6 0
BBX 5 5 1 0
BITMAP
08
08
F0
80
20
ENDCHAR
STARTCHAR uni079F
ENCODING 1951
SWIDTH 1000 0
DWIDTH 6 0
BBX 5 4 1 1
BITMAP
48
08
F0
80
ENDCHAR
STARTCHAR uni07A0
ENCODING 1952
SWIDTH 1000 0
DWIDTH 6 0
BBX 5 6 1 0
BITMAP
70
88
88
F0
80
48
ENDCHAR
STARTCHAR uni07A1
ENCODING 1953
SWIDTH 1000 0
DWIDTH 6 0
BBX 5 6 1 0
BITMAP
B0
48
88
F0
80
70
ENDCHAR
STARTCHAR uni07A2
ENCODING 1954
SWIDTH 1000 0
DWIDTH 6 0
BBX 5 6 1 0
BITMAP
38
48
88
88
88
A8
ENDCHAR
STARTCHAR uni07A3
ENCODING 1955
SWIDTH 1000 0
DWIDTH 6 0
BBX 5 6 1 0
BITMAP
B8
48
88
88
88
88
ENDCHAR
STARTCHAR uni07A4
ENCODING 1956
SWIDTH 1000 0
DWIDTH 6 0
BBX 5 6 1 0
BITMAP
90
20
90
08
08
F0
ENDCHAR
STARTCHAR uni07A5
ENCODING 1957
SWIDTH 1000 0
DWIDTH 6 0
BBX 4 6 1 0
BITMAP
40
60
90
70
10
60
ENDCHAR
STARTCHAR uni07A6
ENCODING 1958
SWIDTH 1000 0
DWIDTH 0 0
BBX 1 2 2 7
BITMAP
80
80
ENDCHAR
STARTCHAR uni07A7
ENCODING 1959
SWIDTH 1000 0
DWIDTH 0 0
BBX 3 2 2 7
BITMAP
A0
A0
ENDCHAR
STARTCHAR uni07A8
ENCODING 1960
SWIDTH 1000 0
DWIDTH 0 0
BBX 1 2 2 -3
BITMAP
80
80
ENDCHAR
STARTCHAR uni07A9
ENCODING 1961
SWIDTH 1000 0
DWIDTH 0 0
BBX 3 2 2 -3
BITMAP
A0
A0
ENDCHAR
STARTCHAR uni07AA
ENCODING 1962
SWIDTH 1000 0
DWIDTH 0 0
BBX 2 2 1 7
BITMAP
C0
40
ENDCHAR
STARTCHAR uni07AB
ENCODING 1963
SWIDTH 1000 0
DWIDTH 0 0
BBX 4 2 1 7
BITMAP
F0
50
ENDCHAR
STARTCHAR uni07AC
ENCODING 1964
SWIDTH 1000 0
DWIDTH 0 0
BBX 2 2 2 7
BITMAP
80
C0
ENDCHAR
STARTCHAR uni07AD
ENCODING 1965
SWIDTH 1000 0
DWIDTH 0 0
BBX 4 2 2 7
BITMAP
A0
F0
ENDCHAR
STARTCHAR uni07AE
ENCODING 1966
SWIDTH 1000 0
DWIDTH 0 0
BBX 3 3 2 7
BITMAP
A0
40
A0
ENDCHAR
STARTCHAR uni07AF
ENCODING 1967
SWIDTH 1000 0
DWIDTH 0 0
BBX 4 2 2 7
BITMAP
90
60
ENDCHAR
STARTCHAR uni07B0
ENCODING 1968
SWIDTH 1000 0
DWIDTH 0 0
BBX 3 3 2 7
BITMAP
40
A0
40
ENDCHAR
STARTCHAR uni07B1
ENCODING 1969
SWIDTH 1000 0
DWIDTH 6 0
BBX 5 6 1 0
BITMAP
70
88
88
70
80
78
ENDCHAR
STARTCHAR uni0C80
ENCODING 3200
SWIDTH 1000 0
DWIDTH 6 0
BBX 5 3 1 1
BITMAP
A8
88
70
ENDCHAR
STARTCHAR uni0C81
ENCODING 3201
SWIDTH 1000 0
DWIDTH 6 0
BBX 5 3 1 6
BITMAP
A8
88
70
ENDCHAR
STARTCHAR uni0C82
ENCODING 3202
SWIDTH 1000 0
DWIDTH 6 0
BBX 5 7 1 0
BITMAP
70
88
88
88
88
88
70
ENDCHAR
STARTCHAR uni0C83
ENCODING 3203
SWIDTH 1000 0
DWIDTH 6 0
BBX 5 7 1 0
BITMAP
70
88
70
00
70
88
70
ENDCHAR
STARTCHAR uni0C84
ENCODING 3204
SWIDTH 1000 0
DWIDTH 8 0
BBX 7 8 1 -1
BITMAP
38
44
92
AA
AA
72
04
38
ENDCHAR
STARTCHAR uni0C85
ENCODING 3205
SWIDTH 1000 0
DWIDTH 9 0
BBX 8 7 1 0
BITMAP
62
95
E5
85
BD
81
7E
ENDCHAR
STARTCHAR uni0C86
ENCODING 3206
SWIDTH 1000 0
DWIDTH 8 0
BBX 7 7 1 0
BITMAP
44
AA
CA
8A
BC
82
7C
ENDCHAR
STARTCHAR uni0C87
ENCODING 3207
SWIDTH 1000 0
DWIDTH 8 0
BBX 8 7 1 0
BITMAP
6C
92
92
02
3A
44
3B
ENDCHAR
STARTCHAR uni0C88
ENCODING 3208
SWIDTH 1000 0
DWIDTH 12 0
BBX 11 8 1 0
BITMAP
0200
FE00
38C0
4520
4520
FFC0
4500
38C0
ENDCHAR
STARTCHAR uni0C89
ENCODING 3209
SWIDTH 1000 0
DWIDTH 12 0
BBX 10 7 1 0
BITMAP
4480
AA40
AA40
CA40
8A40
8A40
7180
ENDCHAR
STARTCHAR uni0C8A
ENCODING 3210
SWIDTH 1000 0
DWIDTH 12 0
BBX 11 7 1 0
BITMAP
48C0
B520
B520
D560
95A0
95A0
6240
ENDCHAR
STARTCHAR uni0C8B
ENCODING 3211
SWIDTH 1000 0
DWIDTH 12 0
BBX 11 8 1 0
BITMAP
0040
73C0
A900
4940
0920
4920
A920
76C0
ENDCHAR
STARTCHAR uni0C8C
ENCODING 3212
SWIDTH 1000 0
DWIDTH 8 0
BBX 7 7 1 0
BITMAP
6C
92
92
02
1C
20
1E
ENDCHAR
STARTCHAR uni0C8E
ENCODING 3214
SWIDTH 1000 0
DWIDTH 8 0
BBX 7 7 1 0
BITMAP
7C
02
02
42
92
92
6C
ENDCHAR
STARTCHAR uni0C8F
ENCODING 3215
SWIDTH 1000 0
DWIDTH 8 0
BBX 7 9 1 0
BITMAP
38
40
4C
32
02
42
92
92
6C
ENDCHAR
STARTCHAR uni0C90
ENCODING 3216
SWIDTH 1000 0
DWIDTH 8 0
BBX 7 7 1 0
BITMAP
6C
92
02
42
92
92
6C
ENDCHAR
STARTCHAR uni0C92
ENCODING 3218
SWIDTH 1000 0
DWIDTH 8 0
BBX 7 7 1 0
BITMAP
C0
20
20
44
92
92
6C
ENDCHAR
STARTCHAR uni0C93
ENCODING 3219
SWIDTH 1000 0
DWIDTH 8 0
BBX 7 9 1 0
BITMAP
30
40
C0
20
20
40
92
92
6C
ENDCHAR
STARTCHAR uni0C94
ENCODING 3220
SWIDTH 1000 0
DWIDTH 8 0
BBX 7 9 1 0
BITMAP
FC
12
C6
2A
24
40
92
92
6C
ENDCHAR
STARTCHAR uni0C95
ENCODING 3221
SWIDTH 1000 0
DWIDTH 6 0
BBX 5 8 1 0
BITMAP
08
F8
20
F8
70
88
88
70
ENDCHAR
STARTCHAR uni0C96
ENCODING 3222
SWIDTH 1000 0
DWIDTH 8 0
BBX 7 7 1 0
BITMAP
64
92
72
12
72
9A
64
ENDCHAR
STARTCHAR uni0C97
ENCODING 3223
SWIDTH 1000 0
DWIDTH 6 0
BBX 5 8 1 0
BITMAP
08
F8
70
88
88
88
88
88
ENDCHAR
STARTCHAR uni0E3F
ENCODING 3647
SWIDTH 500 0
DWIDTH 6 0
BBX 5 10 1 -1
BITMAP
20
F0
A8
A8
F0
A8
A8
A8
F0
20
ENDCHAR
STARTCHAR uni10A0
ENCODING 4256
SWIDTH 1000 0
DWIDTH 6 0
BBX 5 8 1 0
BITMAP
F8
40
80
80
80
80
88
70
ENDCHAR
STARTCHAR uni10A1
ENCODING 4257
SWIDTH 1000 0
DWIDTH 6 0
BBX 5 8 1 0
BITMAP
90
90
90
90
70
10
10
18
ENDCHAR
STARTCHAR uni10A2
ENCODING 4258
SWIDTH 1000 0
DWIDTH 6 0
BBX 5 9 1 -1
BITMAP
60
90
90
90
10
10
10
18
08
ENDCHAR
STARTCHAR uni10A3
ENCODING 4259
SWIDTH 1000 0
DWIDTH 6 0
BBX 5 8 1 0
BITMAP
F8
20
70
88
88
88
88
70
ENDCHAR
STARTCHAR uni10A4
ENCODING 4260
SWIDTH 1000 0
DWIDTH 6 0
BBX 5 8 1 0
BITMAP
70
88
88
88
08
08
08
08
ENDCHAR
STARTCHAR uni10A5
ENCODING 4261
SWIDTH 1000 0
DWIDTH 6 0
BBX 5 8 1 0
BITMAP
40
A0
A0
B8
28
20
20
20
ENDCHAR
STARTCHAR uni10A6
ENCODING 4262
SWIDTH 1000 0
DWIDTH 6 0
BBX 5 8 1 0
BITMAP
C0
40
40
70
48
48
48
30
ENDCHAR
STARTCHAR uni10A7
ENCODING 4263
SWIDTH 1000 0
DWIDTH 6 0
BBX 5 8 1 0
BITMAP
60
A0
A0
B8
A8
A0
A0
60
ENDCHAR
STARTCHAR uni10A8
ENCODING 4264
SWIDTH 1000 0
DWIDTH 6 0
BBX 5 8 1 0
BITMAP
F8
08
08
08
08
08
08
08
ENDCHAR
STARTCHAR uni10A9
ENCODING 4265
SWIDTH 1000 0
DWIDTH 6 0
BBX 5 8 1 0
BITMAP
80
B0
C8
88
88
98
68
08
ENDCHAR
STARTCHAR uni10AA
ENCODING 4266
SWIDTH 1000 0
DWIDTH 6 0
BBX 5 8 1 0
BITMAP
E0
A0
20
30
28
28
28
10
ENDCHAR
STARTCHAR uni10AB
ENCODING 4267
SWIDTH 1000 0
DWIDTH 6 0
BBX 5 8 1 0
BITMAP
E0
20
20
78
A8
A0
A0
40
ENDCHAR
STARTCHAR uni10AC
ENCODING 4268
SWIDTH 1000 0
DWIDTH 6 0
BBX 5 8 1 0
BITMAP
78
80
80
F0
88
88
88
88
ENDCHAR
STARTCHAR uni10AD
ENCODING 4269
SWIDTH 1000 0
DWIDTH 6 0
BBX 5 9 1 -1
BITMAP
70
88
88
88
88
88
88
70
18
ENDCHAR
STARTCHAR uni10AE
ENCODING 4270
SWIDTH 1000 0
DWIDTH 6 0
BBX 5 8 1 0
BITMAP
C8
48
48
48
48
48
48
30
ENDCHAR
STARTCHAR uni10AF
ENCODING 4271
SWIDTH 1000 0
DWIDTH 6 0
BBX 5 8 1 0
BITMAP
C8
48
88
88
78
08
08
08
ENDCHAR
STARTCHAR uni10B0
ENCODING 4272
SWIDTH 1000 0
DWIDTH 6 0
BBX 5 8 1 0
BITMAP
20
20
20
38
A8
A0
A0
40
ENDCHAR
STARTCHAR uni10B1
ENCODING 4273
SWIDTH 1000 0
DWIDTH 6 0
BBX 5 8 1 0
BITMAP
80
80
80
80
88
88
88
70
ENDCHAR
STARTCHAR uni10B2
ENCODING 4274
SWIDTH 1000 0
DWIDTH 6 0
BBX 5 8 1 0
BITMAP
F0
88
88
88
F0
80
80
F8
ENDCHAR
STARTCHAR uni10B3
ENCODING 4275
SWIDTH 1000 0
DWIDTH 6 0
BBX 5 10 1 -2
BITMAP
70
88
88
88
88
88
88
70
08
18
ENDCHAR
STARTCHAR uni10B4
ENCODING 4276
SWIDTH 1000 0
DWIDTH 6 0
BBX 5 8 1 0
BITMAP
70
A8
A8
A8
A8
70
20
20
ENDCHAR
STARTCHAR uni10B5
ENCODING 4277
SWIDTH 1000 0
DWIDTH 6 0
BBX 5 8 1 0
BITMAP
20
20
A0
F8
28
20
20
20
ENDCHAR
STARTCHAR uni10B6
ENCODING 4278
SWIDTH 1000 0
DWIDTH 6 0
BBX 5 8 1 0
BITMAP
70
88
88
88
88
88
88
88
ENDCHAR
STARTCHAR uni10B7
ENCODING 4279
SWIDTH 1000 0
DWIDTH 6 0
BBX 5 8 1 0
BITMAP
88
88
88
88
78
08
08
08
ENDCHAR
STARTCHAR uni10B8
ENCODING 4280
SWIDTH 1000 0
DWIDTH 6 0
BBX 5 8 1 0
BITMAP
88
88
88
88
78
08
88
70
ENDCHAR
STARTCHAR uni10B9
ENCODING 4281
SWIDTH 1000 0
DWIDTH 6 0
BBX 5 8 1 0
BITMAP
80
80
80
F0
88
88
88
88
ENDCHAR
STARTCHAR uni10BA
ENCODING 4282
SWIDTH 1000 0
DWIDTH 6 0
BBX 5 8 1 0
BITMAP
70
88
80
80
88
88
98
68
ENDCHAR
STARTCHAR uni10BB
ENCODING 4283
SWIDTH 1000 0
DWIDTH 6 0
BBX 5 8 1 0
BITMAP
20
20
20
78
A8
A0
A0
40
ENDCHAR
STARTCHAR uni10BC
ENCODING 4284
SWIDTH 1000 0
DWIDTH 6 0
BBX 5 8 1 0
BITMAP
F0
88
88
F0
80
E0
A0
80
ENDCHAR
STARTCHAR uni10BD
ENCODING 4285
SWIDTH 1000 0
DWIDTH 6 0
BBX 5 8 1 0
BITMAP
70
88
80
70
08
08
88
70
ENDCHAR
STARTCHAR uni10BE
ENCODING 4286
SWIDTH 1000 0
DWIDTH 6 0
BBX 5 8 1 0
BITMAP
88
88
88
88
F0
80
80
F8
ENDCHAR
STARTCHAR uni10BF
ENCODING 4287
SWIDTH 1000 0
DWIDTH 6 0
BBX 5 8 1 0
BITMAP
F8
88
50
20
20
50
88
88
ENDCHAR
STARTCHAR uni10C0
ENCODING 4288
SWIDTH 1000 0
DWIDTH 6 0
BBX 5 8 1 0
BITMAP
E0
A0
20
20
28
28
28
10
ENDCHAR
STARTCHAR uni10C1
ENCODING 4289
SWIDTH 1000 0
DWIDTH 6 0
BBX 5 8 1 0
BITMAP
80
80
E0
90
98
80
80
80
ENDCHAR
STARTCHAR uni10C2
ENCODING 4290
SWIDTH 1000 0
DWIDTH 6 0
BBX 5 8 1 0
BITMAP
B0
C8
08
08
08
08
88
70
ENDCHAR
STARTCHAR uni10C3
ENCODING 4291
SWIDTH 1000 0
DWIDTH 6 0
BBX 5 8 1 0
BITMAP
08
88
88
88
78
08
08
08
ENDCHAR
STARTCHAR uni10C4
ENCODING 4292
SWIDTH 1000 0
DWIDTH 6 0
BBX 5 8 1 0
BITMAP
88
88
88
88
70
20
20
20
ENDCHAR
STARTCHAR uni10C5
ENCODING 4293
SWIDTH 1000 0
DWIDTH 6 0
BBX 5 8 1 0
BITMAP
30
28
28
30
20
78
A0
40
ENDCHAR
STARTCHAR uni10C7
ENCODING 4295
SWIDTH 1000 0
DWIDTH 6 0
BBX 5 7 1 0
BITMAP
70
88
08
70
80
88
70
ENDCHAR
STARTCHAR uni10CD
ENCODING 4301
SWIDTH 1000 0
DWIDTH 6 0
BBX 5 8 1 0
BITMAP
F8
10
20
20
40
40
80
F8
ENDCHAR
STARTCHAR uni10D0
ENCODING 4304
SWIDTH 1000 0
DWIDTH 6 0
BBX 5 6 1 0
BITMAP
20
20
10
88
88
70
ENDCHAR
STARTCHAR uni10D1
ENCODING 4305
SWIDTH 1000 0
DWIDTH 6 0
BBX 5 9 1 0
BITMAP
80
E0
20
70
88
88
88
88
70
ENDCHAR
STARTCHAR uni10D2
ENCODING 4306
SWIDTH 1000 0
DWIDTH 6 0
BBX 5 9 1 -3
BITMAP
60
90
20
70
88
88
88
88
70
ENDCHAR
STARTCHAR uni10D3
ENCODING 4307
SWIDTH 1000 0
DWIDTH 6 0
BBX 5 8 1 -2
BITMAP
50
A8
A8
90
80
40
F0
08
ENDCHAR
STARTCHAR uni10D4
ENCODING 4308
SWIDTH 1000 0
DWIDTH 6 0
BBX 5 9 1 -3
BITMAP
70
88
08
08
08
08
08
88
70
ENDCHAR
STARTCHAR uni10D5
ENCODING 4309
SWIDTH 1000 0
DWIDTH 6 0
BBX 5 9 1 -3
BITMAP
70
88
08
08
30
08
88
88
70
ENDCHAR
STARTCHAR uni10D6
ENCODING 4310
SWIDTH 1000 0
DWIDTH 6 0
BBX 5 9 1 0
BITMAP
40
A0
A0
60
30
28
28
28
10
ENDCHAR
STARTCHAR uni10D7
ENCODING 4311
SWIDTH 1000 0
DWIDTH 6 0
BBX 5 6 1 0
BITMAP
50
A8
A8
A8
A8
48
ENDCHAR
STARTCHAR uni10D8
ENCODING 4312
SWIDTH 1000 0
DWIDTH 6 0
BBX 5 6 1 0
BITMAP
70
88
88
88
88
50
ENDCHAR
STARTCHAR uni10D9
ENCODING 4313
SWIDTH 1000 0
DWIDTH 6 0
BBX 5 9 1 -3
BITMAP
10
08
08
08
30
08
88
88
70
ENDCHAR
STARTCHAR uni10DA
ENCODING 4314
SWIDTH 1000 0
DWIDTH 6 0
BBX 5 8 1 -2
BITMAP
A8
F8
88
90
80
40
F0
08
ENDCHAR
STARTCHAR uni10DB
ENCODING 4315
SWIDTH 1000 0
DWIDTH 6 0
BBX 5 9 1 0
BITMAP
30
48
08
68
98
88
88
88
70
ENDCHAR
STARTCHAR uni10DC
ENCODING 4316
SWIDTH 1000 0
DWIDTH 6 0
BBX 5 9 1 0
BITMAP
60
98
80
F0
88
88
88
88
70
ENDCHAR
STARTCHAR uni10DD
ENCODING 4317
SWIDTH 1000 0
DWIDTH 6 0
BBX 5 6 1 0
BITMAP
50
A8
A8
88
88
50
ENDCHAR
STARTCHAR uni10DE
ENCODING 4318
SWIDTH 1000 0
DWIDTH 6 0
BBX 5 9 1 0
BITMAP
40
30
08
08
30
08
08
88
70
ENDCHAR
STARTCHAR uni10DF
ENCODING 4319
SWIDTH 1000 0
DWIDTH 6 0
BBX 5 9 1 -3
BITMAP
38
A8
48
08
08
08
88
88
70
ENDCHAR
STARTCHAR uni10E0
ENCODING 4320
SWIDTH 1000 0
DWIDTH 6 0
BBX 5 9 1 0
BITMAP
08
70
80
D0
A8
A8
88
88
50
ENDCHAR
STARTCHAR uni10E1
ENCODING 4321
SWIDTH 1000 0
DWIDTH 6 0
BBX 5 8 1 0
BITMAP
80
80
88
90
88
88
88
70
ENDCHAR
STARTCHAR uni10E2
ENCODING 4322
SWIDTH 1000 0
DWIDTH 6 0
BBX 5 9 1 -3
BITMAP
20
50
30
48
28
88
88
88
70
ENDCHAR
STARTCHAR uni10E3
ENCODING 4323
SWIDTH 1000 0
DWIDTH 6 0
BBX 5 9 1 -3
BITMAP
50
A8
A8
A8
08
08
88
88
70
ENDCHAR
STARTCHAR uni10E4
ENCODING 4324
SWIDTH 1000 0
DWIDTH 6 0
BBX 5 9 1 -3
BITMAP
50
A8
A8
A8
A8
50
08
48
30
ENDCHAR
STARTCHAR uni10E5
ENCODING 4325
SWIDTH 1000 0
DWIDTH 6 0
BBX 5 12 1 -3
BITMAP
18
08
08
78
88
08
08
08
08
08
88
70
ENDCHAR
STARTCHAR uni10E6
ENCODING 4326
SWIDTH 1000 0
DWIDTH 6 0
BBX 5 8 1 -2
BITMAP
50
A8
88
90
80
40
F0
08
ENDCHAR
STARTCHAR uni10E7
ENCODING 4327
SWIDTH 1000 0
DWIDTH 6 0
BBX 5 9 1 -3
BITMAP
88
88
88
78
08
08
08
88
70
ENDCHAR
STARTCHAR uni10E8
ENCODING 4328
SWIDTH 1000 0
DWIDTH 6 0
BBX 5 9 1 0
BITMAP
50
A8
88
08
78
88
88
88
70
ENDCHAR
STARTCHAR uni10E9
ENCODING 4329
SWIDTH 1000 0
DWIDTH 6 0
BBX 5 9 1 0
BITMAP
40
A0
C0
B0
C8
88
88
88
88
ENDCHAR
STARTCHAR uni10EA
ENCODING 4330
SWIDTH 1000 0
DWIDTH 6 0
BBX 5 9 1 -3
BITMAP
A0
90
88
88
B0
88
88
88
70
ENDCHAR
STARTCHAR uni10EB
ENCODING 4331
SWIDTH 1000 0
DWIDTH 6 0
BBX 5 9 1 0
BITMAP
10
10
08
78
88
88
88
88
70
ENDCHAR
STARTCHAR uni10EC
ENCODING 4332
SWIDTH 1000 0
DWIDTH 6 0
BBX 5 12 1 -3
BITMAP
50
A8
88
80
F8
88
88
50
50
50
20
20
ENDCHAR
STARTCHAR uni10ED
ENCODING 4333
SWIDTH 1000 0
DWIDTH 6 0
BBX 5 12 1 -3
BITMAP
80
F0
10
10
58
B0
58
10
10
08
88
70
ENDCHAR
STARTCHAR uni10EE
ENCODING 4334
SWIDTH 1000 0
DWIDTH 6 0
BBX 5 9 1 0
BITMAP
80
90
A0
C0
F0
88
88
88
70
ENDCHAR
STARTCHAR uni10EF
ENCODING 4335
SWIDTH 1000 0
DWIDTH 6 0
BBX 5 12 1 -3
BITMAP
20
20
20
E0
38
20
20
20
10
88
88
70
ENDCHAR
STARTCHAR uni10F0
ENCODING 4336
SWIDTH 1000 0
DWIDTH 6 0
BBX 5 9 1 0
BITMAP
40
30
08
30
08
30
08
88
70
ENDCHAR
STARTCHAR uni10F1
ENCODING 4337
SWIDTH 1000 0
DWIDTH 6 0
BBX 5 9 1 0
BITMAP
40
B0
A8
D0
88
90
88
88
70
ENDCHAR
STARTCHAR uni10F2
ENCODING 4338
SWIDTH 1000 0
DWIDTH 6 0
BBX 5 6 1 0
BITMAP
70
88
88
50
20
D8
ENDCHAR
STARTCHAR uni10F3
ENCODING 4339
SWIDTH 1000 0
DWIDTH 6 0
BBX 5 9 1 -3
BITMAP
F8
08
10
20
70
08
88
88
70
ENDCHAR
STARTCHAR uni10F4
ENCODING 4340
SWIDTH 1000 0
DWIDTH 6 0
BBX 5 12 1 -3
BITMAP
70
88
80
60
10
08
08
30
08
88
88
70
ENDCHAR
STARTCHAR uni10F5
ENCODING 4341
SWIDTH 1000 0
DWIDTH 6 0
BBX 5 9 1 0
BITMAP
60
90
90
78
10
78
90
90
60
ENDCHAR
STARTCHAR uni10F6
ENCODING 4342
SWIDTH 1000 0
DWIDTH 6 0
BBX 5 12 1 -3
BITMAP
40
20
20
70
A8
A8
A8
A8
70
20
20
10
ENDCHAR
STARTCHAR uni10F7
ENCODING 4343
SWIDTH 1000 0
DWIDTH 6 0
BBX 5 9 1 -3
BITMAP
70
88
08
08
70
80
80
88
70
ENDCHAR
STARTCHAR uni10F8
ENCODING 4344
SWIDTH 1000 0
DWIDTH 6 0
BBX 5 9 1 -3
BITMAP
88
88
88
F0
80
80
88
88
70
ENDCHAR
STARTCHAR uni10F9
ENCODING 4345
SWIDTH 1000 0
DWIDTH 6 0
BBX 5 9 1 -3
BITMAP
70
88
88
88
88
70
20
48
30
ENDCHAR
STARTCHAR uni10FA
ENCODING 4346
SWIDTH 1000 0
DWIDTH 6 0
BBX 5 8 1 -2
BITMAP
70
88
80
80
80
40
F0
08
ENDCHAR
STARTCHAR uni10FB
ENCODING 4347
SWIDTH 1000 0
DWIDTH 6 0
BBX 5 6 1 0
BITMAP
C0
C0
18
18
C0
C0
ENDCHAR
STARTCHAR uni10FC
ENCODING 4348
SWIDTH 1000 0
DWIDTH 6 0
BBX 3 5 2 4
BITMAP
E0
80
C0
A0
40
ENDCHAR
STARTCHAR uni10FD
ENCODING 4349
SWIDTH 1000 0
DWIDTH 6 0
BBX 5 8 1 0
BITMAP
70
88
80
70
08
08
88
70
ENDCHAR
STARTCHAR uni10FE
ENCODING 4350
SWIDTH 1000 0
DWIDTH 6 0
BBX 5 6 1 0
BITMAP
D8
20
50
88
88
70
ENDCHAR
STARTCHAR uni10FF
ENCODING 4351
SWIDTH 1000 0
DWIDTH 6 0
BBX 5 6 1 0
BITMAP
70
88
88
88
88
70
ENDCHAR
STARTCHAR uni13A0
ENCODING 5024
SWIDTH 500 0
DWIDTH 6 0
BBX 5 8 1 0
BITMAP
E0
90
88
88
88
88
90
E0
ENDCHAR
STARTCHAR uni13A1
ENCODING 5025
SWIDTH 500 0
DWIDTH 6 0
BBX 5 8 1 0
BITMAP
F0
88
88
F0
A0
A8
A8
90
ENDCHAR
STARTCHAR uni13A2
ENCODING 5026
SWIDTH 500 0
DWIDTH 6 0
BBX 5 8 1 0
BITMAP
F8
20
20
20
20
20
20
20
ENDCHAR
STARTCHAR uni13A3
ENCODING 5027
SWIDTH 500 0
DWIDTH 6 0
BBX 5 8 1 0
BITMAP
70
20
70
88
C8
A8
A8
A8
ENDCHAR
STARTCHAR uni13A4
ENCODING 5028
SWIDTH 500 0
DWIDTH 6 0
BBX 5 8 1 0
BITMAP
40
A0
A8
A8
B0
A0
A0
40
ENDCHAR
STARTCHAR uni13A5
ENCODING 5029
SWIDTH 500 0
DWIDTH 6 0
BBX 3 8 2 0
BITMAP
40
00
40
40
40
40
40
E0
ENDCHAR
STARTCHAR uni13A6
ENCODING 5030
SWIDTH 500 0
DWIDTH 6 0
BBX 5 8 1 0
BITMAP
70
88
40
F8
10
08
88
70
ENDCHAR
STARTCHAR uni13A7
ENCODING 5031
SWIDTH 500 0
DWIDTH 6 0
BBX 5 8 1 0
BITMAP
70
88
08
48
A8
A8
C8
70
ENDCHAR
STARTCHAR uni13A8
ENCODING 5032
SWIDTH 500 0
DWIDTH 6 0
BBX 5 8 1 0
BITMAP
80
80
80
E8
A8
90
80
80
ENDCHAR
STARTCHAR uni13A9
ENCODING 5033
SWIDTH 500 0
DWIDTH 6 0
BBX 5 8 1 0
BITMAP
88
88
50
50
20
20
40
40
ENDCHAR
STARTCHAR uni13AA
ENCODING 5034
SWIDTH 500 0
DWIDTH 6 0
BBX 5 8 1 0
BITMAP
20
20
50
50
70
88
88
88
ENDCHAR
STARTCHAR uni13AB
ENCODING 5035
SWIDTH 500 0
DWIDTH 6 0
BBX 5 8 1 0
BITMAP
08
08
08
08
88
88
88
70
ENDCHAR
STARTCHAR uni13AC
ENCODING 5036
SWIDTH 500 0
DWIDTH 6 0
BBX 5 8 1 0
BITMAP
F8
80
80
F0
80
80
80
F8
ENDCHAR
STARTCHAR uni13AD
ENCODING 5037
SWIDTH 500 0
DWIDTH 6 0
BBX 5 8 1 0
BITMAP
20
20
60
B8
68
28
30
30
ENDCHAR
STARTCHAR uni13AE
ENCODING 5038
SWIDTH 500 0
DWIDTH 6 0
BBX 5 8 1 0
BITMAP
70
88
08
C8
88
F0
80
80
ENDCHAR
STARTCHAR uni13AF
ENCODING 5039
SWIDTH 500 0
DWIDTH 6 0
BBX 5 8 1 0
BITMAP
30
48
48
78
48
48
48
90
ENDCHAR
STARTCHAR uni13B0
ENCODING 5040
SWIDTH 500 0
DWIDTH 6 0
BBX 5 8 1 0
BITMAP
E0
40
40
78
40
40
40
E0
ENDCHAR
STARTCHAR uni13B1
ENCODING 5041
SWIDTH 500 0
DWIDTH 6 0
BBX 5 8 1 0
BITMAP
F8
88
80
80
80
80
80
80
ENDCHAR
STARTCHAR uni13B2
ENCODING 5042
SWIDTH 500 0
DWIDTH 6 0
BBX 5 8 1 0
BITMAP
70
88
88
88
50
20
A8
50
ENDCHAR
STARTCHAR uni13B3
ENCODING 5043
SWIDTH 500 0
DWIDTH 6 0
BBX 5 8 1 0
BITMAP
88
88
88
A8
A8
70
50
50
ENDCHAR
STARTCHAR uni13B4
ENCODING 5044
SWIDTH 500 0
DWIDTH 6 0
BBX 5 8 1 0
BITMAP
30
48
20
70
88
88
88
70
ENDCHAR
STARTCHAR uni13B5
ENCODING 5045
SWIDTH 500 0
DWIDTH 6 0
BBX 5 8 1 0
BITMAP
70
88
88
88
80
80
80
80
ENDCHAR
STARTCHAR uni13B6
ENCODING 5046
SWIDTH 500 0
DWIDTH 6 0
BBX 5 8 1 0
BITMAP
70
88
A0
B0
A8
88
88
70
ENDCHAR
STARTCHAR uni13B7
ENCODING 5047
SWIDTH 500 0
DWIDTH 6 0
BBX 5 8 1 0
BITMAP
88
D8
A8
A8
88
88
88
88
ENDCHAR
STARTCHAR uni13B8
ENCODING 5048
SWIDTH 500 0
DWIDTH 6 0
BBX 5 8 1 0
BITMAP
70
88
08
08
C8
B8
08
08
ENDCHAR
STARTCHAR uni13B9
ENCODING 5049
SWIDTH 500 0
DWIDTH 6 0
BBX 5 8 1 0
BITMAP
70
20
68
90
40
A0
A0
40
ENDCHAR
STARTCHAR uni13BA
ENCODING 5050
SWIDTH 500 0
DWIDTH 6 0
BBX 5 8 1 0
BITMAP
48
A8
A8
B8
A8
A8
A8
48
ENDCHAR
STARTCHAR uni13BB
ENCODING 5051
SWIDTH 500 0
DWIDTH 6 0
BBX 5 8 1 0
BITMAP
88
88
88
F8
88
88
88
88
ENDCHAR
STARTCHAR uni13BC
ENCODING 5052
SWIDTH 500 0
DWIDTH 6 0
BBX 5 8 1 0
BITMAP
70
20
70
88
08
08
88
70
ENDCHAR
STARTCHAR uni13BD
ENCODING 5053
SWIDTH 500 0
DWIDTH 6 0
BBX 5 8 1 0
BITMAP
88
88
50
50
20
20
A0
40
ENDCHAR
STARTCHAR uni13BE
ENCODING 5054
SWIDTH 500 0
DWIDTH 6 0
BBX 5 8 1 0
BITMAP
70
88
88
F8
88
88
88
70
ENDCHAR
STARTCHAR uni13BF
ENCODING 5055
SWIDTH 500 0
DWIDTH 6 0
BBX 5 8 1 0
BITMAP
40
40
E8
48
48
48
58
28
ENDCHAR
STARTCHAR uni13C0
ENCODING 5056
SWIDTH 500 0
DWIDTH 6 0
BBX 5 8 1 0
BITMAP
70
88
80
80
98
88
88
70
ENDCHAR
STARTCHAR uni13C1
ENCODING 5057
SWIDTH 500 0
DWIDTH 6 0
BBX 5 8 1 0
BITMAP
30
48
48
48
48
48
48
88
ENDCHAR
STARTCHAR uni13C2
ENCODING 5058
SWIDTH 500 0
DWIDTH 6 0
BBX 5 8 1 0
BITMAP
80
80
80
F0
88
88
88
88
ENDCHAR
STARTCHAR uni13C3
ENCODING 5059
SWIDTH 500 0
DWIDTH 6 0
BBX 5 8 1 0
BITMAP
F8
10
20
20
40
40
80
F8
ENDCHAR
STARTCHAR uni13C4
ENCODING 5060
SWIDTH 500 0
DWIDTH 6 0
BBX 5 8 1 0
BITMAP
70
88
08
88
78
08
08
08
ENDCHAR
STARTCHAR uni13C5
ENCODING 5061
SWIDTH 500 0
DWIDTH 6 0
BBX 5 8 1 0
BITMAP
40
A0
A0
B8
A8
A0
A0
40
ENDCHAR
STARTCHAR uni13C6
ENCODING 5062
SWIDTH 500 0
DWIDTH 6 0
BBX 5 8 1 0
BITMAP
F8
A8
20
20
20
20
A8
F8
ENDCHAR
STARTCHAR uni13C7
ENCODING 5063
SWIDTH 500 0
DWIDTH 6 0
BBX 5 8 1 0
BITMAP
70
88
08
08
88
A8
A8
50
ENDCHAR
STARTCHAR uni13C8
ENCODING 5064
SWIDTH 500 0
DWIDTH 6 0
BBX 5 8 1 0
BITMAP
50
A8
28
58
88
88
88
70
ENDCHAR
STARTCHAR uni13C9
ENCODING 5065
SWIDTH 500 0
DWIDTH 6 0
BBX 6 8 0 0
BITMAP
C8
54
4C
24
28
28
10
10
ENDCHAR
STARTCHAR uni13CA
ENCODING 5066
SWIDTH 500 0
DWIDTH 6 0
BBX 5 8 1 0
BITMAP
50
88
88
98
A8
A8
A8
50
ENDCHAR
STARTCHAR uni13CB
ENCODING 5067
SWIDTH 500 0
DWIDTH 6 0
BBX 5 8 1 0
BITMAP
70
88
80
40
90
88
88
70
ENDCHAR
STARTCHAR uni13CC
ENCODING 5068
SWIDTH 500 0
DWIDTH 6 0
BBX 5 8 1 0
BITMAP
88
88
88
88
F8
88
88
70
ENDCHAR
STARTCHAR uni13CD
ENCODING 5069
SWIDTH 500 0
DWIDTH 6 0
BBX 5 8 1 0
BITMAP
70
88
08
48
A8
A8
A8
50
ENDCHAR
STARTCHAR uni13CE
ENCODING 5070
SWIDTH 500 0
DWIDTH 6 0
BBX 6 8 1 0
BITMAP
08
18
28
48
88
FC
08
08
ENDCHAR
STARTCHAR uni13CF
ENCODING 5071
SWIDTH 500 0
DWIDTH 6 0
BBX 5 8 1 0
BITMAP
80
80
80
F0
88
88
88
F0
ENDCHAR
STARTCHAR uni13D0
ENCODING 5072
SWIDTH 500 0
DWIDTH 6 0
BBX 5 8 1 0
BITMAP
20
A0
A0
70
28
28
20
20
ENDCHAR
STARTCHAR uni13D1
ENCODING 5073
SWIDTH 500 0
DWIDTH 6 0
BBX 5 8 1 0
BITMAP
20
50
38
40
90
88
88
70
ENDCHAR
STARTCHAR uni13D2
ENCODING 5074
SWIDTH 500 0
DWIDTH 6 0
BBX 5 8 1 0
BITMAP
F0
88
88
B0
90
88
88
88
ENDCHAR
STARTCHAR uni13D3
ENCODING 5075
SWIDTH 500 0
DWIDTH 6 0
BBX 5 8 1 0
BITMAP
80
80
80
80
88
88
88
70
ENDCHAR
STARTCHAR uni13D4
ENCODING 5076
SWIDTH 500 0
DWIDTH 6 0
BBX 5 8 1 0
BITMAP
A8
A8
A8
A8
A8
70
50
50
ENDCHAR
STARTCHAR uni13D5
ENCODING 5077
SWIDTH 500 0
DWIDTH 6 0
BBX 5 8 1 0
BITMAP
70
88
40
38
10
08
88
70
ENDCHAR
STARTCHAR uni13D6
ENCODING 5078
SWIDTH 500 0
DWIDTH 6 0
BBX 5 8 1 0
BITMAP
F8
20
20
20
28
28
28
10
ENDCHAR
STARTCHAR uni13D7
ENCODING 5079
SWIDTH 500 0
DWIDTH 6 0
BBX 5 8 1 0
BITMAP
08
08
08
18
18
A8
A8
48
ENDCHAR
STARTCHAR uni13D8
ENCODING 5080
SWIDTH 500 0
DWIDTH 6 0
BBX 5 8 1 0
BITMAP
F8
08
08
18
18
A8
A8
48
ENDCHAR
STARTCHAR uni13D9
ENCODING 5081
SWIDTH 500 0
DWIDTH 6 0
BBX 5 8 1 0
BITMAP
88
88
88
50
50
50
20
20
ENDCHAR
STARTCHAR uni13DA
ENCODING 5082
SWIDTH 500 0
DWIDTH 6 0
BBX 5 8 1 0
BITMAP
70
88
80
70
08
08
88
70
ENDCHAR
STARTCHAR uni13DB
ENCODING 5083
SWIDTH 500 0
DWIDTH 6 0
BBX 5 8 1 0
BITMAP
50
A8
88
C0
A0
90
88
70
ENDCHAR
STARTCHAR uni13DC
ENCODING 5084
SWIDTH 500 0
DWIDTH 6 0
BBX 5 8 1 0
BITMAP
20
50
50
20
50
A8
A8
50
ENDCHAR
STARTCHAR uni13DD
ENCODING 5085
SWIDTH 500 0
DWIDTH 6 0
BBX 5 8 1 0
BITMAP
70
88
88
88
80
80
80
F8
ENDCHAR
STARTCHAR uni13DE
ENCODING 5086
SWIDTH 500 0
DWIDTH 6 0
BBX 5 8 1 0
BITMAP
80
80
80
80
80
80
80
F8
ENDCHAR
STARTCHAR uni13DF
ENCODING 5087
SWIDTH 500 0
DWIDTH 6 0
BBX 5 8 1 0
BITMAP
70
88
80
80
80
80
88
70
ENDCHAR
STARTCHAR uni13E0
ENCODING 5088
SWIDTH 500 0
DWIDTH 6 0
BBX 5 8 1 0
BITMAP
08
08
48
A8
78
28
28
10
ENDCHAR
STARTCHAR uni13E1
ENCODING 5089
SWIDTH 500 0
DWIDTH 6 0
BBX 5 8 1 0
BITMAP
50
A8
20
50
88
88
88
70
ENDCHAR
STARTCHAR uni13E2
ENCODING 5090
SWIDTH 500 0
DWIDTH 6 0
BBX 5 8 1 0
BITMAP
F0
88
88
88
F0
80
80
80
ENDCHAR
STARTCHAR uni13E3
ENCODING 5091
SWIDTH 500 0
DWIDTH 6 0
BBX 5 8 1 0
BITMAP
60
90
B8
80
80
80
88
70
ENDCHAR
STARTCHAR uni13E4
ENCODING 5092
SWIDTH 500 0
DWIDTH 6 0
BBX 5 8 1 0
BITMAP
C8
48
48
50
50
50
60
60
ENDCHAR
STARTCHAR uni13E5
ENCODING 5093
SWIDTH 500 0
DWIDTH 6 0
BBX 5 8 1 0
BITMAP
80
80
88
90
B0
D0
90
90
ENDCHAR
STARTCHAR uni13E6
ENCODING 5094
SWIDTH 500 0
DWIDTH 6 0
BBX 5 8 1 0
BITMAP
88
90
A0
C0
C0
A0
90
88
ENDCHAR
STARTCHAR uni13E7
ENCODING 5095
SWIDTH 500 0
DWIDTH 6 0
BBX 5 8 1 0
BITMAP
08
08
08
78
88
88
88
70
ENDCHAR
STARTCHAR uni13E8
ENCODING 5096
SWIDTH 500 0
DWIDTH 6 0
BBX 5 8 1 0
BITMAP
68
90
80
80
80
80
90
68
ENDCHAR
STARTCHAR uni13E9
ENCODING 5097
SWIDTH 500 0
DWIDTH 6 0
BBX 5 8 1 0
BITMAP
70
88
80
80
80
B0
A0
58
ENDCHAR
STARTCHAR uni13EA
ENCODING 5098
SWIDTH 500 0
DWIDTH 6 0
BBX 5 8 1 0
BITMAP
50
A8
A8
B8
A8
A8
A8
50
ENDCHAR
STARTCHAR uni13EB
ENCODING 5099
SWIDTH 500 0
DWIDTH 6 0
BBX 5 8 1 0
BITMAP
70
88
88
E8
B8
88
88
70
ENDCHAR
STARTCHAR uni13EC
ENCODING 5100
SWIDTH 500 0
DWIDTH 6 0
BBX 5 8 1 0
BITMAP
48
A8
A8
A8
C8
88
88
70
ENDCHAR
STARTCHAR uni13ED
ENCODING 5101
SWIDTH 500 0
DWIDTH 6 0
BBX 5 8 1 0
BITMAP
70
88
88
88
78
08
10
60
ENDCHAR
STARTCHAR uni13EE
ENCODING 5102
SWIDTH 500 0
DWIDTH 6 0
BBX 5 8 1 0
BITMAP
30
40
80
F0
88
88
88
70
ENDCHAR
STARTCHAR uni13EF
ENCODING 5103
SWIDTH 500 0
DWIDTH 6 0
BBX 5 8 1 0
BITMAP
70
88
08
A8
58
A8
A8
50
ENDCHAR
STARTCHAR uni13F0
ENCODING 5104
SWIDTH 500 0
DWIDTH 6 0
BBX 5 9 1 -1
BITMAP
70
88
88
F0
88
88
C8
B0
80
ENDCHAR
STARTCHAR uni13F1
ENCODING 5105
SWIDTH 500 0
DWIDTH 6 0
BBX 5 8 1 0
BITMAP
70
20
30
48
58
A8
A8
90
ENDCHAR
STARTCHAR uni13F2
ENCODING 5106
SWIDTH 500 0
DWIDTH 6 0
BBX 5 8 1 0
BITMAP
70
88
88
80
F0
88
88
88
ENDCHAR
STARTCHAR uni13F3
ENCODING 5107
SWIDTH 500 0
DWIDTH 6 0
BBX 5 8 1 0
BITMAP
68
90
80
80
98
88
88
70
ENDCHAR
STARTCHAR uni13F4
ENCODING 5108
SWIDTH 500 0
DWIDTH 6 0
BBX 5 8 1 0
BITMAP
F0
88
88
F0
88
88
88
F0
ENDCHAR
STARTCHAR uni13F5
ENCODING 5109
SWIDTH 500 0
DWIDTH 6 0
BBX 5 8 1 0
BITMAP
38
40
40
40
80
98
88
70
ENDCHAR
STARTCHAR uni13F8
ENCODING 5112
SWIDTH 500 0
DWIDTH 6 0
BBX 5 7 1 -1
BITMAP
70
88
F0
88
C8
B0
80
ENDCHAR
STARTCHAR uni13F9
ENCODING 5113
SWIDTH 500 0
DWIDTH 6 0
BBX 5 6 1 0
BITMAP
60
30
48
58
A8
90
ENDCHAR
STARTCHAR uni13FA
ENCODING 5114
SWIDTH 500 0
DWIDTH 6 0
BBX 5 6 1 0
BITMAP
70
88
80
F0
88
88
ENDCHAR
STARTCHAR uni13FB
ENCODING 5115
SWIDTH 500 0
DWIDTH 6 0
BBX 5 6 1 0
BITMAP
68
90
80
98
88
70
ENDCHAR
STARTCHAR uni13FC
ENCODING 5116
SWIDTH 500 0
DWIDTH 6 0
BBX 5 6 1 0
BITMAP
F0
88
F0
88
88
F0
ENDCHAR
STARTCHAR uni13FD
ENCODING 5117
SWIDTH 500 0
DWIDTH 6 0
BBX 5 6 1 0
BITMAP
38
40
40
98
88
70
ENDCHAR
STARTCHAR uni1400
ENCODING 5120
SWIDTH 500 0
DWIDTH 6 0
BBX 5 3 1 3
BITMAP
F8
00
F8
ENDCHAR
STARTCHAR uni1401
ENCODING 5121
SWIDTH 500 0
DWIDTH 8 0
BBX 7 8 1 -1
BITMAP
FE
82
44
44
28
28
10
10
ENDCHAR
STARTCHAR uni1402
ENCODING 5122
SWIDTH 500 0
DWIDTH 8 0
BBX 7 10 1 0
BITMAP
10
28
10
10
28
28
44
44
82
FE
ENDCHAR
STARTCHAR uni1403
ENCODING 5123
SWIDTH 500 0
DWIDTH 8 0
BBX 7 8 1 0
BITMAP
10
10
28
28
44
44
82
FE
ENDCHAR
STARTCHAR uni1404
ENCODING 5124
SWIDTH 500 0
DWIDTH 8 0
BBX 7 10 1 0
BITMAP
18
18
00
10
28
28
44
44
82
FE
ENDCHAR
STARTCHAR uni1405
ENCODING 5125
SWIDTH 500 0
DWIDTH 8 0
BBX 7 7 1 0
BITMAP
C0
B0
8C
82
8C
B0
C0
ENDCHAR
STARTCHAR uni1406
ENCODING 5126
SWIDTH 500 0
DWIDTH 8 0
BBX 7 10 1 0
BITMAP
C0
C0
00
C0
B0
8C
82
8C
B0
C0
ENDCHAR
STARTCHAR uni1407
ENCODING 5127
SWIDTH 500 0
DWIDTH 8 0
BBX 7 10 1 0
BITMAP
D8
D8
00
C0
B0
8C
82
8C
B0
C0
ENDCHAR
STARTCHAR uni1408
ENCODING 5128
SWIDTH 500 0
DWIDTH 8 0
BBX 7 7 1 0
BITMAP
C0
B0
AC
A2
AC
B0
C0
ENDCHAR
STARTCHAR uni1409
ENCODING 5129
SWIDTH 500 0
DWIDTH 8 0
BBX 7 7 1 0
BITMAP
C0
B0
8C
E2
EC
B0
C0
ENDCHAR
STARTCHAR uni140A
ENCODING 5130
SWIDTH 500 0
DWIDTH 8 0
BBX 7 7 1 0
BITMAP
06
1A
62
82
62
1A
06
ENDCHAR
STARTCHAR uni140B
ENCODING 5131
SWIDTH 500 0
DWIDTH 8 0
BBX 7 10 1 0
BITMAP
06
06
00
06
1A
62
82
62
1A
06
ENDCHAR
STARTCHAR uni140C
ENCODING 5132
SWIDTH 500 0
DWIDTH 8 0
BBX 7 8 1 -1
BITMAP
FE
82
44
44
28
E8
D0
10
ENDCHAR
STARTCHAR uni140D
ENCODING 5133
SWIDTH 500 0
DWIDTH 8 0
BBX 7 8 1 -1
BITMAP
FE
82
44
44
28
2E
16
10
ENDCHAR
STARTCHAR uni140E
ENCODING 5134
SWIDTH 500 0
DWIDTH 8 0
BBX 7 8 1 0
BITMAP
10
D0
E8
28
44
44
82
FE
ENDCHAR
STARTCHAR uni140F
ENCODING 5135
SWIDTH 500 0
DWIDTH 8 0
BBX 7 8 1 0
BITMAP
10
16
2E
28
44
44
82
FE
ENDCHAR
STARTCHAR uni1410
ENCODING 5136
SWIDTH 500 0
DWIDTH 8 0
BBX 7 10 1 0
BITMAP
18
18
00
D0
E8
28
44
44
82
FE
ENDCHAR
STARTCHAR uni1411
ENCODING 5137
SWIDTH 500 0
DWIDTH 8 0
BBX 7 10 1 0
BITMAP
18
18
00
16
2E
28
44
44
82
FE
ENDCHAR
STARTCHAR uni1412
ENCODING 5138
SWIDTH 500 0
DWIDTH 10 0
BBX 9 7 1 0
BITMAP
1800
1600
1100
D080
D100
1600
1800
ENDCHAR
STARTCHAR uni1413
ENCODING 5139
SWIDTH 500 0
DWIDTH 10 0
BBX 9 7 1 0
BITMAP
C000
B000
8800
8580
8980
B000
C000
ENDCHAR
STARTCHAR uni1414
ENCODING 5140
SWIDTH 500 0
DWIDTH 10 0
BBX 9 10 1 0
BITMAP
3000
3000
0000
1800
1600
1100
D080
D100
1600
1800
ENDCHAR
STARTCHAR uni1415
ENCODING 5141
SWIDTH 500 0
DWIDTH 10 0
BBX 9 10 1 0
BITMAP
C000
C000
0000
C000
B000
8800
8580
8980
B000
C000
ENDCHAR
STARTCHAR uni1416
ENCODING 5142
SWIDTH 500 0
DWIDTH 8 0
BBX 7 10 1 0
BITMAP
C0
D8
18
C0
B0
8C
82
8C
B0
C0
ENDCHAR
STARTCHAR uni1417
ENCODING 5143
SWIDTH 500 0
DWIDTH 10 0
BBX 9 7 1 0
BITMAP
0180
0680
0880
D080
C880
0680
0180
ENDCHAR
STARTCHAR uni1418
ENCODING 5144
SWIDTH 500 0
DWIDTH 10 0
BBX 9 7 1 0
BITMAP
0C00
3400
4400
8580
4580
3400
0C00
ENDCHAR
STARTCHAR uni1419
ENCODING 5145
SWIDTH 500 0
DWIDTH 10 0
BBX 9 10 1 0
BITMAP
0180
0180
0000
0180
0680
0880
D080
C880
0680
0180
ENDCHAR
STARTCHAR uni141A
ENCODING 5146
SWIDTH 500 0
DWIDTH 10 0
BBX 9 10 1 0
BITMAP
0600
0600
0000
0C00
3400
4400
8580
4580
3400
0C00
ENDCHAR
STARTCHAR uni141B
ENCODING 5147
SWIDTH 500 0
DWIDTH 8 0
BBX 7 10 1 0
BITMAP
06
36
30
06
1A
62
82
62
1A
06
ENDCHAR
STARTCHAR uni141C
ENCODING 5148
SWIDTH 500 0
DWIDTH 6 0
BBX 5 4 1 3
BITMAP
A8
A8
A8
50
ENDCHAR
STARTCHAR uni141D
ENCODING 5149
SWIDTH 500 0
DWIDTH 6 0
BBX 5 5 1 2
BITMAP
38
28
F8
A0
E0
ENDCHAR
STARTCHAR uni141E
ENCODING 5150
SWIDTH 500 0
DWIDTH 6 0
BBX 3 4 2 3
BITMAP
40
40
A0
E0
ENDCHAR
STARTCHAR uni141F
ENCODING 5151
SWIDTH 500 0
DWIDTH 6 0
BBX 2 4 2 3
BITMAP
40
40
80
80
ENDCHAR
STARTCHAR uni1420
ENCODING 5152
SWIDTH 500 0
DWIDTH 6 0
BBX 2 4 2 3
BITMAP
80
80
40
40
ENDCHAR
STARTCHAR uni1421
ENCODING 5153
SWIDTH 500 0
DWIDTH 6 0
BBX 4 4 1 3
BITMAP
90
90
90
60
ENDCHAR
STARTCHAR uni1422
ENCODING 5154
SWIDTH 500 0
DWIDTH 6 0
BBX 4 4 1 3
BITMAP
60
90
90
90
ENDCHAR
STARTCHAR uni1423
ENCODING 5155
SWIDTH 500 0
DWIDTH 6 0
BBX 4 4 1 3
BITMAP
E0
10
10
E0
ENDCHAR
STARTCHAR uni1424
ENCODING 5156
SWIDTH 500 0
DWIDTH 6 0
BBX 4 4 1 3
BITMAP
60
90
90
60
ENDCHAR
STARTCHAR uni1425
ENCODING 5157
SWIDTH 500 0
DWIDTH 6 0
BBX 4 4 1 3
BITMAP
50
50
A0
A0
ENDCHAR
STARTCHAR uni1426
ENCODING 5158
SWIDTH 500 0
DWIDTH 6 0
BBX 3 4 2 3
BITMAP
A0
A0
A0
A0
ENDCHAR
STARTCHAR uni1427
ENCODING 5159
SWIDTH 500 0
DWIDTH 6 0
BBX 2 2 2 3
BITMAP
C0
C0
ENDCHAR
STARTCHAR uni1428
ENCODING 5160
SWIDTH 500 0
DWIDTH 6 0
BBX 3 1 1 5
BITMAP
E0
ENDCHAR
STARTCHAR uni1429
ENCODING 5161
SWIDTH 500 0
DWIDTH 6 0
BBX 3 4 1 3
BITMAP
40
E0
40
40
ENDCHAR
STARTCHAR uni142A
ENCODING 5162
SWIDTH 500 0
DWIDTH 6 0
BBX 3 4 1 3
BITMAP
E0
40
40
40
ENDCHAR
STARTCHAR uni142B
ENCODING 5163
SWIDTH 500 0
DWIDTH 10 0
BBX 10 8 1 -1
BITMAP
FE80
8280
4440
4440
2800
2800
1000
1000
ENDCHAR
STARTCHAR uni142C
ENCODING 5164
SWIDTH 500 0
DWIDTH 8 0
BBX 8 8 1 0
BITMAP
10
12
2A
29
45
44
82
FE
ENDCHAR
STARTCHAR uni142D
ENCODING 5165
SWIDTH 500 0
DWIDTH 10 0
BBX 9 7 1 0
BITMAP
C100
B100
8C80
8280
8C00
B000
C000
ENDCHAR
STARTCHAR uni142E
ENCODING 5166
SWIDTH 500 0
DWIDTH 10 0
BBX 10 7 1 0
BITMAP
0680
1A80
6240
8240
6200
1A00
0600
ENDCHAR
STARTCHAR uni142F
ENCODING 5167
SWIDTH 500 0
DWIDTH 8 0
BBX 7 8 1 -1
BITMAP
82
82
44
44
28
28
10
10
ENDCHAR
STARTCHAR uni1430
ENCODING 5168
SWIDTH 500 0
DWIDTH 8 0
BBX 7 10 1 0
BITMAP
10
28
10
10
28
28
44
44
82
82
ENDCHAR
STARTCHAR uni1431
ENCODING 5169
SWIDTH 500 0
DWIDTH 8 0
BBX 7 8 1 0
BITMAP
10
10
28
28
44
44
82
82
ENDCHAR
STARTCHAR uni1432
ENCODING 5170
SWIDTH 500 0
DWIDTH 8 0
BBX 7 10 1 0
BITMAP
18
18
00
10
28
28
44
44
82
82
ENDCHAR
STARTCHAR uni1433
ENCODING 5171
SWIDTH 500 0
DWIDTH 8 0
BBX 7 7 1 0
BITMAP
C0
30
0C
02
0C
30
C0
ENDCHAR
STARTCHAR uni1434
ENCODING 5172
SWIDTH 500 0
DWIDTH 8 0
BBX 7 10 1 0
BITMAP
C0
C0
00
C0
30
0C
02
0C
30
C0
ENDCHAR
STARTCHAR uni1435
ENCODING 5173
SWIDTH 500 0
DWIDTH 8 0
BBX 7 10 1 0
BITMAP
D8
D8
00
C0
30
0C
02
0C
30
C0
ENDCHAR
STARTCHAR uni1436
ENCODING 5174
SWIDTH 500 0
DWIDTH 8 0
BBX 7 7 1 0
BITMAP
C0
30
8C
82
8C
30
C0
ENDCHAR
STARTCHAR uni1437
ENCODING 5175
SWIDTH 500 0
DWIDTH 8 0
BBX 7 7 1 0
BITMAP
C0
30
0C
C2
CC
30
C0
ENDCHAR
STARTCHAR uni1438
ENCODING 5176
SWIDTH 500 0
DWIDTH 8 0
BBX 7 7 1 0
BITMAP
06
18
60
80
60
18
06
ENDCHAR
STARTCHAR uni1439
ENCODING 5177
SWIDTH 500 0
DWIDTH 8 0
BBX 7 10 1 0
BITMAP
06
06
00
06
18
60
80
60
18
06
ENDCHAR
STARTCHAR uni143A
ENCODING 5178
SWIDTH 500 0
DWIDTH 8 0
BBX 7 8 1 -1
BITMAP
82
82
44
44
28
E8
D0
10
ENDCHAR
STARTCHAR uni143B
ENCODING 5179
SWIDTH 500 0
DWIDTH 8 0
BBX 7 8 1 -1
BITMAP
82
82
44
44
28
2E
16
10
ENDCHAR
STARTCHAR uni143C
ENCODING 5180
SWIDTH 500 0
DWIDTH 8 0
BBX 7 8 1 0
BITMAP
10
D0
E8
28
44
44
82
82
ENDCHAR
STARTCHAR uni143D
ENCODING 5181
SWIDTH 500 0
DWIDTH 8 0
BBX 7 8 1 0
BITMAP
10
16
2E
28
44
44
82
82
ENDCHAR
STARTCHAR uni143E
ENCODING 5182
SWIDTH 500 0
DWIDTH 8 0
BBX 7 10 1 0
BITMAP
18
18
00
D0
E8
28
44
44
82
82
ENDCHAR
STARTCHAR uni143F
ENCODING 5183
SWIDTH 500 0
DWIDTH 8 0
BBX 7 10 1 0
BITMAP
18
18
00
16
2E
28
44
44
82
82
ENDCHAR
STARTCHAR uni1440
ENCODING 5184
SWIDTH 500 0
DWIDTH 10 0
BBX 9 7 1 0
BITMAP
3000
0C00
0300
C080
C300
0C00
3000
ENDCHAR
STARTCHAR uni1441
ENCODING 5185
SWIDTH 500 0
DWIDTH 10 0
BBX 9 7 1 0
BITMAP
C000
3000
0800
0580
0980
3000
C000
ENDCHAR
STARTCHAR uni1442
ENCODING 5186
SWIDTH 500 0
DWIDTH 10 0
BBX 9 10 1 0
BITMAP
3000
3000
0000
3000
0C00
0300
C080
C300
0C00
3000
ENDCHAR
STARTCHAR uni1443
ENCODING 5187
SWIDTH 500 0
DWIDTH 10 0
BBX 9 10 1 0
BITMAP
C000
C000
0000
C000
3000
0800
0580
0980
3000
C000
ENDCHAR
STARTCHAR uni1444
ENCODING 5188
SWIDTH 500 0
DWIDTH 10 0
BBX 9 7 1 0
BITMAP
0180
0600
0800
D000
C800
0600
0180
ENDCHAR
STARTCHAR uni1445
ENCODING 5189
SWIDTH 500 0
DWIDTH 10 0
BBX 9 7 1 0
BITMAP
0600
1800
6000
8180
6180
1800
0600
ENDCHAR
STARTCHAR uni1446
ENCODING 5190
SWIDTH 500 0
DWIDTH 10 0
BBX 9 10 1 0
BITMAP
0180
0180
0000
0180
0600
0800
D000
C800
0600
0180
ENDCHAR
STARTCHAR uni1447
ENCODING 5191
SWIDTH 500 0
DWIDTH 10 0
BBX 9 10 1 0
BITMAP
0600
0600
0000
0600
1800
6000
8180
6180
1800
0600
ENDCHAR
STARTCHAR uni1448
ENCODING 5192
SWIDTH 500 0
DWIDTH 8 0
BBX 7 10 1 0
BITMAP
06
36
30
06
18
60
80
60
18
06
ENDCHAR
STARTCHAR uni1449
ENCODING 5193
SWIDTH 500 0
DWIDTH 6 0
BBX 5 5 1 3
BITMAP
18
60
80
60
18
ENDCHAR
STARTCHAR uni144A
ENCODING 5194
SWIDTH 500 0
DWIDTH 6 0
BBX 1 3 2 4
BITMAP
80
80
80
ENDCHAR
STARTCHAR uni144B
ENCODING 5195
SWIDTH 500 0
DWIDTH 6 0
BBX 4 5 1 0
BITMAP
80
80
E0
90
90
ENDCHAR
STARTCHAR uni144C
ENCODING 5196
SWIDTH 500 0
DWIDTH 8 0
BBX 7 7 1 0
BITMAP
82
82
82
82
82
44
38
ENDCHAR
STARTCHAR uni144D
ENCODING 5197
SWIDTH 500 0
DWIDTH 8 0
BBX 7 10 1 0
BITMAP
10
28
10
38
44
82
82
82
82
82
ENDCHAR
STARTCHAR uni144E
ENCODING 5198
SWIDTH 500 0
DWIDTH 8 0
BBX 7 7 1 0
BITMAP
38
44
82
82
82
82
82
ENDCHAR
STARTCHAR uni144F
ENCODING 5199
SWIDTH 500 0
DWIDTH 8 0
BBX 7 10 1 0
BITMAP
18
18
00
38
44
82
82
82
82
82
ENDCHAR
STARTCHAR uni1450
ENCODING 5200
SWIDTH 500 0
DWIDTH 8 0
BBX 7 7 1 0
BITMAP
F8
04
02
02
02
04
F8
ENDCHAR
STARTCHAR uni1451
ENCODING 5201
SWIDTH 500 0
DWIDTH 8 0
BBX 7 10 1 0
BITMAP
C0
C0
00
F8
04
02
02
02
04
F8
ENDCHAR
STARTCHAR uni1452
ENCODING 5202
SWIDTH 500 0
DWIDTH 8 0
BBX 7 10 1 0
BITMAP
D8
D8
00
F8
04
02
02
02
04
F8
ENDCHAR
STARTCHAR uni1453
ENCODING 5203
SWIDTH 500 0
DWIDTH 8 0
BBX 7 7 1 0
BITMAP
F8
04
22
22
22
04
F8
ENDCHAR
STARTCHAR uni1454
ENCODING 5204
SWIDTH 500 0
DWIDTH 8 0
BBX 7 7 1 0
BITMAP
F8
04
02
62
62
04
F8
ENDCHAR
STARTCHAR uni1455
ENCODING 5205
SWIDTH 500 0
DWIDTH 8 0
BBX 7 7 1 0
BITMAP
3E
40
80
80
80
40
3E
ENDCHAR
STARTCHAR uni1456
ENCODING 5206
SWIDTH 500 0
DWIDTH 8 0
BBX 7 10 1 0
BITMAP
06
06
00
3E
40
80
80
80
40
3E
ENDCHAR
STARTCHAR uni1457
ENCODING 5207
SWIDTH 500 0
DWIDTH 10 0
BBX 9 7 1 0
BITMAP
2080
2080
2080
2080
2080
D100
CE00
ENDCHAR
STARTCHAR uni1458
ENCODING 5208
SWIDTH 500 0
DWIDTH 10 0
BBX 9 7 1 0
BITMAP
8200
8200
8200
8200
8200
4580
3980
ENDCHAR
STARTCHAR uni1459
ENCODING 5209
SWIDTH 500 0
DWIDTH 10 0
BBX 9 7 1 0
BITMAP
CE00
D100
2080
2080
2080
2080
2080
ENDCHAR
STARTCHAR uni145A
ENCODING 5210
SWIDTH 500 0
DWIDTH 10 0
BBX 9 7 1 0
BITMAP
3980
4580
8200
8200
8200
8200
8200
ENDCHAR
STARTCHAR uni145B
ENCODING 5211
SWIDTH 500 0
DWIDTH 10 0
BBX 9 10 1 0
BITMAP
0600
0600
0000
CE00
D100
2080
2080
2080
2080
2080
ENDCHAR
STARTCHAR uni145C
ENCODING 5212
SWIDTH 500 0
DWIDTH 10 0
BBX 9 10 1 0
BITMAP
1800
1800
0000
3980
4580
8200
8200
8200
8200
8200
ENDCHAR
STARTCHAR uni145D
ENCODING 5213
SWIDTH 500 0
DWIDTH 10 0
BBX 9 7 1 0
BITMAP
3E00
0100
0080
C080
C080
0100
3E00
ENDCHAR
STARTCHAR uni145E
ENCODING 5214
SWIDTH 500 0
DWIDTH 10 0
BBX 9 7 1 0
BITMAP
F000
0800
0400
0580
0580
0800
F000
ENDCHAR
STARTCHAR uni145F
ENCODING 5215
SWIDTH 500 0
DWIDTH 10 0
BBX 9 10 1 0
BITMAP
3000
3000
0000
3E00
0100
0080
C080
C080
0100
3E00
ENDCHAR
STARTCHAR uni1460
ENCODING 5216
SWIDTH 500 0
DWIDTH 10 0
BBX 9 10 1 0
BITMAP
C000
C000
0000
F000
0800
0400
0580
0580
0800
F000
ENDCHAR
STARTCHAR uni1461
ENCODING 5217
SWIDTH 500 0
DWIDTH 10 0
BBX 9 7 1 0
BITMAP
0780
0800
1000
D000
D000
0800
0780
ENDCHAR
STARTCHAR uni1462
ENCODING 5218
SWIDTH 500 0
DWIDTH 10 0
BBX 9 7 1 0
BITMAP
3E00
4000
8000
8180
8180
4000
3E00
ENDCHAR
STARTCHAR uni1463
ENCODING 5219
SWIDTH 500 0
DWIDTH 10 0
BBX 9 10 1 0
BITMAP
0180
0180
0000
0780
0800
1000
D000
D000
0800
0780
ENDCHAR
STARTCHAR uni1464
ENCODING 5220
SWIDTH 500 0
DWIDTH 10 0
BBX 9 10 1 0
BITMAP
0600
0600
0000
3E00
4000
8000
8180
8180
4000
3E00
ENDCHAR
STARTCHAR uni1465
ENCODING 5221
SWIDTH 500 0
DWIDTH 10 0
BBX 9 7 1 0
BITMAP
CF80
D000
2000
2000
2000
D000
CF80
ENDCHAR
STARTCHAR uni1466
ENCODING 5222
SWIDTH 500 0
DWIDTH 6 0
BBX 4 4 1 3
BITMAP
70
80
80
70
ENDCHAR
STARTCHAR uni1467
ENCODING 5223
SWIDTH 500 0
DWIDTH 10 0
BBX 9 7 1 0
BITMAP
8280
8280
8280
8280
8200
4400
3800
ENDCHAR
STARTCHAR uni1468
ENCODING 5224
SWIDTH 500 0
DWIDTH 10 0
BBX 9 7 1 0
BITMAP
3880
4480
8280
8280
8200
8200
8200
ENDCHAR
STARTCHAR uni1469
ENCODING 5225
SWIDTH 500 0
DWIDTH 10 0
BBX 9 7 1 0
BITMAP
F880
0480
0280
0280
0200
0400
F800
ENDCHAR
STARTCHAR uni146A
ENCODING 5226
SWIDTH 500 0
DWIDTH 10 0
BBX 9 7 1 0
BITMAP
3E80
4080
8080
8080
8000
4000
3E00
ENDCHAR
STARTCHAR uni146B
ENCODING 5227
SWIDTH 500 0
DWIDTH 6 0
BBX 5 7 1 0
BITMAP
70
88
88
88
78
08
08
ENDCHAR
STARTCHAR uni146C
ENCODING 5228
SWIDTH 500 0
DWIDTH 6 0
BBX 5 10 1 0
BITMAP
20
50
20
70
88
88
88
F0
80
80
ENDCHAR
STARTCHAR uni146D
ENCODING 5229
SWIDTH 500 0
DWIDTH 6 0
BBX 5 7 1 0
BITMAP
70
88
88
88
F0
80
80
ENDCHAR
STARTCHAR uni146E
ENCODING 5230
SWIDTH 500 0
DWIDTH 6 0
BBX 5 10 1 0
BITMAP
30
30
00
70
88
88
88
F0
80
80
ENDCHAR
STARTCHAR uni146F
ENCODING 5231
SWIDTH 500 0
DWIDTH 6 0
BBX 5 7 1 0
BITMAP
08
08
78
88
88
88
70
ENDCHAR
STARTCHAR uni1470
ENCODING 5232
SWIDTH 500 0
DWIDTH 6 0
BBX 5 10 1 0
BITMAP
18
18
00
08
08
78
88
88
88
70
ENDCHAR
STARTCHAR uni1471
ENCODING 5233
SWIDTH 500 0
DWIDTH 6 0
BBX 5 10 1 0
BITMAP
D8
D8
00
08
08
78
88
88
88
70
ENDCHAR
STARTCHAR uni1472
ENCODING 5234
SWIDTH 500 0
DWIDTH 6 0
BBX 5 7 1 0
BITMAP
80
80
F0
88
88
88
70
ENDCHAR
STARTCHAR uni1473
ENCODING 5235
SWIDTH 500 0
DWIDTH 6 0
BBX 5 10 1 0
BITMAP
C0
C0
00
80
80
F0
88
88
88
70
ENDCHAR
STARTCHAR uni1474
ENCODING 5236
SWIDTH 500 0
DWIDTH 8 0
BBX 7 7 1 0
BITMAP
1C
22
22
22
DE
C2
02
ENDCHAR
STARTCHAR uni1475
ENCODING 5237
SWIDTH 500 0
DWIDTH 8 0
BBX 7 7 1 0
BITMAP
60
90
90
90
76
16
10
ENDCHAR
STARTCHAR uni1476
ENCODING 5238
SWIDTH 500 0
DWIDTH 8 0
BBX 7 7 1 0
BITMAP
0C
12
12
12
DC
D0
10
ENDCHAR
STARTCHAR uni1477
ENCODING 5239
SWIDTH 500 0
DWIDTH 8 0
BBX 7 7 1 0
BITMAP
70
88
88
88
F6
86
80
ENDCHAR
STARTCHAR uni1478
ENCODING 5240
SWIDTH 500 0
DWIDTH 8 0
BBX 7 10 1 0
BITMAP
0C
0C
00
0C
12
12
12
DC
D0
10
ENDCHAR
STARTCHAR uni1479
ENCODING 5241
SWIDTH 500 0
DWIDTH 8 0
BBX 7 10 1 0
BITMAP
30
30
00
70
88
88
88
F6
86
80
ENDCHAR
STARTCHAR uni147A
ENCODING 5242
SWIDTH 500 0
DWIDTH 8 0
BBX 7 7 1 0
BITMAP
02
C2
DE
22
22
22
1C
ENDCHAR
STARTCHAR uni147B
ENCODING 5243
SWIDTH 500 0
DWIDTH 8 0
BBX 7 7 1 0
BITMAP
10
16
76
90
90
90
60
ENDCHAR
STARTCHAR uni147C
ENCODING 5244
SWIDTH 500 0
DWIDTH 8 0
BBX 7 10 1 0
BITMAP
06
06
00
02
C2
DE
22
22
22
1C
ENDCHAR
STARTCHAR uni147D
ENCODING 5245
SWIDTH 500 0
DWIDTH 8 0
BBX 7 10 1 0
BITMAP
30
30
00
10
10
76
96
90
90
60
ENDCHAR
STARTCHAR uni147E
ENCODING 5246
SWIDTH 500 0
DWIDTH 8 0
BBX 7 7 1 0
BITMAP
10
10
DC
D2
12
12
0C
ENDCHAR
STARTCHAR uni147F
ENCODING 5247
SWIDTH 500 0
DWIDTH 8 0
BBX 7 7 1 0
BITMAP
80
86
F6
88
88
88
70
ENDCHAR
STARTCHAR uni1480
ENCODING 5248
SWIDTH 500 0
DWIDTH 8 0
BBX 7 10 1 0
BITMAP
18
18
00
10
10
DC
D2
12
12
0C
ENDCHAR
STARTCHAR uni1481
ENCODING 5249
SWIDTH 500 0
DWIDTH 8 0
BBX 7 10 1 0
BITMAP
C0
C0
00
80
86
F6
88
88
88
70
ENDCHAR
STARTCHAR uni1482
ENCODING 5250
SWIDTH 500 0
DWIDTH 8 0
BBX 7 7 1 0
BITMAP
D0
D0
1C
D2
D2
12
0C
ENDCHAR
STARTCHAR uni1483
ENCODING 5251
SWIDTH 500 0
DWIDTH 6 0
BBX 4 6 1 3
BITMAP
80
80
E0
90
90
60
ENDCHAR
STARTCHAR uni1484
ENCODING 5252
SWIDTH 500 0
DWIDTH 6 0
BBX 4 6 1 3
BITMAP
10
10
70
90
90
60
ENDCHAR
STARTCHAR uni1485
ENCODING 5253
SWIDTH 500 0
DWIDTH 8 0
BBX 7 7 1 0
BITMAP
72
8A
8A
8A
78
08
08
ENDCHAR
STARTCHAR uni1486
ENCODING 5254
SWIDTH 500 0
DWIDTH 8 0
BBX 7 7 1 0
BITMAP
72
8A
8A
8A
F0
80
80
ENDCHAR
STARTCHAR uni1487
ENCODING 5255
SWIDTH 500 0
DWIDTH 8 0
BBX 7 7 1 0
BITMAP
0A
0A
7A
8A
88
88
70
ENDCHAR
STARTCHAR uni1488
ENCODING 5256
SWIDTH 500 0
DWIDTH 8 0
BBX 7 7 1 0
BITMAP
82
82
F2
8A
88
88
70
ENDCHAR
STARTCHAR uni1489
ENCODING 5257
SWIDTH 500 0
DWIDTH 6 0
BBX 5 7 1 0
BITMAP
70
88
88
88
08
08
08
ENDCHAR
STARTCHAR uni148A
ENCODING 5258
SWIDTH 500 0
DWIDTH 6 0
BBX 5 10 1 0
BITMAP
20
50
20
70
88
88
88
80
80
80
ENDCHAR
STARTCHAR uni148B
ENCODING 5259
SWIDTH 500 0
DWIDTH 6 0
BBX 5 7 1 0
BITMAP
70
88
88
88
80
80
80
ENDCHAR
STARTCHAR uni148C
ENCODING 5260
SWIDTH 500 0
DWIDTH 6 0
BBX 5 10 1 0
BITMAP
30
30
00
70
88
88
88
80
80
80
ENDCHAR
STARTCHAR uni148D
ENCODING 5261
SWIDTH 500 0
DWIDTH 6 0
BBX 5 7 1 0
BITMAP
08
08
08
88
88
88
70
ENDCHAR
STARTCHAR uni148E
ENCODING 5262
SWIDTH 500 0
DWIDTH 6 0
BBX 5 10 1 0
BITMAP
18
18
00
08
08
08
88
88
88
70
ENDCHAR
STARTCHAR uni148F
ENCODING 5263
SWIDTH 500 0
DWIDTH 6 0
BBX 5 10 1 0
BITMAP
D8
D8
00
08
08
08
88
88
88
70
ENDCHAR
STARTCHAR uni1490
ENCODING 5264
SWIDTH 500 0
DWIDTH 6 0
BBX 5 7 1 0
BITMAP
80
80
80
88
88
88
70
ENDCHAR
STARTCHAR uni1491
ENCODING 5265
SWIDTH 500 0
DWIDTH 6 0
BBX 5 10 1 0
BITMAP
C0
C0
00
80
80
80
88
88
88
70
ENDCHAR
STARTCHAR uni1492
ENCODING 5266
SWIDTH 500 0
DWIDTH 6 0
BBX 5 7 1 0
BITMAP
70
88
88
88
08
C8
C8
ENDCHAR
STARTCHAR uni1493
ENCODING 5267
SWIDTH 500 0
DWIDTH 8 0
BBX 7 7 1 0
BITMAP
60
90
90
90
16
16
10
ENDCHAR
STARTCHAR uni1494
ENCODING 5268
SWIDTH 500 0
DWIDTH 8 0
BBX 7 7 1 0
BITMAP
0C
12
12
12
D0
D0
10
ENDCHAR
STARTCHAR uni1495
ENCODING 5269
SWIDTH 500 0
DWIDTH 6 0
BBX 5 7 1 0
BITMAP
70
88
88
88
80
98
98
ENDCHAR
STARTCHAR uni1496
ENCODING 5270
SWIDTH 500 0
DWIDTH 8 0
BBX 7 10 1 0
BITMAP
0C
0C
00
0C
12
12
12
D0
D0
10
ENDCHAR
STARTCHAR uni1497
ENCODING 5271
SWIDTH 500 0
DWIDTH 6 0
BBX 5 10 1 0
BITMAP
30
30
00
70
88
88
88
80
98
98
ENDCHAR
STARTCHAR uni1498
ENCODING 5272
SWIDTH 500 0
DWIDTH 6 0
BBX 5 7 1 0
BITMAP
C8
C8
08
88
88
88
70
ENDCHAR
STARTCHAR uni1499
ENCODING 5273
SWIDTH 500 0
DWIDTH 8 0
BBX 7 7 1 0
BITMAP
10
10
16
96
90
90
60
ENDCHAR
STARTCHAR uni149A
ENCODING 5274
SWIDTH 500 0
DWIDTH 6 0
BBX 5 10 1 0
BITMAP
18
18
00
C8
C8
08
88
88
88
70
ENDCHAR
STARTCHAR uni149B
ENCODING 5275
SWIDTH 500 0
DWIDTH 8 0
BBX 7 10 1 0
BITMAP
30
30
00
10
10
16
96
90
90
60
ENDCHAR
STARTCHAR uni149C
ENCODING 5276
SWIDTH 500 0
DWIDTH 8 0
BBX 7 7 1 0
BITMAP
10
10
D0
D2
12
12
0C
ENDCHAR
STARTCHAR uni149D
ENCODING 5277
SWIDTH 500 0
DWIDTH 6 0
BBX 5 7 1 0
BITMAP
98
98
80
88
88
88
70
ENDCHAR
STARTCHAR uni149E
ENCODING 5278
SWIDTH 500 0
DWIDTH 8 0
BBX 7 10 1 0
BITMAP
18
18
00
10
10
D0
D2
12
12
0C
ENDCHAR
STARTCHAR uni149F
ENCODING 5279
SWIDTH 500 0
DWIDTH 6 0
BBX 5 10 1 0
BITMAP
C0
C0
00
98
98
80
88
88
88
70
ENDCHAR
ENDFONT
